TitilliumWeb-Italic.ufo
<glyph name="exclam" format="2">
  <advance width="189.22222222222223"/>
  <unicode hex="0021"/>
  <outline>
    <contour>
      <point x="111.56565656565657" y="229.989898989899" type="line"/>
      <point x="179.16161616161617" y="229.989898989899" type="line"/>
      <point x="294.73737373737373" y="700.0" type="line"/>
      <point x="217.2929292929293" y="700.0" type="line"/>
    </contour>
    <contour>
      <point x="58.6969696969697" y="0.0" type="line"/>
      <point x="135.1010101010101" y="0.0" type="line"/>
      <point x="160.56565656565655" y="111.28282828282829" type="line"/>
      <point x="84.16161616161617" y="111.28282828282829" type="line"/>
    </contour>
  </outline>
</glyph>
<glyph name="numbersign" format="2">
  <advance width="560.0"/>
  <unicode hex="0023"/>
  <outline>
    <contour>
      <point x="129.24242424242425" y="0.0" type="line"/>
      <point x="197.56565656565655" y="0.0" type="line"/>
      <point x="241.54545454545453" y="179.8989898989899" type="line"/>
      <point x="395.6060606060606" y="179.8989898989899" type="line"/>
      <point x="351.62626262626264" y="0.0" type="line"/>
      <point x="419.949494949495" y="0.0" type="line"/>
      <point x="463.92929292929296" y="179.8989898989899" type="line"/>
      <point x="574.2323232323232" y="179.8989898989899" type="line"/>
      <point x="590.3131313131313" y="244.22222222222223" type="line"/>
      <point x="480.01010101010104" y="244.22222222222223" type="line"/>
      <point x="523.8888888888889" y="421.73737373737373" type="line"/>
      <point x="634.1919191919192" y="421.73737373737373" type="line"/>
      <point x="650.2727272727273" y="486.06060606060606" type="line"/>
      <point x="539.969696969697" y="486.06060606060606" type="line"/>
      <point x="585.1414141414141" y="665.959595959596" type="line"/>
      <point x="516.8181818181819" y="665.959595959596" type="line"/>
      <point x="471.64646464646466" y="486.06060606060606" type="line"/>
      <point x="317.5858585858586" y="486.06060606060606" type="line"/>
      <point x="362.75757575757575" y="665.959595959596" type="line"/>
      <point x="294.4343434343434" y="665.959595959596" type="line"/>
      <point x="249.26262626262627" y="486.06060606060606" type="line"/>
      <point x="138.95959595959596" y="486.06060606060606" type="line"/>
      <point x="122.87878787878788" y="421.73737373737373" type="line"/>
      <point x="233.1818181818182" y="421.73737373737373" type="line"/>
      <point x="189.3030303030303" y="244.22222222222223" type="line"/>
      <point x="79.0" y="244.22222222222223" type="line"/>
      <point x="62.91919191919192" y="179.8989898989899" type="line"/>
      <point x="173.22222222222223" y="179.8989898989899" type="line"/>
    </contour>
    <contour>
      <point x="257.62626262626264" y="244.22222222222223" type="line"/>
      <point x="301.5050505050505" y="421.73737373737373" type="line"/>
      <point x="455.5656565656566" y="421.73737373737373" type="line"/>
      <point x="411.6868686868687" y="244.22222222222223" type="line"/>
    </contour>
  </outline>
</glyph>
<glyph name="dollar" format="2">
  <advance width="560.0"/>
  <unicode hex="0024"/>
  <outline>
    <contour>
      <point x="152.14141414141415" y="-119.5959595959596" type="line"/>
      <point x="204.95959595959596" y="-119.5959595959596" type="line"/>
      <point x="561.4545454545455" y="782.3232323232323" type="line"/>
      <point x="507.04040404040404" y="782.3232323232323" type="line"/>
    </contour>
    <contour>
      <point x="287.020202020202" y="-10.212121212121213" type="curve" smooth="yes"/>
      <point x="430.65656565656565" y="-10.212121212121213"/>
      <point x="524.5050505050505" y="74.74747474747474"/>
      <point x="524.5050505050505" y="218.78787878787878" type="curve" smooth="yes"/>
      <point x="524.5050505050505" y="305.19191919191917"/>
      <point x="486.7979797979798" y="334.6363636363636"/>
      <point x="389.7171717171717" y="369.52525252525254" type="curve" smooth="yes"/>
      <point x="302.37373737373736" y="400.75757575757575"/>
      <point x="271.7070707070707" y="414.54545454545456"/>
      <point x="271.7070707070707" y="467.82828282828285" type="curve" smooth="yes"/>
      <point x="271.7070707070707" y="558.7575757575758"/>
      <point x="330.73737373737373" y="606.6767676767677"/>
      <point x="424.4949494949495" y="606.6767676767677" type="curve" smooth="yes"/>
      <point x="473.8989898989899" y="606.6767676767677"/>
      <point x="549.1313131313132" y="597.2727272727273"/>
      <point x="592.3434343434343" y="589.2727272727273" type="curve"/>
      <point x="606.020202020202" y="644.939393939394" type="line"/>
      <point x="567.0" y="656.1717171717172"/>
      <point x="491.34343434343435" y="671.2121212121212"/>
      <point x="427.050505050505" y="671.2121212121212" type="curve" smooth="yes"/>
      <point x="287.45454545454544" y="671.2121212121212"/>
      <point x="195.8989898989899" y="593.3030303030303"/>
      <point x="195.8989898989899" y="461.3636363636364" type="curve" smooth="yes"/>
      <point x="195.8989898989899" y="373.7676767676768"/>
      <point x="246.010101010101" y="343.8989898989899"/>
      <point x="340.16161616161617" y="311.050505050505" type="curve" smooth="yes"/>
      <point x="425.5656565656566" y="281.5858585858586"/>
      <point x="448.1010101010101" y="266.6060606060606"/>
      <point x="448.1010101010101" y="211.72727272727272" type="curve" smooth="yes"/>
      <point x="448.1010101010101" y="111.9090909090909"/>
      <point x="389.6060606060606" y="56.13131313131313"/>
      <point x="289.7878787878788" y="56.13131313131313" type="curve" smooth="yes"/>
      <point x="238.0" y="56.13131313131313"/>
      <point x="156.21212121212122" y="65.93939393939394"/>
      <point x="107.61616161616162" y="73.74747474747474" type="curve"/>
      <point x="95.15151515151516" y="16.080808080808083" type="line"/>
      <point x="137.74747474747474" y="5.040404040404041"/>
      <point x="220.95959595959596" y="-10.212121212121213"/>
    </contour>
  </outline>
</glyph>
<glyph name="percent" format="2">
  <advance width="560.0"/>
  <unicode hex="0025"/>
  <outline>
    <contour>
      <point x="205.4747474747475" y="-9.1010101010101" type="line"/>
      <point x="565.7070707070707" y="693.5757575757576" type="line"/>
      <point x="514.7171717171717" y="708.6767676767677" type="line"/>
      <point x="154.4848484848485" y="6.0" type="line"/>
    </contour>
    <contour>
      <point x="415.0" y="0.0" type="curve" smooth="yes"/>
      <point x="481.8686868686869" y="0.0"/>
      <point x="535.6767676767677" y="44.82828282828283"/>
      <point x="559.6767676767677" y="141.23232323232324" type="curve" smooth="yes"/>
      <point x="583.6767676767677" y="237.63636363636363"/>
      <point x="551.4848484848485" y="279.67676767676767"/>
      <point x="484.020202020202" y="279.67676767676767" type="curve" smooth="yes"/>
      <point x="415.95959595959596" y="279.67676767676767"/>
      <point x="363.93939393939394" y="237.63636363636363"/>
      <point x="339.93939393939394" y="141.82828282828282" type="curve" smooth="yes"/>
      <point x="315.93939393939394" y="44.82828282828283"/>
      <point x="347.5353535353535" y="0.0"/>
    </contour>
    <contour>
      <point x="426.8484848484849" y="51.39393939393939" type="curve" smooth="yes"/>
      <point x="390.37373737373736" y="51.39393939393939"/>
      <point x="385.4141414141414" y="82.12121212121212"/>
      <point x="400.3939393939394" y="141.82828282828282" type="curve" smooth="yes"/>
      <point x="414.969696969697" y="200.34343434343435"/>
      <point x="434.6969696969697" y="228.2828282828283"/>
      <point x="471.17171717171715" y="228.2828282828283" type="curve" smooth="yes"/>
      <point x="508.24242424242425" y="228.2828282828283"/>
      <point x="513.7979797979798" y="200.34343434343435"/>
      <point x="499.22222222222223" y="141.23232323232324" type="curve" smooth="yes"/>
      <point x="484.24242424242425" y="82.12121212121212"/>
      <point x="463.9191919191919" y="51.39393939393939"/>
    </contour>
    <contour>
      <point x="238.57575757575756" y="421.9191919191919" type="curve" smooth="yes"/>
      <point x="305.44444444444446" y="421.9191919191919"/>
      <point x="359.25252525252523" y="466.74747474747477"/>
      <point x="383.25252525252523" y="563.1515151515151" type="curve" smooth="yes"/>
      <point x="407.25252525252523" y="659.5555555555555"/>
      <point x="375.65656565656565" y="701.5959595959596"/>
      <point x="308.19191919191917" y="701.5959595959596" type="curve" smooth="yes"/>
      <point x="240.13131313131314" y="701.5959595959596"/>
      <point x="187.5151515151515" y="659.5555555555555"/>
      <point x="163.5151515151515" y="563.7474747474747" type="curve" smooth="yes"/>
      <point x="139.5151515151515" y="466.74747474747477"/>
      <point x="171.11111111111111" y="421.9191919191919"/>
    </contour>
    <contour>
      <point x="251.42424242424244" y="473.3131313131313" type="curve" smooth="yes"/>
      <point x="214.94949494949495" y="473.3131313131313"/>
      <point x="209.3939393939394" y="504.6363636363636"/>
      <point x="223.96969696969697" y="563.7474747474747" type="curve" smooth="yes"/>
      <point x="238.94949494949495" y="622.2626262626262"/>
      <point x="258.8686868686869" y="650.2020202020202"/>
      <point x="295.34343434343435" y="650.2020202020202" type="curve" smooth="yes"/>
      <point x="332.4141414141414" y="650.2020202020202"/>
      <point x="337.77777777777777" y="622.2626262626262"/>
      <point x="322.7979797979798" y="563.1515151515151" type="curve" smooth="yes"/>
      <point x="308.22222222222223" y="504.04040404040404"/>
      <point x="288.4949494949495" y="473.3131313131313"/>
    </contour>
  </outline>
</glyph>
<glyph name="ampersand" format="2">
  <advance width="600.0"/>
  <unicode hex="0026"/>
  <outline>
    <contour>
      <point x="233.73737373737373" y="-10.212121212121213" type="curve" smooth="yes"/>
      <point x="326.25252525252523" y="-10.212121212121213"/>
      <point x="407.06060606060606" y="25.171717171717173"/>
      <point x="470.4040404040404" y="100.98989898989899" type="curve"/>
      <point x="566.3434343434343" y="-9.02020202020202" type="line"/>
      <point x="621.2020202020202" y="41.62626262626263" type="line"/>
      <point x="519.4747474747475" y="159.84848484848484" type="line"/>
      <point x="550.0909090909091" y="206.65656565656565"/>
      <point x="590.6868686868687" y="297.2121212121212"/>
      <point x="613.89898989899" y="367.020202020202" type="curve"/>
      <point x="541.7272727272727" y="375.4646464646465" type="line"/>
      <point x="527.959595959596" y="327.35353535353534"/>
      <point x="494.0" y="245.22222222222223"/>
      <point x="475.04040404040404" y="212.8989898989899" type="curve"/>
      <point x="360.32323232323233" y="358.5151515151515" type="line"/>
      <point x="505.07070707070704" y="418.65656565656565"/>
      <point x="560.4141414141415" y="483.6161616161616"/>
      <point x="560.4141414141415" y="588.1717171717172" type="curve" smooth="yes"/>
      <point x="560.4141414141415" y="658.2525252525253"/>
      <point x="511.90909090909093" y="701.2727272727273"/>
      <point x="412.0" y="701.2727272727273" type="curve" smooth="yes"/>
      <point x="264.72727272727275" y="701.2727272727273"/>
      <point x="202.62626262626262" y="601.3737373737374"/>
      <point x="202.62626262626262" y="499.27272727272725" type="curve" smooth="yes"/>
      <point x="202.62626262626262" y="469.44444444444446"/>
      <point x="211.24242424242425" y="443.6363636363636"/>
      <point x="232.85858585858585" y="408.979797979798" type="curve"/>
      <point x="77.53535353535354" y="358.93939393939394"/>
      <point x="23.555555555555557" y="268.34343434343435"/>
      <point x="23.555555555555557" y="137.23232323232324" type="curve" smooth="yes"/>
      <point x="23.555555555555557" y="44.4040404040404"/>
      <point x="80.8080808080808" y="-10.212121212121213"/>
    </contour>
    <contour>
      <point x="232.08080808080808" y="57.93939393939394" type="curve" smooth="yes"/>
      <point x="138.8989898989899" y="57.93939393939394"/>
      <point x="100.36363636363636" y="90.05050505050505"/>
      <point x="100.36363636363636" y="151.50505050505052" type="curve" smooth="yes"/>
      <point x="100.36363636363636" y="245.24242424242425"/>
      <point x="143.13131313131314" y="320.5656565656566"/>
      <point x="266.7878787878788" y="356.73737373737373" type="curve"/>
      <point x="427.37373737373736" y="150.21212121212122" type="line"/>
      <point x="379.3030303030303" y="88.66666666666667"/>
      <point x="309.34343434343435" y="57.93939393939394"/>
    </contour>
    <contour>
      <point x="322.16161616161617" y="406.949494949495" type="curve"/>
      <point x="299.01010101010104" y="430.8484848484849" type="line" smooth="yes"/>
      <point x="282.4141414141414" y="453.65656565656565"/>
      <point x="276.6060606060606" y="475.6363636363636"/>
      <point x="276.6060606060606" y="497.020202020202" type="curve" smooth="yes"/>
      <point x="276.6060606060606" y="561.6868686868687"/>
      <point x="313.1818181818182" y="636.1414141414141"/>
      <point x="408.7878787878788" y="636.1414141414141" type="curve" smooth="yes"/>
      <point x="462.24242424242425" y="636.1414141414141"/>
      <point x="484.7979797979798" y="617.8181818181819"/>
      <point x="484.7979797979798" y="580.89898989899" type="curve" smooth="yes"/>
      <point x="484.7979797979798" y="518.6363636363636"/>
      <point x="461.4343434343434" y="462.16161616161617"/>
    </contour>
  </outline>
</glyph>
<glyph name="quotesingle" format="2">
  <advance width="161.83838383838383"/>
  <unicode hex="0027"/>
  <outline>
    <contour>
      <point x="153.6969696969697" y="466.2020202020202" type="line"/>
      <point x="219.82828282828282" y="466.2020202020202" type="line"/>
      <point x="277.1010101010101" y="693.959595959596" type="line"/>
      <point x="205.73737373737373" y="693.959595959596" type="line"/>
    </contour>
  </outline>
</glyph>
<glyph name="parenleft" format="2">
  <advance width="227.44444444444446"/>
  <unicode hex="0028"/>
  <outline>
    <contour>
      <point x="102.05050505050505" y="-123.5959595959596" type="curve"/>
      <point x="173.43434343434342" y="-123.5959595959596" type="line"/>
      <point x="167.03030303030303" y="-82.34343434343434"/>
      <point x="158.62626262626262" y="10.333333333333334"/>
      <point x="158.62626262626262" y="113.52525252525253" type="curve" smooth="yes"/>
      <point x="158.62626262626262" y="334.25252525252523"/>
      <point x="283.62626262626264" y="605.2121212121212"/>
      <point x="378.62626262626264" y="748.0" type="curve"/>
      <point x="307.26262626262627" y="748.0" type="line"/>
      <point x="209.83838383838383" y="614.8282828282828"/>
      <point x="80.79797979797979" y="350.4848484848485"/>
      <point x="80.79797979797979" y="113.52525252525253" type="curve" smooth="yes"/>
      <point x="80.79797979797979" y="3.2929292929292924"/>
      <point x="93.03030303030303" y="-86.36363636363636"/>
    </contour>
  </outline>
</glyph>
<glyph name="parenright" format="2">
  <advance width="227.25252525252526"/>
  <unicode hex="0029"/>
  <outline>
    <contour>
      <point x="270.2020202020202" y="753.5959595959596" type="curve"/>
      <point x="198.8181818181818" y="753.5959595959596" type="line"/>
      <point x="205.22222222222223" y="712.3434343434343"/>
      <point x="213.62626262626262" y="619.6666666666666"/>
      <point x="213.62626262626262" y="516.4747474747475" type="curve" smooth="yes"/>
      <point x="213.62626262626262" y="295.74747474747477"/>
      <point x="88.62626262626263" y="24.78787878787879"/>
      <point x="-6.373737373737374" y="-118.0" type="curve"/>
      <point x="64.98989898989899" y="-118.0" type="line"/>
      <point x="162.41414141414143" y="15.171717171717171"/>
      <point x="291.45454545454544" y="279.5151515151515"/>
      <point x="291.45454545454544" y="516.4747474747475" type="curve" smooth="yes"/>
      <point x="291.45454545454544" y="626.7070707070707"/>
      <point x="279.22222222222223" y="716.3636363636364"/>
    </contour>
  </outline>
</glyph>
<glyph name="asterisk" format="2">
  <advance width="413.4646464646465"/>
  <unicode hex="002A"/>
  <outline>
    <contour>
      <point x="353.0" y="370.7070707070707" type="line"/>
      <point x="401.5656565656566" y="385.55555555555554" type="line"/>
      <point x="361.1818181818182" y="510.9191919191919" type="line"/>
      <point x="492.52525252525254" y="510.9191919191919" type="line"/>
      <point x="492.52525252525254" y="561.0808080808081" type="line"/>
      <point x="362.37373737373736" y="561.0808080808081" type="line"/>
      <point x="402.75757575757575" y="687.8484848484849" type="line"/>
      <point x="353.3838383838384" y="703.9090909090909" type="line"/>
      <point x="312.5959595959596" y="578.1414141414141" type="line"/>
      <point x="206.23232323232324" y="655.9090909090909" type="line"/>
      <point x="175.72727272727272" y="614.3636363636364" type="line"/>
      <point x="281.8989898989899" y="537.1919191919192" type="line"/>
      <point x="173.91919191919192" y="458.0" type="line"/>
      <point x="204.23232323232324" y="418.07070707070704" type="line"/>
      <point x="311.4040404040404" y="497.07070707070704" type="line"/>
    </contour>
  </outline>
</glyph>
<glyph name="plus" format="2">
  <advance width="560.0"/>
  <unicode hex="002B"/>
  <outline>
    <contour>
      <point x="301.62626262626264" y="20.404040404040405" type="line"/>
      <point x="371.5656565656566" y="20.404040404040405" type="line"/>
      <point x="371.5656565656566" y="216.62626262626262" type="line"/>
      <point x="562.2323232323232" y="216.62626262626262" type="line"/>
      <point x="562.2323232323232" y="285.37373737373736" type="line"/>
      <point x="371.5656565656566" y="285.37373737373736" type="line"/>
      <point x="371.5656565656566" y="479.5959595959596" type="line"/>
      <point x="301.62626262626264" y="479.5959595959596" type="line"/>
      <point x="301.62626262626264" y="285.37373737373736" type="line"/>
      <point x="112.95959595959596" y="285.37373737373736" type="line"/>
      <point x="112.95959595959596" y="216.62626262626262" type="line"/>
      <point x="301.62626262626264" y="216.62626262626262" type="line"/>
    </contour>
  </outline>
</glyph>
<glyph name="comma" format="2">
  <advance width="183.34343434343435"/>
  <unicode hex="002C"/>
  <outline>
    <contour>
      <point x="-12.474747474747474" y="-129.40404040404042" type="line"/>
      <point x="49.06060606060606" y="-129.40404040404042" type="line"/>
      <point x="169.2828282828283" y="111.28282828282829" type="line"/>
      <point x="86.05050505050505" y="111.28282828282829" type="line"/>
    </contour>
  </outline>
</glyph>
<glyph name="period" format="2">
  <advance width="168.0909090909091"/>
  <unicode hex="002E"/>
  <outline>
    <contour>
      <point x="46.141414141414145" y="0.0" type="line"/>
      <point x="122.54545454545455" y="0.0" type="line"/>
      <point x="148.010101010101" y="111.28282828282829" type="line"/>
      <point x="71.60606060606061" y="111.28282828282829" type="line"/>
    </contour>
  </outline>
</glyph>
<glyph name="slash" format="2">
  <advance width="419.1313131313131"/>
  <unicode hex="002F"/>
  <outline>
    <contour>
      <point x="112.34343434343435" y="-10.292929292929292" type="line"/>
      <point x="539.7676767676768" y="681.1515151515151" type="line"/>
      <point x="469.19191919191917" y="707.2727272727273" type="line"/>
      <point x="41.76767676767677" y="15.232323232323232" type="line"/>
    </contour>
  </outline>
</glyph>
<glyph name="zero" format="2">
  <advance width="560.0"/>
  <unicode hex="0030"/>
  <outline>
    <contour>
      <point x="299.67676767676767" y="-10.212121212121213" type="curve" smooth="yes"/>
      <point x="492.1515151515151" y="-10.212121212121213"/>
      <point x="610.4444444444445" y="223.65656565656565"/>
      <point x="610.4444444444445" y="474.8989898989899" type="curve" smooth="yes"/>
      <point x="610.4444444444445" y="601.7474747474747"/>
      <point x="544.8686868686868" y="670.8080808080808"/>
      <point x="409.93939393939394" y="670.8080808080808" type="curve" smooth="yes"/>
      <point x="213.2929292929293" y="670.8080808080808"/>
      <point x="101.55555555555556" y="422.04040404040404"/>
      <point x="101.55555555555556" y="182.12121212121212" type="curve" smooth="yes"/>
      <point x="101.55555555555556" y="57.06060606060606"/>
      <point x="168.91919191919192" y="-10.212121212121213"/>
    </contour>
    <contour>
      <point x="300.4848484848485" y="57.13131313131313" type="curve" smooth="yes"/>
      <point x="222.2020202020202" y="57.13131313131313"/>
      <point x="179.97979797979798" y="99.3030303030303"/>
      <point x="179.97979797979798" y="191.1818181818182" type="curve" smooth="yes"/>
      <point x="179.97979797979798" y="354.020202020202"/>
      <point x="254.68686868686868" y="603.4646464646464"/>
      <point x="408.72727272727275" y="603.4646464646464" type="curve" smooth="yes"/>
      <point x="492.77777777777777" y="603.4646464646464"/>
      <point x="532.0202020202021" y="556.5252525252525"/>
      <point x="532.0202020202021" y="466.8181818181818" type="curve" smooth="yes"/>
      <point x="532.0202020202021" y="290.4848484848485"/>
      <point x="451.35353535353534" y="57.13131313131313"/>
    </contour>
  </outline>
</glyph>
<glyph name="one" format="2">
  <advance width="560.0"/>
  <unicode hex="0031"/>
  <outline>
    <contour>
      <point x="309.3939393939394" y="0.0" type="line"/>
      <point x="386.2020202020202" y="0.0" type="line"/>
      <point x="537.6060606060606" y="660.5959595959596" type="line"/>
      <point x="470.45454545454544" y="660.5959595959596" type="line"/>
      <point x="230.94949494949495" y="526.1313131313132" type="line"/>
      <point x="250.66666666666666" y="463.42424242424244" type="line"/>
      <point x="439.2929292929293" y="567.1313131313132" type="line"/>
    </contour>
  </outline>
</glyph>
<glyph name="two" format="2">
  <advance width="560.0"/>
  <unicode hex="0032"/>
  <outline>
    <contour>
      <point x="67.17171717171718" y="0.0" type="line"/>
      <point x="489.7878787878788" y="0.0" type="line"/>
      <point x="506.27272727272725" y="67.34343434343435" type="line"/>
      <point x="177.2929292929293" y="67.34343434343435" type="line"/>
      <point x="417.6969696969697" y="258.979797979798" type="line" smooth="yes"/>
      <point x="520.3131313131313" y="340.17171717171715"/>
      <point x="599.6161616161617" y="416.09090909090907"/>
      <point x="599.6161616161617" y="525.5555555555555" type="curve" smooth="yes"/>
      <point x="599.6161616161617" y="626.1919191919192"/>
      <point x="536.4242424242424" y="671.4040404040404"/>
      <point x="412.34343434343435" y="671.4040404040404" type="curve" smooth="yes"/>
      <point x="347.3636363636364" y="671.4040404040404"/>
      <point x="265.7878787878788" y="654.7878787878788"/>
      <point x="223.0" y="641.979797979798" type="curve"/>
      <point x="214.53535353535352" y="583.10101010101" type="line"/>
      <point x="259.4949494949495" y="592.0808080808081"/>
      <point x="339.8181818181818" y="604.060606060606"/>
      <point x="395.77777777777777" y="604.060606060606" type="curve" smooth="yes"/>
      <point x="479.92929292929296" y="604.060606060606"/>
      <point x="521.1919191919192" y="579.5050505050505"/>
      <point x="521.1919191919192" y="511.8181818181818" type="curve" smooth="yes"/>
      <point x="521.1919191919192" y="439.0"/>
      <point x="447.7171717171717" y="369.90909090909093"/>
      <point x="337.8686868686869" y="277.8484848484849" type="curve" smooth="yes"/>
      <point x="82.25252525252526" y="63.13131313131313" type="line"/>
    </contour>
  </outline>
</glyph>
<glyph name="three" format="2">
  <advance width="560.0"/>
  <unicode hex="0033"/>
  <outline>
    <contour>
      <point x="267.34343434343435" y="-10.212121212121213" type="curve" smooth="yes"/>
      <point x="420.4646464646465" y="-10.212121212121213"/>
      <point x="537.040404040404" y="76.44444444444444"/>
      <point x="537.040404040404" y="218.23232323232324" type="curve" smooth="yes"/>
      <point x="537.040404040404" y="294.5959595959596"/>
      <point x="506.92929292929296" y="328.34343434343435"/>
      <point x="457.949494949495" y="350.57575757575756" type="curve"/>
      <point x="538.7979797979798" y="383.65656565656565"/>
      <point x="593.4444444444445" y="439.3838383838384"/>
      <point x="593.4444444444445" y="534.959595959596" type="curve" smooth="yes"/>
      <point x="593.4444444444445" y="624.8282828282828"/>
      <point x="538.1919191919192" y="670.8080808080808"/>
      <point x="414.7070707070707" y="670.8080808080808" type="curve" smooth="yes"/>
      <point x="342.8989898989899" y="670.8080808080808"/>
      <point x="261.9191919191919" y="653.7676767676768"/>
      <point x="220.93939393939394" y="640.5353535353536" type="curve"/>
      <point x="213.49494949494948" y="585.10101010101" type="line"/>
      <point x="255.87878787878788" y="592.8888888888889"/>
      <point x="335.83838383838383" y="603.4646464646464"/>
      <point x="399.98989898989896" y="603.4646464646464" type="curve" smooth="yes"/>
      <point x="479.67676767676767" y="603.4646464646464"/>
      <point x="515.0202020202021" y="576.6969696969697"/>
      <point x="515.0202020202021" y="515.8383838383838" type="curve" smooth="yes"/>
      <point x="515.0202020202021" y="432.4040404040404"/>
      <point x="422.7931313131313" y="373.38545454545454"/>
      <point x="358.8989898989899" y="372.4646464646465" type="curve" smooth="yes"/>
      <point x="229.3030303030303" y="370.04040404040404" type="line"/>
      <point x="213.83838383838383" y="309.16161616161617" type="line"/>
      <point x="342.8181818181818" y="308.35353535353534" type="line" smooth="yes"/>
      <point x="426.6969696969697" y="307.949494949495"/>
      <point x="458.6161616161616" y="271.6868686868687"/>
      <point x="458.6161616161616" y="214.02020202020202" type="curve" smooth="yes"/>
      <point x="458.6161616161616" y="116.58585858585859"/>
      <point x="373.37373737373736" y="57.13131313131313"/>
      <point x="273.3838383838384" y="57.13131313131313" type="curve" smooth="yes"/>
      <point x="217.42424242424244" y="57.13131313131313"/>
      <point x="135.21212121212122" y="70.68686868686868"/>
      <point x="88.5959595959596" y="81.05050505050505" type="curve"/>
      <point x="71.51515151515152" y="24.0" type="line"/>
      <point x="114.32323232323232" y="9.595959595959595"/>
      <point x="197.13131313131314" y="-10.212121212121213"/>
    </contour>
  </outline>
</glyph>
<glyph name="four" format="2">
  <advance width="560.0"/>
  <unicode hex="0034"/>
  <outline>
    <contour>
      <point x="358.949494949495" y="-2.0202020202020203" type="line"/>
      <point x="435.35353535353534" y="-2.0202020202020203" type="line"/>
      <point x="464.14141414141415" y="123.91919191919192" type="line"/>
      <point x="543.2121212121212" y="123.91919191919192" type="line"/>
      <point x="558.8888888888889" y="189.64646464646464" type="line"/>
      <point x="479.4141414141414" y="189.64646464646464" type="line"/>
      <point x="528.7575757575758" y="404.5959595959596" type="line"/>
      <point x="452.35353535353534" y="404.5959595959596" type="line"/>
      <point x="403.01010101010104" y="189.64646464646464" type="line"/>
      <point x="173.84848484848484" y="189.64646464646464" type="line"/>
      <point x="489.7979797979798" y="660.0" type="line"/>
      <point x="404.75757575757575" y="660.0" type="line"/>
      <point x="90.61616161616162" y="181.6060606060606" type="line"/>
      <point x="77.15151515151516" y="123.91919191919192" type="line"/>
      <point x="387.73737373737373" y="123.91919191919192" type="line"/>
    </contour>
  </outline>
</glyph>
<glyph name="five" format="2">
  <advance width="560.0"/>
  <unicode hex="0035"/>
  <outline>
    <contour>
      <point x="282.1010101010101" y="-9.02020202020202" type="curve" smooth="yes"/>
      <point x="436.27272727272725" y="-9.02020202020202"/>
      <point x="555.8282828282828" y="110.91919191919192"/>
      <point x="555.8282828282828" y="268.1313131313131" type="curve" smooth="yes"/>
      <point x="555.8282828282828" y="370.2121212121212"/>
      <point x="490.6161616161616" y="413.82828282828285"/>
      <point x="384.80808080808083" y="413.82828282828285" type="curve" smooth="yes"/>
      <point x="336.1212121212121" y="413.82828282828285"/>
      <point x="266.83838383838383" y="389.8686868686869"/>
      <point x="227.49494949494948" y="371.5050505050505" type="curve"/>
      <point x="300.7979797979798" y="593.060606060606" type="line"/>
      <point x="614.5959595959596" y="593.060606060606" type="line"/>
      <point x="630.2727272727273" y="660.4040404040404" type="line"/>
      <point x="253.36363636363637" y="660.4040404040404" type="line"/>
      <point x="147.72727272727272" y="316.8989898989899" type="line"/>
      <point x="207.7979797979798" y="305.22222222222223" type="line"/>
      <point x="244.50505050505052" y="323.16161616161617"/>
      <point x="312.1515151515151" y="346.4848484848485"/>
      <point x="363.050505050505" y="346.4848484848485" type="curve" smooth="yes"/>
      <point x="439.7171717171717" y="346.4848484848485"/>
      <point x="477.4040404040404" y="315.54545454545456"/>
      <point x="477.4040404040404" y="256.01010101010104" type="curve" smooth="yes"/>
      <point x="477.4040404040404" y="146.9090909090909"/>
      <point x="390.01010101010104" y="58.323232323232325"/>
      <point x="279.2323232323232" y="58.323232323232325" type="curve" smooth="yes"/>
      <point x="221.84848484848484" y="58.323232323232325"/>
      <point x="137.04040404040404" y="74.13131313131314"/>
      <point x="88.82828282828282" y="86.13131313131314" type="curve"/>
      <point x="70.34343434343434" y="25.04040404040404" type="line"/>
      <point x="117.95959595959596" y="10.616161616161616"/>
      <point x="208.02020202020202" y="-9.02020202020202"/>
    </contour>
  </outline>
</glyph>
<glyph name="six" format="2">
  <advance width="560.0"/>
  <unicode hex="0036"/>
  <outline>
    <contour>
      <point x="303.06060606060606" y="-10.212121212121213" type="curve" smooth="yes"/>
      <point x="472.90909090909093" y="-10.212121212121213"/>
      <point x="569.2929292929293" y="98.1919191919192"/>
      <point x="569.2929292929293" y="253.97979797979798" type="curve" smooth="yes"/>
      <point x="569.2929292929293" y="352.25252525252523"/>
      <point x="514.9090909090909" y="413.67676767676767"/>
      <point x="393.06060606060606" y="413.67676767676767" type="curve" smooth="yes"/>
      <point x="329.8181818181818" y="413.67676767676767"/>
      <point x="253.32323232323233" y="389.5050505050505"/>
      <point x="213.95959595959596" y="370.92929292929296" type="curve"/>
      <point x="246.3838383838384" y="479.0808080808081"/>
      <point x="314.07070707070704" y="603.4646464646464"/>
      <point x="451.9191919191919" y="603.4646464646464" type="curve" smooth="yes"/>
      <point x="508.72727272727275" y="603.4646464646464"/>
      <point x="575.5151515151515" y="593.8686868686868"/>
      <point x="610.1111111111111" y="587.2727272727273" type="curve"/>
      <point x="632.8484848484849" y="650.5959595959596" type="line"/>
      <point x="596.4242424242424" y="659.0"/>
      <point x="526.5959595959596" y="670.8080808080808"/>
      <point x="470.2121212121212" y="670.8080808080808" type="curve" smooth="yes"/>
      <point x="225.25252525252526" y="670.8080808080808"/>
      <point x="112.11111111111111" y="402.1212121212121"/>
      <point x="112.11111111111111" y="217.04040404040404" type="curve" smooth="yes"/>
      <point x="112.11111111111111" y="67.15151515151516"/>
      <point x="182.8080808080808" y="-10.212121212121213"/>
    </contour>
    <contour>
      <point x="306.1010101010101" y="57.13131313131313" type="curve" smooth="yes"/>
      <point x="226.03030303030303" y="57.13131313131313"/>
      <point x="191.13131313131314" y="122.8989898989899"/>
      <point x="191.13131313131314" y="215.42424242424244" type="curve" smooth="yes"/>
      <point x="191.13131313131314" y="249.55555555555554"/>
      <point x="196.13131313131314" y="289.24242424242425"/>
      <point x="201.32323232323233" y="306.83838383838383" type="curve"/>
      <point x="239.010101010101" y="323.98989898989896"/>
      <point x="310.42424242424244" y="346.3333333333333"/>
      <point x="370.5353535353535" y="346.3333333333333" type="curve" smooth="yes"/>
      <point x="455.0808080808081" y="346.3333333333333"/>
      <point x="490.8686868686869" y="312.85858585858585"/>
      <point x="490.8686868686869" y="240.3838383838384" type="curve" smooth="yes"/>
      <point x="490.8686868686869" y="137.1010101010101"/>
      <point x="429.2020202020202" y="57.13131313131313"/>
    </contour>
  </outline>
</glyph>
<glyph name="seven" format="2">
  <advance width="560.0"/>
  <unicode hex="0037"/>
  <outline>
    <contour>
      <point x="215.77777777777777" y="-12.636363636363637" type="line"/>
      <point x="603.1515151515151" y="545.4040404040404" type="line"/>
      <point x="630.040404040404" y="660.0" type="line"/>
      <point x="231.74747474747474" y="660.0" type="line"/>
      <point x="216.07070707070707" y="592.060606060606" type="line"/>
      <point x="536.3636363636364" y="592.060606060606" type="line"/>
      <point x="528.3636363636364" y="555.2323232323232" type="line"/>
      <point x="146.2020202020202" y="10.252525252525253" type="line"/>
    </contour>
  </outline>
</glyph>
<glyph name="eight" format="2">
  <advance width="560.0"/>
  <unicode hex="0038"/>
  <outline>
    <contour>
      <point x="269.5959595959596" y="-11.02020202020202" type="curve" smooth="yes"/>
      <point x="502.5353535353535" y="-11.02020202020202"/>
      <point x="570.8282828282828" y="138.40404040404042"/>
      <point x="570.8282828282828" y="218.78787878787878" type="curve" smooth="yes"/>
      <point x="570.8282828282828" y="267.93939393939394"/>
      <point x="557.2727272727273" y="313.74747474747477"/>
      <point x="483.07070707070704" y="344.7676767676768" type="curve"/>
      <point x="583.6565656565657" y="378.25252525252523"/>
      <point x="638.5959595959596" y="452.47474747474746"/>
      <point x="638.5959595959596" y="538.2121212121212" type="curve" smooth="yes"/>
      <point x="638.5959595959596" y="616.5555555555555"/>
      <point x="578.3636363636364" y="671.2121212121212"/>
      <point x="440.4040404040404" y="671.2121212121212" type="curve" smooth="yes"/>
      <point x="240.7171717171717" y="671.2121212121212"/>
      <point x="158.36363636363637" y="557.7878787878788"/>
      <point x="158.36363636363637" y="456.8787878787879" type="curve" smooth="yes"/>
      <point x="158.36363636363637" y="408.6161616161616"/>
      <point x="170.26262626262627" y="379.44444444444446"/>
      <point x="230.16161616161617" y="344.7676767676768" type="curve"/>
      <point x="149.95959595959596" y="309.57575757575756"/>
      <point x="65.5959595959596" y="245.55555555555554"/>
      <point x="65.5959595959596" y="132.54545454545453" type="curve" smooth="yes"/>
      <point x="65.5959595959596" y="30.1010101010101"/>
      <point x="145.62626262626262" y="-11.02020202020202"/>
    </contour>
    <contour>
      <point x="287.4848484848485" y="56.323232323232325" type="curve" smooth="yes"/>
      <point x="194.0909090909091" y="56.323232323232325"/>
      <point x="149.04040404040404" y="87.45454545454545"/>
      <point x="149.04040404040404" y="145.43434343434342" type="curve" smooth="yes"/>
      <point x="149.04040404040404" y="240.49494949494948"/>
      <point x="227.1818181818182" y="287.6060606060606"/>
      <point x="296.6161616161616" y="307.77777777777777" type="curve"/>
      <point x="397.1313131313131" y="307.77777777777777" type="line"/>
      <point x="458.35353535353534" y="289.2020202020202"/>
      <point x="490.19191919191917" y="270.4141414141414"/>
      <point x="490.19191919191917" y="210.40404040404042" type="curve" smooth="yes"/>
      <point x="490.19191919191917" y="151.84848484848484"/>
      <point x="432.2121212121212" y="56.323232323232325"/>
    </contour>
    <contour>
      <point x="312.6969696969697" y="372.90909090909093" type="line"/>
      <point x="253.91919191919192" y="396.1010101010101"/>
      <point x="236.78787878787878" y="422.5959595959596"/>
      <point x="236.78787878787878" y="462.74747474747477" type="curve" smooth="yes"/>
      <point x="236.78787878787878" y="529.8181818181819"/>
      <point x="288.7878787878788" y="603.8686868686868"/>
      <point x="422.9191919191919" y="603.8686868686868" type="curve" smooth="yes"/>
      <point x="517.060606060606" y="603.8686868686868"/>
      <point x="555.5555555555555" y="572.2727272727273"/>
      <point x="555.5555555555555" y="512.8181818181819" type="curve" smooth="yes"/>
      <point x="555.5555555555555" y="435.1212121212121"/>
      <point x="464.9191919191919" y="388.35353535353534"/>
      <point x="413.2121212121212" y="372.90909090909093" type="curve"/>
    </contour>
  </outline>
</glyph>
<glyph name="nine" format="2">
  <advance width="560.0"/>
  <unicode hex="0039"/>
  <outline>
    <contour>
      <point x="235.93939393939394" y="-10.212121212121213" type="curve" smooth="yes"/>
      <point x="405.14141414141415" y="-10.212121212121213"/>
      <point x="547.1919191919192" y="98.66666666666667"/>
      <point x="584.7373737373738" y="362.7878787878788" type="curve" smooth="yes"/>
      <point x="617.5151515151515" y="556.3131313131313"/>
      <point x="570.0505050505051" y="670.8080808080808"/>
      <point x="426.93939393939394" y="670.8080808080808" type="curve" smooth="yes"/>
      <point x="270.80808080808083" y="670.8080808080808"/>
      <point x="167.31313131313132" y="563.7373737373738"/>
      <point x="147.05050505050505" y="440.4343434343434" type="curve" smooth="yes"/>
      <point x="127.38383838383838" y="308.47474747474746"/>
      <point x="188.36363636363637" y="249.13131313131314"/>
      <point x="309.1111111111111" y="249.13131313131314" type="curve" smooth="yes"/>
      <point x="362.47474747474746" y="249.13131313131314"/>
      <point x="460.09090909090907" y="274.34343434343435"/>
      <point x="494.06060606060606" y="284.6666666666667" type="curve"/>
      <point x="454.969696969697" y="133.07070707070707"/>
      <point x="366.64646464646466" y="60.95959595959596"/>
      <point x="253.82828282828282" y="60.95959595959596" type="curve" smooth="yes"/>
      <point x="197.02020202020202" y="60.95959595959596"/>
      <point x="134.67676767676767" y="71.15151515151516"/>
      <point x="103.71717171717171" y="78.34343434343435" type="curve"/>
      <point x="78.4040404040404" y="11.191919191919192" type="line"/>
      <point x="114.57575757575758" y="2.191919191919192"/>
      <point x="181.93939393939394" y="-10.212121212121213"/>
    </contour>
    <contour>
      <point x="333.04040404040404" y="318.6868686868687" type="curve" smooth="yes"/>
      <point x="246.64646464646464" y="318.6868686868687"/>
      <point x="207.15151515151516" y="355.52525252525254"/>
      <point x="223.83838383838383" y="445.2828282828283" type="curve" smooth="yes"/>
      <point x="240.5252525252525" y="541.5252525252525"/>
      <point x="320.2121212121212" y="600.040404040404"/>
      <point x="409.45454545454544" y="600.040404040404" type="curve" smooth="yes"/>
      <point x="520.060606060606" y="600.040404040404"/>
      <point x="545.2323232323232" y="500.6060606060606"/>
      <point x="511.3333333333333" y="350.37373737373736" type="curve"/>
      <point x="462.4343434343434" y="337.22222222222223"/>
      <point x="380.3838383838384" y="318.6868686868687"/>
    </contour>
  </outline>
</glyph>
<glyph name="less" format="2">
  <advance width="560.0"/>
  <unicode hex="003C"/>
  <outline>
    <contour>
      <point x="522.979797979798" y="12.97979797979798" type="line"/>
      <point x="522.979797979798" y="92.36363636363636" type="line"/>
      <point x="184.50505050505052" y="252.21212121212122" type="line"/>
      <point x="522.979797979798" y="408.42424242424244" type="line"/>
      <point x="522.979797979798" y="486.6161616161616" type="line"/>
      <point x="106.25252525252526" y="283.949494949495" type="line"/>
      <point x="106.25252525252526" y="218.05050505050505" type="line"/>
    </contour>
  </outline>
</glyph>
<glyph name="equal" format="2">
  <advance width="560.0"/>
  <unicode hex="003D"/>
  <outline>
    <contour>
      <point x="121.95959595959596" y="308.7070707070707" type="line"/>
      <point x="554.040404040404" y="308.7070707070707" type="line"/>
      <point x="554.040404040404" y="377.85858585858585" type="line"/>
      <point x="121.95959595959596" y="377.85858585858585" type="line"/>
    </contour>
    <contour>
      <point x="121.95959595959596" y="123.94949494949495" type="line"/>
      <point x="554.040404040404" y="123.94949494949495" type="line"/>
      <point x="554.040404040404" y="193.1010101010101" type="line"/>
      <point x="121.95959595959596" y="193.1010101010101" type="line"/>
    </contour>
  </outline>
</glyph>
<glyph name="greater" format="2">
  <advance width="560.0"/>
  <unicode hex="003E"/>
  <outline>
    <contour>
      <point x="150.82828282828282" y="12.97979797979798" type="line"/>
      <point x="567.5555555555555" y="218.05050505050505" type="line"/>
      <point x="567.5555555555555" y="283.949494949495" type="line"/>
      <point x="150.82828282828282" y="486.6161616161616" type="line"/>
      <point x="150.82828282828282" y="408.42424242424244" type="line"/>
      <point x="489.3030303030303" y="252.21212121212122" type="line"/>
      <point x="150.82828282828282" y="92.36363636363636" type="line"/>
    </contour>
  </outline>
</glyph>
<glyph name="question" format="2">
  <advance width="414.3131313131313"/>
  <unicode hex="003F"/>
  <outline>
    <contour>
      <point x="182.93939393939394" y="196.08080808080808" type="curve"/>
      <point x="254.11111111111111" y="196.08080808080808" type="line"/>
      <point x="262.5151515151515" y="235.4848484848485" type="line" smooth="yes"/>
      <point x="268.7070707070707" y="265.82828282828285"/>
      <point x="292.66868686868685" y="299.0060606060606"/>
      <point x="340.01010101010104" y="335.8989898989899" type="curve" smooth="yes"/>
      <point x="465.48686868686866" y="432.7838383838384"/>
      <point x="504.1212121212121" y="471.3939393939394"/>
      <point x="504.1212121212121" y="571.1616161616162" type="curve" smooth="yes"/>
      <point x="504.1212121212121" y="665.8787878787879"/>
      <point x="435.5050505050505" y="702.1313131313132"/>
      <point x="339.19191919191917" y="702.1313131313132" type="curve" smooth="yes"/>
      <point x="290.57575757575756" y="702.1313131313132"/>
      <point x="222.36363636363637" y="687.7272727272727"/>
      <point x="184.55555555555554" y="676.9191919191919" type="curve"/>
      <point x="178.8989898989899" y="615.4242424242424" type="line"/>
      <point x="214.66666666666666" y="622.8080808080808"/>
      <point x="279.24242424242425" y="633.3838383838383"/>
      <point x="323.09090909090907" y="633.3838383838383" type="curve" smooth="yes"/>
      <point x="384.77777777777777" y="633.3838383838383"/>
      <point x="424.1010101010101" y="617.6565656565657"/>
      <point x="424.1010101010101" y="565.5050505050505" type="curve" smooth="yes"/>
      <point x="424.1010101010101" y="498.1111111111111"/>
      <point x="389.8492929292929" y="465.83232323232323"/>
      <point x="290.8989898989899" y="388.3333333333333" type="curve" smooth="yes"/>
      <point x="231.2630303030303" y="342.4581818181818"/>
      <point x="198.26666666666668" y="302.1773737373737"/>
      <point x="189.74747474747474" y="258.07070707070704" type="curve" smooth="yes"/>
      <point x="185.53535353535352" y="237.010101010101"/>
      <point x="183.53535353535352" y="209.92929292929293"/>
    </contour>
    <contour>
      <point x="140.85858585858585" y="0.595959595959596" type="line"/>
      <point x="217.26262626262627" y="0.595959595959596" type="line"/>
      <point x="243.34343434343435" y="117.34343434343435" type="line"/>
      <point x="166.34343434343435" y="117.34343434343435" type="line"/>
    </contour>
  </outline>
</glyph>
<glyph name="at" format="2">
  <advance width="933.3737373737374"/>
  <unicode hex="0040"/>
  <outline>
    <contour>
      <point x="441.5656565656566" y="-201.04040404040404" type="curve" smooth="yes"/>
      <point x="474.5656565656566" y="-201.04040404040404"/>
      <point x="540.969696969697" y="-195.63636363636363"/>
      <point x="581.7777777777778" y="-191.63636363636363" type="curve"/>
      <point x="595.2626262626262" y="-125.33333333333333" type="line"/>
      <point x="552.2626262626262" y="-129.33333333333334"/>
      <point x="486.26262626262627" y="-134.92929292929293"/>
      <point x="458.85858585858585" y="-134.92929292929293" type="curve" smooth="yes"/>
      <point x="166.42424242424244" y="-134.92929292929293"/>
      <point x="126.82585858585858" y="51.23959595959596"/>
      <point x="178.64646464646464" y="265.04040404040404" type="curve" smooth="yes"/>
      <point x="245.06828282828283" y="538.4618181818182"/>
      <point x="376.44444444444446" y="654.929292929293"/>
      <point x="625.7272727272727" y="654.929292929293" type="curve" smooth="yes"/>
      <point x="917.3434343434343" y="654.929292929293"/>
      <point x="939.0420202020202" y="498.39313131313133"/>
      <point x="893.89898989899" y="307.0" type="curve" smooth="yes"/>
      <point x="844.9511111111111" y="99.0189898989899"/>
      <point x="799.9090909090909" y="61.57575757575758"/>
      <point x="740.0505050505051" y="61.57575757575758" type="curve" smooth="yes"/>
      <point x="705.89898989899" y="61.57575757575758"/>
      <point x="686.3232323232323" y="67.0"/>
      <point x="687.5353535353536" y="103.51515151515152" type="curve" smooth="yes"/>
      <point x="689.1515151515151" y="154.58585858585857"/>
      <point x="757.0909090909091" y="440.42424242424244"/>
      <point x="768.070707070707" y="484.95959595959596" type="curve"/>
      <point x="698.5757575757576" y="497.4040404040404"/>
      <point x="612.1717171717172" y="510.2121212121212"/>
      <point x="572.939393939394" y="510.2121212121212" type="curve" smooth="yes"/>
      <point x="432.9191919191919" y="510.2121212121212"/>
      <point x="352.8480808080808" y="401.4222222222222"/>
      <point x="319.1515151515151" y="215.77777777777777" type="curve" smooth="yes"/>
      <point x="302.42383838383836" y="124.05858585858586"/>
      <point x="297.27272727272725" y="-10.808080808080808"/>
      <point x="434.8686868686869" y="-10.212121212121213" type="curve" smooth="yes"/>
      <point x="496.25252525252523" y="-10.212121212121213"/>
      <point x="585.6565656565657" y="25.919191919191917"/>
      <point x="625.6565656565657" y="45.91919191919192" type="curve"/>
      <point x="634.929292929293" y="4.595959595959596"/>
      <point x="670.1414141414141" y="-10.0"/>
      <point x="723.7575757575758" y="-10.0" type="curve" smooth="yes"/>
      <point x="831.89898989899" y="-10.0"/>
      <point x="901.319595959596" y="41.04080808080808"/>
      <point x="963.0505050505051" y="296.7878787878788" type="curve" smooth="yes"/>
      <point x="1018.7232323232323" y="526.7983838383839"/>
      <point x="964.7373737373738" y="721.040404040404"/>
      <point x="638.5757575757576" y="721.040404040404" type="curve" smooth="yes"/>
      <point x="346.19191919191917" y="721.040404040404"/>
      <point x="184.2650505050505" y="599.2214141414141"/>
      <point x="105.3030303030303" y="265.04040404040404" type="curve" smooth="yes"/>
      <point x="53.22464646464647" y="44.695757575757575"/>
      <point x="96.93939393939394" y="-201.04040404040404"/>
    </contour>
    <contour>
      <point x="453.1818181818182" y="57.3030303030303" type="curve" smooth="yes"/>
      <point x="381.3947474747475" y="57.901818181818186"/>
      <point x="377.74747474747477" y="136.37373737373738"/>
      <point x="394.55555555555554" y="215.1818181818182" type="curve" smooth="yes"/>
      <point x="423.8787878787879" y="354.1818181818182"/>
      <point x="469.77777777777777" y="445.0808080808081"/>
      <point x="569.5555555555555" y="445.0808080808081" type="curve" smooth="yes"/>
      <point x="607.6464646464647" y="445.0808080808081"/>
      <point x="655.4343434343434" y="436.67676767676767"/>
      <point x="681.4141414141415" y="430.4848484848485" type="curve"/>
      <point x="654.6666666666666" y="320.6868686868687"/>
      <point x="615.7272727272727" y="143.010101010101"/>
      <point x="612.7272727272727" y="109.01010101010101" type="curve"/>
      <point x="575.1717171717172" y="88.22222222222223"/>
      <point x="507.4783838383839" y="56.68969696969697"/>
    </contour>
  </outline>
</glyph>
<glyph name="A" format="2">
  <advance width="553.979797979798"/>
  <unicode hex="0041"/>
  <outline>
    <contour>
      <point x="24.323232323232325" y="0.0" type="line"/>
      <point x="102.13131313131314" y="0.0" type="line"/>
      <point x="191.4848484848485" y="176.40404040404042" type="line"/>
      <point x="449.67676767676767" y="176.40404040404042" type="line"/>
      <point x="455.2121212121212" y="0.0" type="line"/>
      <point x="532.4242424242424" y="0.0" type="line"/>
      <point x="518.2626262626262" y="691.9191919191919" type="line"/>
      <point x="369.06060606060606" y="691.9191919191919" type="line"/>
    </contour>
    <contour>
      <point x="223.22222222222223" y="243.95959595959596" type="line"/>
      <point x="413.7070707070707" y="623.7676767676768" type="line"/>
      <point x="443.64646464646466" y="623.7676767676768" type="line"/>
      <point x="450.5050505050505" y="243.95959595959596" type="line"/>
    </contour>
  </outline>
</glyph>
<glyph name="B" format="2">
  <advance width="577.1717171717172"/>
  <unicode hex="0042"/>
  <outline>
    <contour>
      <point x="77.51515151515152" y="0.0" type="line"/>
      <point x="316.2323232323232" y="0.0" type="line" smooth="yes"/>
      <point x="489.4848484848485" y="0.0"/>
      <point x="580.6565656565657" y="97.46464646464646"/>
      <point x="580.6565656565657" y="238.55555555555554" type="curve" smooth="yes"/>
      <point x="580.6565656565657" y="301.07070707070704"/>
      <point x="553.3737373737374" y="335.47474747474746"/>
      <point x="497.1818181818182" y="357.74747474747477" type="curve"/>
      <point x="568.5656565656566" y="389.020202020202"/>
      <point x="626.4646464646464" y="452.9191919191919"/>
      <point x="626.4646464646464" y="556.2424242424242" type="curve" smooth="yes"/>
      <point x="626.4646464646464" y="654.2626262626262"/>
      <point x="567.8080808080808" y="691.9191919191919"/>
      <point x="460.3838383838384" y="691.9191919191919" type="curve" smooth="yes"/>
      <point x="236.8989898989899" y="691.9191919191919" type="line"/>
    </contour>
    <contour>
      <point x="170.40404040404042" y="67.34343434343435" type="line"/>
      <point x="228.47474747474746" y="319.5656565656566" type="line"/>
      <point x="385.57575757575756" y="319.5656565656566" type="line" smooth="yes"/>
      <point x="452.030303030303" y="319.5656565656566"/>
      <point x="500.6363636363636" y="301.969696969697"/>
      <point x="500.6363636363636" y="236.74747474747474" type="curve" smooth="yes"/>
      <point x="500.6363636363636" y="134.2020202020202"/>
      <point x="438.98989898989896" y="67.34343434343435"/>
      <point x="331.90909090909093" y="67.34343434343435" type="curve" smooth="yes"/>
    </contour>
    <contour>
      <point x="243.15151515151516" y="385.6969696969697" type="line"/>
      <point x="298.4343434343434" y="624.5757575757576" type="line"/>
      <point x="447.32323232323233" y="624.5757575757576" type="line" smooth="yes"/>
      <point x="516.3333333333334" y="624.5757575757576"/>
      <point x="547.4444444444445" y="604.5757575757576"/>
      <point x="547.4444444444445" y="544.3333333333334" type="curve" smooth="yes"/>
      <point x="547.4444444444445" y="455.7070707070707"/>
      <point x="486.5656565656566" y="385.6969696969697"/>
      <point x="396.80808080808083" y="385.6969696969697" type="curve" smooth="yes"/>
    </contour>
  </outline>
</glyph>
<glyph name="C" format="2">
  <advance width="503.5353535353535"/>
  <unicode hex="0043"/>
  <outline>
    <contour>
      <point x="305.19191919191917" y="-10.212121212121213" type="curve" smooth="yes"/>
      <point x="361.979797979798" y="-10.212121212121213"/>
      <point x="434.7878787878788" y="2.404040404040404"/>
      <point x="473.0" y="12.212121212121213" type="curve"/>
      <point x="478.04040404040404" y="75.11111111111111" type="line"/>
      <point x="442.04040404040404" y="67.91919191919192"/>
      <point x="373.04040404040404" y="58.535353535353536"/>
      <point x="315.44444444444446" y="58.535353535353536" type="curve" smooth="yes"/>
      <point x="229.24242424242425" y="58.535353535353536"/>
      <point x="192.13131313131314" y="103.05050505050505"/>
      <point x="192.13131313131314" y="192.02020202020202" type="curve" smooth="yes"/>
      <point x="192.13131313131314" y="386.7878787878788"/>
      <point x="282.8181818181818" y="633.3838383838383"/>
      <point x="456.5151515151515" y="633.3838383838383" type="curve" smooth="yes"/>
      <point x="512.3434343434343" y="633.3838383838383"/>
      <point x="576.4949494949495" y="624.5959595959596"/>
      <point x="609.4545454545455" y="618.4040404040404" type="curve"/>
      <point x="627.1515151515151" y="678.6868686868687" type="line"/>
      <point x="589.7474747474747" y="688.7070707070707"/>
      <point x="518.5353535353536" y="702.1313131313132"/>
      <point x="460.9191919191919" y="702.1313131313132" type="curve" smooth="yes"/>
      <point x="215.03030303030303" y="702.1313131313132"/>
      <point x="112.11111111111111" y="400.17171717171715"/>
      <point x="112.11111111111111" y="187.97979797979798" type="curve" smooth="yes"/>
      <point x="112.11111111111111" y="59.0"/>
      <point x="175.13131313131314" y="-10.212121212121213"/>
    </contour>
  </outline>
</glyph>
<glyph name="D" format="2">
  <advance width="606.7878787878788"/>
  <unicode hex="0044"/>
  <outline>
    <contour>
      <point x="77.51515151515152" y="0.0" type="line"/>
      <point x="317.34343434343435" y="0.0" type="line" smooth="yes"/>
      <point x="548.2323232323232" y="0.0"/>
      <point x="651.6565656565657" y="274.4141414141414"/>
      <point x="651.6565656565657" y="486.1111111111111" type="curve" smooth="yes"/>
      <point x="651.6565656565657" y="633.6161616161617"/>
      <point x="581.4141414141415" y="691.9191919191919"/>
      <point x="459.83838383838383" y="691.9191919191919" type="curve" smooth="yes"/>
      <point x="237.49494949494948" y="691.9191919191919" type="line"/>
    </contour>
    <contour>
      <point x="171.40404040404042" y="68.15151515151516" type="line"/>
      <point x="298.62626262626264" y="623.7676767676768" type="line"/>
      <point x="444.35353535353534" y="623.7676767676768" type="line" smooth="yes"/>
      <point x="533.2121212121212" y="623.7676767676768"/>
      <point x="571.6363636363636" y="583.3131313131313"/>
      <point x="571.6363636363636" y="486.1111111111111" type="curve" smooth="yes"/>
      <point x="571.6363636363636" y="324.5656565656566"/>
      <point x="492.4141414141414" y="68.15151515151516"/>
      <point x="327.55555555555554" y="68.15151515151516" type="curve" smooth="yes"/>
    </contour>
  </outline>
</glyph>
<glyph name="E" format="2">
  <advance width="504.74747474747477"/>
  <unicode hex="0045"/>
  <outline>
    <contour>
      <point x="77.51515151515152" y="0.0" type="line"/>
      <point x="463.80808080808083" y="0.0" type="line"/>
      <point x="479.4848484848485" y="68.15151515151516" type="line"/>
      <point x="170.8080808080808" y="68.15151515151516" type="line"/>
      <point x="228.07070707070707" y="317.54545454545456" type="line"/>
      <point x="480.74747474747477" y="317.54545454545456" type="line"/>
      <point x="496.82828282828285" y="385.6969696969697" type="line"/>
      <point x="243.74747474747474" y="385.6969696969697" type="line"/>
      <point x="298.62626262626264" y="623.7676767676768" type="line"/>
      <point x="606.89898989899" y="623.7676767676768" type="line"/>
      <point x="622.979797979798" y="691.9191919191919" type="line"/>
      <point x="237.0909090909091" y="691.9191919191919" type="line"/>
    </contour>
  </outline>
</glyph>
<glyph name="F" format="2">
  <advance width="481.7676767676768"/>
  <unicode hex="0046"/>
  <outline>
    <contour>
      <point x="77.51515151515152" y="0.0" type="line"/>
      <point x="154.72727272727272" y="0.0" type="line"/>
      <point x="220.05050505050505" y="283.27272727272725" type="line"/>
      <point x="475.5353535353535" y="283.27272727272725" type="line"/>
      <point x="492.020202020202" y="351.42424242424244" type="line"/>
      <point x="236.13131313131314" y="351.42424242424244" type="line"/>
      <point x="298.62626262626264" y="623.7676767676768" type="line"/>
      <point x="598.5151515151515" y="623.7676767676768" type="line"/>
      <point x="614.5959595959596" y="691.9191919191919" type="line"/>
      <point x="237.49494949494948" y="691.9191919191919" type="line"/>
    </contour>
  </outline>
</glyph>
<glyph name="G" format="2">
  <advance width="572.1717171717172"/>
  <unicode hex="0047"/>
  <outline>
    <contour>
      <point x="321.6363636363636" y="-10.212121212121213" type="curve" smooth="yes"/>
      <point x="398.14141414141415" y="-10.212121212121213"/>
      <point x="477.1010101010101" y="5.383838383838384"/>
      <point x="515.040404040404" y="16.97979797979798" type="curve"/>
      <point x="594.6767676767677" y="358.92929292929296" type="line"/>
      <point x="413.34343434343435" y="358.92929292929296" type="line"/>
      <point x="397.6666666666667" y="293.2020202020202" type="line"/>
      <point x="502.19191919191917" y="293.2020202020202" type="line"/>
      <point x="451.1010101010101" y="73.07070707070707" type="line"/>
      <point x="423.6060606060606" y="66.8989898989899"/>
      <point x="371.3838383838384" y="57.93939393939394"/>
      <point x="329.6969696969697" y="57.93939393939394" type="curve" smooth="yes"/>
      <point x="242.87878787878788" y="57.93939393939394"/>
      <point x="193.34343434343435" y="95.85858585858585"/>
      <point x="193.34343434343435" y="185.50505050505052" type="curve" smooth="yes"/>
      <point x="193.34343434343435" y="372.8787878787879"/>
      <point x="272.7979797979798" y="633.9797979797979"/>
      <point x="459.3636363636364" y="633.9797979797979" type="curve" smooth="yes"/>
      <point x="524.5555555555555" y="633.9797979797979"/>
      <point x="605.7474747474747" y="621.7878787878788"/>
      <point x="649.3434343434343" y="612.7878787878788" type="curve"/>
      <point x="668.2323232323232" y="671.070707070707" type="line"/>
      <point x="625.6363636363636" y="684.4949494949495"/>
      <point x="542.020202020202" y="702.1313131313132"/>
      <point x="468.57575757575756" y="702.1313131313132" type="curve" smooth="yes"/>
      <point x="222.74747474747474" y="702.1313131313132"/>
      <point x="113.32323232323232" y="430.969696969697"/>
      <point x="113.32323232323232" y="185.9090909090909" type="curve" smooth="yes"/>
      <point x="113.32323232323232" y="53.04040404040404"/>
      <point x="187.15151515151516" y="-10.212121212121213"/>
    </contour>
  </outline>
</glyph>
<glyph name="H" format="2">
  <advance width="623.5757575757576"/>
  <unicode hex="0048"/>
  <outline>
    <contour>
      <point x="77.51515151515152" y="0.0" type="line"/>
      <point x="154.72727272727272" y="0.0" type="line"/>
      <point x="227.2828282828283" y="315.4141414141414" type="line"/>
      <point x="541.4040404040404" y="315.4141414141414" type="line"/>
      <point x="468.8484848484849" y="0.0" type="line"/>
      <point x="546.060606060606" y="0.0" type="line"/>
      <point x="706.040404040404" y="691.9191919191919" type="line"/>
      <point x="628.8282828282828" y="691.9191919191919" type="line"/>
      <point x="557.4848484848485" y="383.5656565656566" type="line"/>
      <point x="243.36363636363637" y="383.5656565656566" type="line"/>
      <point x="314.7070707070707" y="691.9191919191919" type="line"/>
      <point x="237.49494949494948" y="691.9191919191919" type="line"/>
    </contour>
  </outline>
</glyph>
<glyph name="I" format="2">
  <advance width="232.24242424242425"/>
  <unicode hex="0049"/>
  <outline>
    <contour>
      <point x="77.51515151515152" y="0.0" type="line"/>
      <point x="154.72727272727272" y="0.0" type="line"/>
      <point x="314.7070707070707" y="691.9191919191919" type="line"/>
      <point x="237.49494949494948" y="691.9191919191919" type="line"/>
    </contour>
  </outline>
</glyph>
<glyph name="J" format="2">
  <advance width="265.1212121212121"/>
  <unicode hex="004A"/>
  <outline>
    <contour>
      <point x="6.595959595959596" y="-70.1919191919192" type="line"/>
      <point x="159.54545454545453" y="-70.1919191919192"/>
      <point x="181.36444444444444" y="-41.62949494949495"/>
      <point x="218.03030303030303" y="118.31313131313131" type="curve" smooth="yes"/>
      <point x="350.5858585858586" y="691.9191919191919" type="line"/>
      <point x="273.37373737373736" y="691.9191919191919" type="line"/>
      <point x="142.010101010101" y="123.67676767676768" type="line" smooth="yes"/>
      <point x="116.85858585858585" y="14.09090909090909"/>
      <point x="101.66666666666667" y="-1.2323232323232318"/>
      <point x="19.464646464646464" y="-2.0404040404040416" type="curve"/>
    </contour>
  </outline>
</glyph>
<glyph name="K" format="2">
  <advance width="520.929292929293"/>
  <unicode hex="004B"/>
  <outline>
    <contour>
      <point x="77.51515151515152" y="0.0" type="line"/>
      <point x="154.72727272727272" y="0.0" type="line"/>
      <point x="224.66666666666666" y="303.54545454545456" type="line"/>
      <point x="324.5050505050505" y="306.37373737373736" type="line"/>
      <point x="422.14141414141415" y="0.0" type="line"/>
      <point x="503.37373737373736" y="0.0" type="line"/>
      <point x="393.2929292929293" y="343.17171717171715" type="line"/>
      <point x="662.1414141414141" y="691.9191919191919" type="line"/>
      <point x="575.5050505050505" y="691.9191919191919" type="line"/>
      <point x="331.5656565656566" y="374.92929292929296" type="line"/>
      <point x="240.15151515151516" y="371.6969696969697" type="line"/>
      <point x="314.7070707070707" y="691.9191919191919" type="line"/>
      <point x="237.49494949494948" y="691.9191919191919" type="line"/>
    </contour>
  </outline>
</glyph>
<glyph name="L" format="2">
  <advance width="433.32323232323233"/>
  <unicode hex="004C"/>
  <outline>
    <contour>
      <point x="77.51515151515152" y="0.0" type="line"/>
      <point x="426.74747474747477" y="0.0" type="line"/>
      <point x="442.42424242424244" y="68.15151515151516" type="line"/>
      <point x="170.8080808080808" y="68.15151515151516" type="line"/>
      <point x="314.7070707070707" y="691.9191919191919" type="line"/>
      <point x="237.49494949494948" y="691.9191919191919" type="line"/>
    </contour>
  </outline>
</glyph>
<glyph name="M" format="2">
  <advance width="780.060606060606"/>
  <unicode hex="004D"/>
  <outline>
    <contour>
      <point x="77.51515151515152" y="0.0" type="line"/>
      <point x="154.72727272727272" y="0.0" type="line"/>
      <point x="298.22222222222223" y="623.7676767676768" type="line"/>
      <point x="308.5858585858586" y="623.7676767676768" type="line"/>
      <point x="354.2828282828283" y="24.636363636363637" type="line"/>
      <point x="434.22222222222223" y="24.636363636363637" type="line"/>
      <point x="760.060606060606" y="623.7676767676768" type="line"/>
      <point x="770.2323232323232" y="623.7676767676768" type="line"/>
      <point x="625.3333333333334" y="0.0" type="line"/>
      <point x="702.5454545454545" y="0.0" type="line"/>
      <point x="862.5252525252525" y="691.9191919191919" type="line"/>
      <point x="730.939393939394" y="691.9191919191919" type="line"/>
      <point x="410.77777777777777" y="106.92929292929293" type="line"/>
      <point x="367.4646464646465" y="691.9191919191919" type="line"/>
      <point x="237.49494949494948" y="691.9191919191919" type="line"/>
    </contour>
  </outline>
</glyph>
<glyph name="N" format="2">
  <advance width="630.7373737373738"/>
  <unicode hex="004E"/>
  <outline>
    <contour>
      <point x="77.51515151515152" y="0.0" type="line"/>
      <point x="151.49494949494948" y="0.0" type="line"/>
      <point x="294.5858585858586" y="616.89898989899" type="line"/>
      <point x="314.3333333333333" y="616.89898989899" type="line"/>
      <point x="422.1010101010101" y="0.0" type="line"/>
      <point x="553.2222222222222" y="0.0" type="line"/>
      <point x="713.2020202020202" y="691.9191919191919" type="line"/>
      <point x="638.010101010101" y="691.9191919191919" type="line"/>
      <point x="497.34343434343435" y="79.06060606060606" type="line"/>
      <point x="478.19191919191917" y="79.06060606060606" type="line"/>
      <point x="374.25252525252523" y="691.9191919191919" type="line"/>
      <point x="237.49494949494948" y="691.9191919191919" type="line"/>
    </contour>
  </outline>
</glyph>
<glyph name="O" format="2">
  <advance width="627.5151515151515"/>
  <unicode hex="004F"/>
  <outline>
    <contour>
      <point x="325.72727272727275" y="-10.212121212121213" type="curve" smooth="yes"/>
      <point x="394.93939393939394" y="-10.212121212121213"/>
      <point x="457.7878787878788" y="12.171717171717171"/>
      <point x="506.19191919191917" y="51.36363636363637" type="curve" smooth="yes"/>
      <point x="619.0" y="143.93939393939394"/>
      <point x="671.979797979798" y="325.1111111111111"/>
      <point x="671.979797979798" y="495.32323232323233" type="curve" smooth="yes"/>
      <point x="671.979797979798" y="639.3434343434343"/>
      <point x="595.5151515151515" y="702.1313131313132"/>
      <point x="456.93939393939394" y="702.1313131313132" type="curve" smooth="yes"/>
      <point x="384.9191919191919" y="702.1313131313132"/>
      <point x="322.8989898989899" y="676.1515151515151"/>
      <point x="272.4949494949495" y="630.3636363636364" type="curve" smooth="yes"/>
      <point x="167.68686868686868" y="535.3838383838383"/>
      <point x="113.51515151515152" y="360.80808080808083"/>
      <point x="113.51515151515152" y="196.59595959595958" type="curve" smooth="yes"/>
      <point x="113.51515151515152" y="48.42424242424242"/>
      <point x="181.21212121212122" y="-10.212121212121213"/>
    </contour>
    <contour>
      <point x="335.42424242424244" y="57.93939393939394" type="curve" smooth="yes"/>
      <point x="231.24242424242425" y="57.93939393939394"/>
      <point x="192.93939393939394" y="97.66666666666667"/>
      <point x="192.93939393939394" y="201.65656565656565" type="curve" smooth="yes"/>
      <point x="192.93939393939394" y="330.26262626262627"/>
      <point x="243.05050505050505" y="516.10101010101"/>
      <point x="342.06060606060606" y="596.2323232323232" type="curve" smooth="yes"/>
      <point x="373.0" y="621.2121212121212"/>
      <point x="409.74747474747477" y="633.9797979797979"/>
      <point x="450.47474747474746" y="633.9797979797979" type="curve" smooth="yes"/>
      <point x="550.0808080808081" y="633.9797979797979"/>
      <point x="591.959595959596" y="590.0808080808081"/>
      <point x="591.959595959596" y="490.26262626262627" type="curve" smooth="yes"/>
      <point x="591.959595959596" y="353.020202020202"/>
      <point x="546.2121212121212" y="177.010101010101"/>
      <point x="450.4141414141414" y="98.4949494949495" type="curve" smooth="yes"/>
      <point x="418.47474747474746" y="72.51515151515152"/>
      <point x="379.5353535353535" y="57.93939393939394"/>
    </contour>
  </outline>
</glyph>
<glyph name="P" format="2">
  <advance width="547.0"/>
  <unicode hex="0050"/>
  <outline>
    <contour>
      <point x="77.51515151515152" y="0.0" type="line"/>
      <point x="154.72727272727272" y="0.0" type="line"/>
      <point x="208.07070707070707" y="231.75757575757575" type="line"/>
      <point x="359.22222222222223" y="231.75757575757575" type="line" smooth="yes"/>
      <point x="532.2626262626262" y="231.75757575757575"/>
      <point x="626.8080808080808" y="354.979797979798"/>
      <point x="626.8080808080808" y="527.929292929293" type="curve" smooth="yes"/>
      <point x="626.8080808080808" y="638.0909090909091"/>
      <point x="576.1313131313132" y="691.9191919191919"/>
      <point x="455.54545454545456" y="691.9191919191919" type="curve" smooth="yes"/>
      <point x="237.49494949494948" y="691.9191919191919" type="line"/>
    </contour>
    <contour>
      <point x="224.15151515151516" y="300.5050505050505" type="line"/>
      <point x="298.62626262626264" y="623.1717171717172" type="line"/>
      <point x="446.73737373737373" y="623.1717171717172" type="line" smooth="yes"/>
      <point x="519.2323232323232" y="623.1717171717172"/>
      <point x="546.7878787878788" y="590.8282828282828"/>
      <point x="546.7878787878788" y="527.1212121212121" type="curve" smooth="yes"/>
      <point x="546.7878787878788" y="402.62626262626264"/>
      <point x="489.82828282828285" y="300.5050505050505"/>
      <point x="371.26262626262627" y="300.5050505050505" type="curve" smooth="yes"/>
    </contour>
  </outline>
</glyph>
<glyph name="Q" format="2">
  <advance width="627.5151515151515"/>
  <unicode hex="0051"/>
  <outline>
    <contour>
      <point x="435.0808080808081" y="-145.06060606060606" type="line"/>
      <point x="508.27272727272725" y="-121.13131313131314" type="line"/>
      <point x="455.44444444444446" y="36.292929292929294" type="line"/>
      <point x="385.8888888888889" y="12.363636363636363" type="line"/>
    </contour>
    <component base="O"/>
  </outline>
</glyph>
<glyph name="R" format="2">
  <advance width="564.3636363636364"/>
  <unicode hex="0052"/>
  <outline>
    <contour>
      <point x="77.51515151515152" y="0.0" type="line"/>
      <point x="154.72727272727272" y="0.0" type="line"/>
      <point x="214.85858585858585" y="258.90909090909093" type="line"/>
      <point x="378.98989898989896" y="258.90909090909093" type="line"/>
      <point x="449.6161616161616" y="0.0" type="line"/>
      <point x="526.8282828282828" y="0.0" type="line"/>
      <point x="451.5656565656566" y="268.969696969697" type="line"/>
      <point x="530.989898989899" y="290.64646464646466"/>
      <point x="628.5959595959596" y="367.32323232323233"/>
      <point x="628.5959595959596" y="524.7373737373738" type="curve" smooth="yes"/>
      <point x="628.5959595959596" y="646.4545454545455"/>
      <point x="567.3434343434343" y="691.9191919191919"/>
      <point x="448.98989898989896" y="691.9191919191919" type="curve" smooth="yes"/>
      <point x="237.49494949494948" y="691.9191919191919" type="line"/>
    </contour>
    <contour>
      <point x="229.93939393939394" y="326.25252525252523" type="line"/>
      <point x="299.030303030303" y="624.5757575757576" type="line"/>
      <point x="440.98989898989896" y="624.5757575757576" type="line" smooth="yes"/>
      <point x="516.4646464646464" y="624.5757575757576"/>
      <point x="548.5757575757576" y="597.7878787878788"/>
      <point x="548.5757575757576" y="522.3131313131313" type="curve" smooth="yes"/>
      <point x="548.5757575757576" y="409.17171717171715"/>
      <point x="482.14141414141415" y="326.25252525252523"/>
      <point x="377.34343434343435" y="326.25252525252523" type="curve" smooth="yes"/>
    </contour>
  </outline>
</glyph>
<glyph name="S" format="2">
  <advance width="499.17171717171715"/>
  <unicode hex="0053"/>
  <outline>
    <contour>
      <point x="256.80808080808083" y="-10.212121212121213" type="curve" smooth="yes"/>
      <point x="407.2323232323232" y="-10.212121212121213"/>
      <point x="504.8686868686869" y="78.53535353535354"/>
      <point x="504.8686868686869" y="228.95959595959596" type="curve" smooth="yes"/>
      <point x="504.8686868686869" y="319.1515151515151"/>
      <point x="465.37373737373736" y="349.5959595959596"/>
      <point x="364.1010101010101" y="386.4848484848485" type="curve" smooth="yes"/>
      <point x="272.5656565656566" y="418.7171717171717"/>
      <point x="240.11111111111111" y="433.1010101010101"/>
      <point x="240.11111111111111" y="489.17171717171715" type="curve" smooth="yes"/>
      <point x="240.11111111111111" y="585.0808080808081"/>
      <point x="302.52525252525254" y="634.7878787878788"/>
      <point x="401.26262626262627" y="634.7878787878788" type="curve" smooth="yes"/>
      <point x="452.26262626262627" y="634.7878787878788"/>
      <point x="531.2828282828283" y="624.7878787878788"/>
      <point x="576.4949494949495" y="616.7878787878788" type="curve"/>
      <point x="590.1717171717172" y="674.2626262626262" type="line"/>
      <point x="549.5555555555555" y="686.0909090909091"/>
      <point x="470.7070707070707" y="702.1313131313132"/>
      <point x="403.8181818181818" y="702.1313131313132" type="curve" smooth="yes"/>
      <point x="257.83838383838383" y="702.1313131313132"/>
      <point x="161.49494949494948" y="620.6262626262626"/>
      <point x="161.49494949494948" y="482.7070707070707" type="curve" smooth="yes"/>
      <point x="161.49494949494948" y="390.9191919191919"/>
      <point x="214.3939393939394" y="359.45454545454544"/>
      <point x="312.73737373737373" y="325.6060606060606" type="curve" smooth="yes"/>
      <point x="401.92929292929296" y="294.54545454545456"/>
      <point x="425.65656565656565" y="278.969696969697"/>
      <point x="425.65656565656565" y="221.8989898989899" type="curve" smooth="yes"/>
      <point x="425.65656565656565" y="117.1010101010101"/>
      <point x="364.37373737373736" y="57.93939393939394"/>
      <point x="259.57575757575756" y="57.93939393939394" type="curve" smooth="yes"/>
      <point x="205.59595959595958" y="57.93939393939394"/>
      <point x="119.61616161616162" y="68.34343434343435"/>
      <point x="69.42424242424242" y="76.15151515151516" type="curve"/>
      <point x="55.95959595959596" y="16.484848484848484" type="line"/>
      <point x="101.15151515151516" y="5.040404040404041"/>
      <point x="187.55555555555554" y="-10.212121212121213"/>
    </contour>
  </outline>
</glyph>
<glyph name="T" format="2">
  <advance width="468.5151515151515"/>
  <unicode hex="0054"/>
  <outline>
    <contour>
      <point x="194.35353535353536" y="0.0" type="line"/>
      <point x="271.5656565656566" y="0.0" type="line"/>
      <point x="415.4646464646465" y="623.7676767676768" type="line"/>
      <point x="601.030303030303" y="623.7676767676768" type="line"/>
      <point x="617.1111111111111" y="691.9191919191919" type="line"/>
      <point x="169.57575757575756" y="691.9191919191919" type="line"/>
      <point x="153.49494949494948" y="623.7676767676768" type="line"/>
      <point x="338.25252525252523" y="623.7676767676768" type="line"/>
    </contour>
  </outline>
</glyph>
<glyph name="U" format="2">
  <advance width="593.8080808080808"/>
  <unicode hex="0055"/>
  <outline>
    <contour>
      <point x="310.5959595959596" y="-10.212121212121213" type="curve" smooth="yes"/>
      <point x="463.44444444444446" y="-10.212121212121213"/>
      <point x="535.6969696969697" y="62.78787878787879"/>
      <point x="569.929292929293" y="210.73737373737373" type="curve" smooth="yes"/>
      <point x="681.0808080808081" y="691.9191919191919" type="line"/>
      <point x="603.8686868686868" y="691.9191919191919" type="line"/>
      <point x="492.7171717171717" y="211.33333333333334" type="line" smooth="yes"/>
      <point x="469.54545454545456" y="110.05050505050505"/>
      <point x="425.6868686868687" y="58.535353535353536"/>
      <point x="316.6363636363636" y="58.535353535353536" type="curve" smooth="yes"/>
      <point x="238.62626262626262" y="58.535353535353536"/>
      <point x="189.34343434343435" y="81.64646464646465"/>
      <point x="189.34343434343435" y="144.14141414141415" type="curve" smooth="yes"/>
      <point x="189.34343434343435" y="166.35353535353536"/>
      <point x="193.39555555555555" y="193.3010101010101"/>
      <point x="198.93939393939394" y="216.6969696969697" type="curve" smooth="yes"/>
      <point x="308.8989898989899" y="691.9191919191919" type="line"/>
      <point x="231.68686868686868" y="691.9191919191919" type="line"/>
      <point x="123.74747474747474" y="225.58585858585857" type="line" smooth="yes"/>
      <point x="117.34343434343434" y="198.35353535353536"/>
      <point x="112.53535353535354" y="160.7171717171717"/>
      <point x="112.53535353535354" y="134.25252525252526" type="curve" smooth="yes"/>
      <point x="112.53535353535354" y="34.80808080808081"/>
      <point x="191.36363636363637" y="-10.212121212121213"/>
    </contour>
  </outline>
</glyph>
<glyph name="V" format="2">
  <advance width="544.8686868686868"/>
  <unicode hex="0056"/>
  <outline>
    <contour>
      <point x="189.37373737373738" y="0.0" type="line"/>
      <point x="348.6868686868687" y="0.0" type="line"/>
      <point x="678.1414141414141" y="691.9191919191919" type="line"/>
      <point x="600.929292929293" y="691.9191919191919" type="line"/>
      <point x="306.27272727272725" y="68.15151515151516" type="line"/>
      <point x="260.75757575757575" y="68.15151515151516" type="line"/>
      <point x="258.5353535353535" y="691.9191919191919" type="line"/>
      <point x="181.32323232323233" y="691.9191919191919" type="line"/>
    </contour>
  </outline>
</glyph>
<glyph name="W" format="2">
  <advance width="829.2424242424242"/>
  <unicode hex="0057"/>
  <outline>
    <contour>
      <point x="159.68686868686868" y="0.0" type="line"/>
      <point x="297.1515151515151" y="0.0" type="line"/>
      <point x="545.2121212121212" y="569.6868686868687" type="line"/>
      <point x="525.9191919191919" y="0.0" type="line"/>
      <point x="659.7676767676768" y="0.0" type="line"/>
      <point x="957.3232323232323" y="691.9191919191919" type="line"/>
      <point x="880.1111111111111" y="691.9191919191919" type="line"/>
      <point x="617.969696969697" y="70.97979797979798" type="line"/>
      <point x="592.6464646464647" y="70.97979797979798" type="line"/>
      <point x="611.3434343434343" y="681.9191919191919" type="line"/>
      <point x="527.2828282828283" y="681.9191919191919" type="line"/>
      <point x="258.37373737373736" y="70.97979797979798" type="line"/>
      <point x="231.85858585858585" y="70.97979797979798" type="line"/>
      <point x="263.72727272727275" y="691.9191919191919" type="line"/>
      <point x="186.5151515151515" y="691.9191919191919" type="line"/>
    </contour>
  </outline>
</glyph>
<glyph name="X" format="2">
  <advance width="513.4444444444445"/>
  <unicode hex="0058"/>
  <outline>
    <contour>
      <point x="12.323232323232324" y="0.0" type="line"/>
      <point x="97.13131313131314" y="0.0" type="line"/>
      <point x="323.93939393939394" y="286.5050505050505" type="line"/>
      <point x="415.2929292929293" y="0.0" type="line"/>
      <point x="495.3333333333333" y="0.0" type="line"/>
      <point x="382.85858585858585" y="343.19191919191917" type="line"/>
      <point x="659.0808080808081" y="691.9191919191919" type="line"/>
      <point x="574.2727272727273" y="691.9191919191919" type="line"/>
      <point x="350.67676767676767" y="404.050505050505" type="line"/>
      <point x="261.74747474747477" y="691.9191919191919" type="line"/>
      <point x="181.3030303030303" y="691.9191919191919" type="line"/>
      <point x="291.5656565656566" y="347.17171717171715" type="line"/>
    </contour>
  </outline>
</glyph>
<glyph name="Y" format="2">
  <advance width="492.67676767676767"/>
  <unicode hex="0059"/>
  <outline>
    <contour>
      <point x="205.85858585858585" y="0.0" type="line"/>
      <point x="279.030303030303" y="0.0" type="line"/>
      <point x="348.22222222222223" y="295.74747474747477" type="line"/>
      <point x="640.7373737373738" y="691.9191919191919" type="line"/>
      <point x="557.9090909090909" y="691.9191919191919" type="line"/>
      <point x="328.7171717171717" y="369.7070707070707" type="line"/>
      <point x="247.93939393939394" y="691.9191919191919" type="line"/>
      <point x="169.91919191919192" y="691.9191919191919" type="line"/>
      <point x="275.64646464646466" y="302.34343434343435" type="line"/>
    </contour>
  </outline>
</glyph>
<glyph name="Z" format="2">
  <advance width="494.7676767676768"/>
  <unicode hex="005A"/>
  <outline>
    <contour>
      <point x="37.78787878787879" y="0.0" type="line"/>
      <point x="454.0" y="0.0" type="line"/>
      <point x="470.0808080808081" y="68.15151515151516" type="line"/>
      <point x="138.35353535353534" y="68.15151515151516" type="line"/>
      <point x="144.35353535353534" y="92.74747474747474" type="line"/>
      <point x="592.1111111111111" y="589.2727272727273" type="line"/>
      <point x="615.7676767676768" y="691.9191919191919" type="line"/>
      <point x="199.55555555555554" y="691.9191919191919" type="line"/>
      <point x="183.4747474747475" y="623.7676767676768" type="line"/>
      <point x="513.5858585858585" y="623.7676767676768" type="line"/>
      <point x="507.3939393939394" y="596.7878787878788" type="line"/>
      <point x="60.44444444444444" y="99.45454545454545" type="line"/>
    </contour>
  </outline>
</glyph>
<glyph name="bracketleft" format="2">
  <advance width="275.7979797979798"/>
  <unicode hex="005B"/>
  <outline>
    <contour>
      <point x="24.333333333333332" y="-122.0" type="line"/>
      <point x="218.15151515151516" y="-122.0" type="line"/>
      <point x="234.82828282828282" y="-56.27272727272727" type="line"/>
      <point x="116.43434343434343" y="-56.27272727272727" type="line"/>
      <point x="289.27272727272725" y="681.2727272727273" type="line"/>
      <point x="407.6666666666667" y="681.2727272727273" type="line"/>
      <point x="423.1515151515151" y="747.0" type="line"/>
      <point x="227.52525252525254" y="747.0" type="line"/>
    </contour>
  </outline>
</glyph>
<glyph name="backslash" format="2">
  <advance width="426.19191919191917"/>
  <unicode hex="005C"/>
  <outline>
    <contour>
      <point x="319.5959595959596" y="0.0" type="line"/>
      <point x="398.4040404040404" y="8.343434343434343" type="line"/>
      <point x="267.5959595959596" y="701.4040404040404" type="line"/>
      <point x="188.3838383838384" y="693.060606060606" type="line"/>
    </contour>
  </outline>
</glyph>
<glyph name="bracketright" format="2">
  <advance width="275.3939393939394"/>
  <unicode hex="005D"/>
  <outline>
    <contour>
      <point x="396.06060606060606" y="747.5959595959596" type="line"/>
      <point x="202.24242424242425" y="747.5959595959596" type="line"/>
      <point x="185.56565656565658" y="681.8686868686868" type="line"/>
      <point x="303.95959595959596" y="681.8686868686868" type="line"/>
      <point x="131.12121212121212" y="-55.676767676767675" type="line"/>
      <point x="12.727272727272727" y="-55.676767676767675" type="line"/>
      <point x="-2.757575757575758" y="-121.4040404040404" type="line"/>
      <point x="192.86868686868686" y="-121.4040404040404" type="line"/>
    </contour>
  </outline>
</glyph>
<glyph name="asciicircum" format="2">
  <advance width="560.0"/>
  <unicode hex="005E"/>
  <outline>
    <contour>
      <point x="115.78787878787878" y="318.95959595959596" type="line"/>
      <point x="196.1919191919192" y="318.95959595959596" type="line"/>
      <point x="336.01010101010104" y="586.0202020202021" type="line"/>
      <point x="479.57575757575756" y="318.95959595959596" type="line"/>
      <point x="559.979797979798" y="318.95959595959596" type="line"/>
      <point x="368.95959595959596" y="660.0" type="line"/>
      <point x="301.44444444444446" y="660.0" type="line"/>
    </contour>
  </outline>
</glyph>
<glyph name="underscore" format="2">
  <advance width="576.3333333333334"/>
  <unicode hex="005F"/>
  <outline>
    <contour>
      <point x="29.383838383838388" y="-152.55555555555554" type="line"/>
      <point x="476.7878787878788" y="-152.55555555555554" type="line"/>
      <point x="494.06060606060606" y="-79.4040404040404" type="line"/>
      <point x="45.464646464646464" y="-79.4040404040404" type="line"/>
    </contour>
  </outline>
</glyph>
<glyph name="grave" format="2">
  <advance width="518.0"/>
  <unicode hex="0060"/>
  <outline>
    <contour>
      <point x="467.6363636363636" y="595.5151515151515" type="line"/>
      <point x="500.98989898989896" y="648.6262626262626" type="line"/>
      <point x="316.34343434343435" y="741.6060606060606" type="line"/>
      <point x="279.75757575757575" y="682.2626262626262" type="line"/>
    </contour>
  </outline>
</glyph>
<glyph name="a" format="2">
  <advance width="500.5858585858586"/>
  <unicode hex="0061"/>
  <outline>
    <contour>
      <point x="217.42424242424244" y="-10.212121212121213" type="curve" smooth="yes"/>
      <point x="280.57575757575756" y="-10.212121212121213"/>
      <point x="351.2828282828283" y="55.878787878787875"/>
      <point x="387.030303030303" y="105.79797979797979" type="curve"/>
      <point x="383.4343434343434" y="90.81818181818181"/>
      <point x="374.45454545454544" y="35.91919191919192"/>
      <point x="368.6666666666667" y="-1.404040404040404" type="curve"/>
      <point x="442.07070707070704" y="1.808080808080808" type="line"/>
      <point x="448.07070707070704" y="42.5959595959596"/>
      <point x="459.6666666666667" y="113.97979797979798"/>
      <point x="470.26262626262627" y="160.17171717171718" type="curve" smooth="yes"/>
      <point x="545.8585858585859" y="484.95959595959596" type="line"/>
      <point x="484.75757575757575" y="495.979797979798"/>
      <point x="387.0" y="510.2121212121212"/>
      <point x="340.55555555555554" y="510.2121212121212" type="curve" smooth="yes"/>
      <point x="171.66666666666666" y="510.2121212121212"/>
      <point x="88.93939393939394" y="294.67676767676767"/>
      <point x="88.93939393939394" y="139.010101010101" type="curve" smooth="yes"/>
      <point x="88.93939393939394" y="47.525252525252526"/>
      <point x="127.93939393939394" y="-10.212121212121213"/>
    </contour>
    <contour>
      <point x="240.1818181818182" y="55.515151515151516" type="curve" smooth="yes"/>
      <point x="184.2828282828283" y="55.515151515151516"/>
      <point x="165.93939393939394" y="85.87878787878788"/>
      <point x="165.93939393939394" y="139.010101010101" type="curve" smooth="yes"/>
      <point x="165.93939393939394" y="263.3838383838384"/>
      <point x="226.010101010101" y="445.0808080808081"/>
      <point x="342.17171717171715" y="445.0808080808081" type="curve" smooth="yes"/>
      <point x="376.6666666666667" y="445.0808080808081"/>
      <point x="429.4141414141414" y="436.4848484848485"/>
      <point x="459.2020202020202" y="430.4848484848485" type="curve"/>
      <point x="401.8787878787879" y="185.63636363636363" type="line"/>
      <point x="359.34343434343435" y="129.75757575757575"/>
      <point x="286.27272727272725" y="55.515151515151516"/>
    </contour>
  </outline>
</glyph>
<glyph name="b" format="2">
  <advance width="499.5858585858586"/>
  <unicode hex="0062"/>
  <outline>
    <contour>
      <point x="271.01010101010104" y="-9.808080808080808" type="curve" smooth="yes"/>
      <point x="450.5050505050505" y="-9.808080808080808"/>
      <point x="525.6464646464647" y="217.11111111111111"/>
      <point x="525.6464646464647" y="357.34343434343435" type="curve" smooth="yes"/>
      <point x="525.6464646464647" y="442.5151515151515"/>
      <point x="499.7979797979798" y="510.2121212121212"/>
      <point x="391.73737373737373" y="510.2121212121212" type="curve" smooth="yes"/>
      <point x="335.22222222222223" y="510.2121212121212"/>
      <point x="272.1111111111111" y="466.90909090909093"/>
      <point x="239.95959595959596" y="434.1818181818182" type="curve"/>
      <point x="305.6868686868687" y="717.8787878787879" type="line"/>
      <point x="230.68686868686868" y="717.8787878787879" type="line"/>
      <point x="68.72727272727273" y="15.444444444444445" type="line"/>
      <point x="120.17171717171718" y="4.424242424242424"/>
      <point x="211.08080808080808" y="-9.808080808080808"/>
    </contour>
    <contour>
      <point x="269.6060606060606" y="55.323232323232325" type="curve" smooth="yes"/>
      <point x="236.8181818181818" y="55.323232323232325"/>
      <point x="185.5151515151515" y="63.111111111111114"/>
      <point x="155.78787878787878" y="68.3030303030303" type="curve"/>
      <point x="222.8989898989899" y="359.32323232323233" type="line"/>
      <point x="259.030303030303" y="396.22222222222223"/>
      <point x="323.90909090909093" y="444.4848484848485"/>
      <point x="369.6161616161616" y="444.4848484848485" type="curve" smooth="yes"/>
      <point x="438.45454545454544" y="444.4848484848485"/>
      <point x="448.24242424242425" y="403.3333333333333"/>
      <point x="448.24242424242425" y="351.6868686868687" type="curve" smooth="yes"/>
      <point x="448.24242424242425" y="277.47474747474746"/>
      <point x="404.5151515151515" y="55.323232323232325"/>
    </contour>
  </outline>
</glyph>
<glyph name="c" format="2">
  <advance width="405.42424242424244"/>
  <unicode hex="0063"/>
  <outline>
    <contour>
      <point x="247.3838383838384" y="-10.212121212121213" type="curve" smooth="yes"/>
      <point x="293.2323232323232" y="-10.212121212121213"/>
      <point x="349.4646464646465" y="2.0"/>
      <point x="379.27272727272725" y="11.212121212121213" type="curve"/>
      <point x="383.7171717171717" y="70.28282828282829" type="line"/>
      <point x="352.14141414141415" y="64.3030303030303"/>
      <point x="300.5656565656566" y="55.72727272727273"/>
      <point x="271.949494949495" y="55.72727272727273" type="curve" smooth="yes"/>
      <point x="197.2828282828283" y="55.72727272727273"/>
      <point x="169.13131313131314" y="91.4949494949495"/>
      <point x="169.13131313131314" y="155.83838383838383" type="curve" smooth="yes"/>
      <point x="169.13131313131314" y="296.32323232323233"/>
      <point x="225.7979797979798" y="444.27272727272725"/>
      <point x="352.4949494949495" y="444.27272727272725" type="curve" smooth="yes"/>
      <point x="383.8989898989899" y="444.27272727272725"/>
      <point x="432.74747474747477" y="437.8686868686869"/>
      <point x="460.979797979798" y="433.06060606060606" type="curve"/>
      <point x="480.0808080808081" y="491.1313131313131" type="line"/>
      <point x="450.8484848484849" y="499.3636363636364"/>
      <point x="396.979797979798" y="510.2121212121212"/>
      <point x="354.9191919191919" y="510.2121212121212" type="curve" smooth="yes"/>
      <point x="176.34343434343435" y="510.2121212121212"/>
      <point x="92.13131313131314" y="333.949494949495"/>
      <point x="92.13131313131314" y="142.33333333333334" type="curve" smooth="yes"/>
      <point x="92.13131313131314" y="44.63636363636363"/>
      <point x="145.42424242424244" y="-10.212121212121213"/>
    </contour>
  </outline>
</glyph>
<glyph name="d" format="2">
  <advance width="499.98989898989896"/>
  <unicode hex="0064"/>
  <outline>
    <contour>
      <point x="215.06060606060606" y="-10.212121212121213" type="curve" smooth="yes"/>
      <point x="279.979797979798" y="-10.212121212121213"/>
      <point x="347.07070707070704" y="46.05050505050505"/>
      <point x="380.01010101010104" y="88.94949494949495" type="curve"/>
      <point x="360.8787878787879" y="0.0" type="line"/>
      <point x="433.6666666666667" y="0.0" type="line"/>
      <point x="599.8383838383838" y="717.8787878787879" type="line"/>
      <point x="524.8383838383838" y="717.8787878787879" type="line"/>
      <point x="472.26262626262627" y="491.7878787878788" type="line"/>
      <point x="440.050505050505" y="499.5959595959596"/>
      <point x="381.47474747474746" y="509.80808080808083"/>
      <point x="338.55555555555554" y="509.80808080808083" type="curve" smooth="yes"/>
      <point x="178.5151515151515" y="509.80808080808083"/>
      <point x="88.93939393939394" y="304.949494949495"/>
      <point x="88.93939393939394" y="136.3939393939394" type="curve" smooth="yes"/>
      <point x="88.93939393939394" y="39.292929292929294"/>
      <point x="132.17171717171718" y="-10.212121212121213"/>
    </contour>
    <contour>
      <point x="238.3939393939394" y="54.91919191919192" type="curve" smooth="yes"/>
      <point x="188.68686868686868" y="54.91919191919192"/>
      <point x="165.93939393939394" y="85.3030303030303"/>
      <point x="165.93939393939394" y="136.7979797979798" type="curve" smooth="yes"/>
      <point x="165.93939393939394" y="261.17171717171715"/>
      <point x="226.6060606060606" y="444.67676767676767"/>
      <point x="338.55555555555554" y="444.67676767676767" type="curve" smooth="yes"/>
      <point x="378.47474747474746" y="444.67676767676767"/>
      <point x="430.4141414141414" y="436.0808080808081"/>
      <point x="458.3939393939394" y="430.0808080808081" type="curve"/>
      <point x="399.07070707070704" y="172.8080808080808" type="line"/>
      <point x="358.32323232323233" y="122.14141414141415"/>
      <point x="287.44444444444446" y="54.91919191919192"/>
    </contour>
  </outline>
</glyph>
<glyph name="e" format="2">
  <advance width="461.6969696969697"/>
  <unicode hex="0065"/>
  <outline>
    <contour>
      <point x="242.25252525252526" y="-10.212121212121213" type="curve" smooth="yes"/>
      <point x="308.0808080808081" y="-10.212121212121213"/>
      <point x="382.90909090909093" y="6.383838383838384"/>
      <point x="421.1212121212121" y="18.97979797979798" type="curve"/>
      <point x="427.1818181818182" y="78.64646464646465" type="line"/>
      <point x="388.16161616161617" y="69.07070707070707"/>
      <point x="315.949494949495" y="56.111111111111114"/>
      <point x="262.37373737373736" y="56.111111111111114" type="curve" smooth="yes"/>
      <point x="205.68686868686868" y="56.111111111111114"/>
      <point x="166.72727272727272" y="87.62626262626263"/>
      <point x="166.72727272727272" y="147.2929292929293" type="curve" smooth="yes"/>
      <point x="166.72727272727272" y="170.02020202020202"/>
      <point x="170.7070707070707" y="203.0909090909091"/>
      <point x="176.87878787878788" y="227.77777777777777" type="curve"/>
      <point x="228.56565656565655" y="227.77777777777777" type="line" smooth="yes"/>
      <point x="415.3939393939394" y="227.77777777777777"/>
      <point x="508.54545454545456" y="264.969696969697"/>
      <point x="508.54545454545456" y="388.22222222222223" type="curve" smooth="yes"/>
      <point x="508.54545454545456" y="474.3636363636364"/>
      <point x="450.0808080808081" y="509.80808080808083"/>
      <point x="360.3636363636364" y="509.80808080808083" type="curve" smooth="yes"/>
      <point x="172.5151515151515" y="509.80808080808083"/>
      <point x="90.53535353535354" y="314.5656565656566"/>
      <point x="90.53535353535354" y="141.9090909090909" type="curve" smooth="yes"/>
      <point x="90.53535353535354" y="39.80808080808081"/>
      <point x="146.32323232323233" y="-10.212121212121213"/>
    </contour>
    <contour>
      <point x="187.11111111111111" y="286.8484848484849" type="line"/>
      <point x="214.83838383838383" y="382.6868686868687"/>
      <point x="266.35353535353534" y="447.1010101010101"/>
      <point x="356.93939393939394" y="447.1010101010101" type="curve" smooth="yes"/>
      <point x="406.22222222222223" y="447.1010101010101"/>
      <point x="433.75757575757575" y="430.73737373737373"/>
      <point x="433.75757575757575" y="386.8181818181818" type="curve" smooth="yes"/>
      <point x="433.75757575757575" y="309.42424242424244"/>
      <point x="372.7676767676768" y="286.8484848484849"/>
      <point x="242.41414141414143" y="286.8484848484849" type="curve" smooth="yes"/>
    </contour>
  </outline>
</glyph>
<glyph name="f" format="2">
  <advance width="309.52525252525254"/>
  <unicode hex="0066"/>
  <outline>
    <contour>
      <point x="32.55555555555556" y="-222.32323232323233" type="line"/>
      <point x="98.72727272727272" y="-222.32323232323233" type="line"/>
      <point x="159.34343434343435" y="0.0" type="line"/>
      <point x="260.6666666666667" y="434.8686868686869" type="line"/>
      <point x="391.8686868686869" y="434.8686868686869" type="line"/>
      <point x="408.54545454545456" y="500.0" type="line"/>
      <point x="274.34343434343435" y="500.0" type="line"/>
      <point x="284.7070707070707" y="541.6464646464647" type="line" smooth="yes"/>
      <point x="304.83838383838383" y="622.5757575757576"/>
      <point x="325.5656565656566" y="662.959595959596"/>
      <point x="378.04040404040404" y="662.959595959596" type="curve" smooth="yes"/>
      <point x="401.82828282828285" y="662.959595959596"/>
      <point x="432.80808080808083" y="658.959595959596"/>
      <point x="449.5959595959596" y="655.959595959596" type="curve"/>
      <point x="464.06060606060606" y="714.030303030303" type="line"/>
      <point x="444.25252525252523" y="719.8585858585859"/>
      <point x="407.82828282828285" y="728.0909090909091"/>
      <point x="379.7878787878788" y="728.0909090909091" type="curve" smooth="yes"/>
      <point x="284.2828282828283" y="728.0909090909091"/>
      <point x="242.3511111111111" y="676.7991919191919"/>
      <point x="209.7070707070707" y="543.2424242424242" type="curve" smooth="yes"/>
      <point x="199.34343434343435" y="500.0" type="line"/>
      <point x="144.42424242424244" y="500.0" type="line"/>
      <point x="128.34343434343435" y="434.06060606060606" type="line"/>
      <point x="185.07070707070707" y="434.06060606060606" type="line"/>
    </contour>
  </outline>
</glyph>
<glyph name="g" format="2">
  <advance width="468.5050505050505"/>
  <unicode hex="0067"/>
  <outline>
    <contour>
      <point x="196.7979797979798" y="-235.36363636363637" type="curve" smooth="yes"/>
      <point x="353.16161616161617" y="-235.36363636363637"/>
      <point x="446.73737373737373" y="-149.0"/>
      <point x="446.73737373737373" y="-49.878787878787875" type="curve" smooth="yes"/>
      <point x="446.73737373737373" y="27.606060606060606"/>
      <point x="396.7676767676768" y="56.58585858585859"/>
      <point x="295.7979797979798" y="68.96969696969697" type="curve" smooth="yes"/>
      <point x="227.2020202020202" y="77.77777777777777"/>
      <point x="203.58585858585857" y="83.96969696969697"/>
      <point x="203.58585858585857" y="106.92929292929293" type="curve" smooth="yes"/>
      <point x="203.58585858585857" y="126.08080808080808"/>
      <point x="220.92929292929293" y="155.3838383838384"/>
      <point x="234.08080808080808" y="172.72727272727272" type="curve"/>
      <point x="242.08080808080808" y="171.32323232323233"/>
      <point x="256.6969696969697" y="169.5151515151515"/>
      <point x="266.949494949495" y="169.5151515151515" type="curve" smooth="yes"/>
      <point x="407.42424242424244" y="169.5151515151515"/>
      <point x="477.73737373737373" y="277.54545454545456"/>
      <point x="477.73737373737373" y="367.22222222222223" type="curve" smooth="yes"/>
      <point x="477.73737373737373" y="398.949494949495"/>
      <point x="470.37373737373736" y="420.3333333333333"/>
      <point x="461.22222222222223" y="435.5050505050505" type="curve"/>
      <point x="550.2121212121212" y="435.5050505050505" type="line"/>
      <point x="565.0808080808081" y="500.0" type="line"/>
      <point x="417.2929292929293" y="494.0" type="line"/>
      <point x="398.2121212121212" y="500.80808080808083"/>
      <point x="359.1111111111111" y="510.2121212121212"/>
      <point x="321.32323232323233" y="510.2121212121212" type="curve" smooth="yes"/>
      <point x="191.74747474747474" y="510.2121212121212"/>
      <point x="119.68686868686869" y="405.35353535353534"/>
      <point x="119.68686868686869" y="308.8484848484849" type="curve" smooth="yes"/>
      <point x="119.68686868686869" y="247.8080808080808"/>
      <point x="144.3030303030303" y="210.23232323232324"/>
      <point x="188.87878787878788" y="189.21212121212122" type="curve"/>
      <point x="165.26262626262627" y="166.6161616161616"/>
      <point x="134.24242424242425" y="124.42424242424242"/>
      <point x="134.24242424242425" y="92.02020202020202" type="curve" smooth="yes"/>
      <point x="134.24242424242425" y="72.1919191919192"/>
      <point x="139.43434343434345" y="58.5959595959596"/>
      <point x="150.07070707070707" y="48.55555555555556" type="curve"/>
      <point x="92.28282828282829" y="18.575757575757574"/>
      <point x="17.939393939393938" y="-28.363636363636363"/>
      <point x="17.939393939393938" y="-104.32323232323232" type="curve" smooth="yes"/>
      <point x="17.939393939393938" y="-187.63636363636363"/>
      <point x="87.46464646464646" y="-235.36363636363637"/>
    </contour>
    <contour>
      <point x="200.35353535353536" y="-171.04040404040404" type="curve" smooth="yes"/>
      <point x="124.01010101010101" y="-171.04040404040404"/>
      <point x="89.28282828282829" y="-134.50505050505052"/>
      <point x="89.28282828282829" y="-87.62626262626263" type="curve" smooth="yes"/>
      <point x="89.28282828282829" y="-42.74747474747475"/>
      <point x="143.94949494949495" y="-0.040404040404040664"/>
      <point x="188.59595959595958" y="22.686868686868685" type="curve"/>
      <point x="202.6161616161616" y="18.090909090909093"/>
      <point x="231.44444444444446" y="11.8989898989899"/>
      <point x="275.979797979798" y="6.494949494949495" type="curve" smooth="yes"/>
      <point x="344.98989898989896" y="-1.6969696969696972"/>
      <point x="373.77777777777777" y="-14.444444444444445"/>
      <point x="373.77777777777777" y="-56.343434343434346" type="curve" smooth="yes"/>
      <point x="373.77777777777777" y="-130.24242424242425"/>
      <point x="290.1111111111111" y="-171.04040404040404"/>
    </contour>
    <contour>
      <point x="274.54545454545456" y="232.62626262626262" type="curve" smooth="yes"/>
      <point x="212.83838383838383" y="232.62626262626262"/>
      <point x="190.83838383838383" y="264.949494949495"/>
      <point x="190.83838383838383" y="312.4646464646465" type="curve" smooth="yes"/>
      <point x="190.83838383838383" y="371.17171717171715"/>
      <point x="235.54545454545453" y="447.1010101010101"/>
      <point x="316.9191919191919" y="447.1010101010101" type="curve" smooth="yes"/>
      <point x="382.2020202020202" y="447.1010101010101"/>
      <point x="406.5858585858586" y="417.75757575757575"/>
      <point x="406.5858585858586" y="363.09090909090907" type="curve" smooth="yes"/>
      <point x="406.5858585858586" y="312.1313131313131"/>
      <point x="366.24242424242425" y="232.62626262626262"/>
    </contour>
  </outline>
</glyph>
<glyph name="h" format="2">
  <advance width="498.6969696969697"/>
  <unicode hex="0068"/>
  <outline>
    <contour>
      <point x="66.32323232323232" y="0.0" type="line"/>
      <point x="141.32323232323233" y="0.0" type="line"/>
      <point x="217.72727272727272" y="331.2323232323232" type="line"/>
      <point x="255.85858585858585" y="379.8787878787879"/>
      <point x="324.1010101010101" y="443.67676767676767"/>
      <point x="371.5353535353535" y="443.67676767676767" type="curve" smooth="yes"/>
      <point x="419.64646464646466" y="443.67676767676767"/>
      <point x="438.949494949495" y="416.1212121212121"/>
      <point x="438.949494949495" y="368.98989898989896" type="curve" smooth="yes"/>
      <point x="438.949494949495" y="334.6666666666667"/>
      <point x="428.14141414141415" y="280.85858585858585"/>
      <point x="420.35353535353534" y="248.7070707070707" type="curve" smooth="yes"/>
      <point x="362.77777777777777" y="0.0" type="line"/>
      <point x="437.1818181818182" y="0.0" type="line"/>
      <point x="495.5656565656566" y="252.15151515151516" type="line" smooth="yes"/>
      <point x="504.35353535353534" y="289.3030303030303"/>
      <point x="515.969696969697" y="342.55555555555554"/>
      <point x="515.969696969697" y="384.1111111111111" type="curve" smooth="yes"/>
      <point x="515.969696969697" y="458.5353535353535"/>
      <point x="477.8181818181818" y="510.2121212121212"/>
      <point x="398.14141414141415" y="510.2121212121212" type="curve" smooth="yes"/>
      <point x="335.83838383838383" y="510.2121212121212"/>
      <point x="269.5353535353535" y="454.16161616161617"/>
      <point x="236.78787878787878" y="412.47474747474746" type="curve"/>
      <point x="307.09090909090907" y="717.8787878787879" type="line"/>
      <point x="232.0909090909091" y="717.8787878787879" type="line"/>
    </contour>
  </outline>
</glyph>
<glyph name="i" format="2">
  <advance width="206.64646464646464"/>
  <unicode hex="0069"/>
  <outline>
    <contour>
      <point x="65.72727272727273" y="0.0" type="line"/>
      <point x="140.72727272727272" y="0.0" type="line"/>
      <point x="256.32323232323233" y="500.0" type="line"/>
      <point x="181.32323232323233" y="500.0" type="line"/>
    </contour>
    <contour>
      <point x="204.24242424242425" y="603.2525252525253" type="line"/>
      <point x="280.64646464646466" y="603.2525252525253" type="line"/>
      <point x="301.5151515151515" y="694.3636363636364" type="line"/>
      <point x="225.5151515151515" y="694.3636363636364" type="line"/>
    </contour>
  </outline>
</glyph>
<glyph name="j" format="2">
  <advance width="206.64646464646464"/>
  <unicode hex="006A"/>
  <outline>
    <contour>
      <point x="-63.161616161616166" y="-235.36363636363637" type="line"/>
      <point x="92.76767676767676" y="-163.72727272727272"/>
      <point x="106.44323232323234" y="-147.55838383838383"/>
      <point x="140.72727272727272" y="0.0" type="curve" smooth="yes"/>
      <point x="256.32323232323233" y="500.0" type="line"/>
      <point x="181.32323232323233" y="500.0" type="line"/>
      <point x="65.72727272727273" y="0.0" type="line" smooth="yes"/>
      <point x="42.18060606060606" y="-102.11838383838383"/>
      <point x="32.21212121212121" y="-113.6969696969697"/>
      <point x="-87.28282828282829" y="-174.25252525252526" type="curve"/>
    </contour>
    <contour>
      <point x="205.22222222222223" y="602.0" type="line"/>
      <point x="281.030303030303" y="602.0" type="line"/>
      <point x="301.3030303030303" y="691.9191919191919" type="line"/>
      <point x="225.8989898989899" y="691.9191919191919" type="line"/>
    </contour>
  </outline>
</glyph>
<glyph name="k" format="2">
  <advance width="445.54545454545456"/>
  <unicode hex="006B"/>
  <outline>
    <contour>
      <point x="66.32323232323232" y="0.0" type="line"/>
      <point x="141.32323232323233" y="0.0" type="line"/>
      <point x="195.66666666666666" y="236.75757575757575" type="line"/>
      <point x="261.8888888888889" y="239.1818181818182" type="line"/>
      <point x="346.24242424242425" y="0.0" type="line"/>
      <point x="424.83838383838383" y="0.0" type="line"/>
      <point x="330.82828282828285" y="267.93939393939394" type="line"/>
      <point x="541.7777777777778" y="499.5959595959596" type="line"/>
      <point x="454.969696969697" y="499.5959595959596" type="line"/>
      <point x="274.3333333333333" y="303.1010101010101" type="line"/>
      <point x="210.53535353535352" y="300.27272727272725" type="line"/>
      <point x="307.09090909090907" y="717.8787878787879" type="line"/>
      <point x="232.0909090909091" y="717.8787878787879" type="line"/>
    </contour>
  </outline>
</glyph>
<glyph name="l" format="2">
  <advance width="214.7979797979798"/>
  <unicode hex="006C"/>
  <outline>
    <contour>
      <point x="69.8989898989899" y="0.0" type="line"/>
      <point x="144.8989898989899" y="0.0" type="line"/>
      <point x="310.6666666666667" y="717.8787878787879" type="line"/>
      <point x="235.66666666666666" y="717.8787878787879" type="line"/>
    </contour>
  </outline>
</glyph>
<glyph name="m" format="2">
  <advance width="774.8080808080808"/>
  <unicode hex="006D"/>
  <outline>
    <contour>
      <point x="65.72727272727273" y="0.0" type="line"/>
      <point x="140.72727272727272" y="0.0" type="line"/>
      <point x="217.72727272727272" y="332.42424242424244" type="line"/>
      <point x="254.85858585858585" y="380.47474747474746"/>
      <point x="322.1010101010101" y="443.67676767676767"/>
      <point x="370.1313131313131" y="443.67676767676767" type="curve" smooth="yes"/>
      <point x="416.050505050505" y="443.67676767676767"/>
      <point x="437.35353535353534" y="416.1212121212121"/>
      <point x="437.35353535353534" y="368.98989898989896" type="curve" smooth="yes"/>
      <point x="437.35353535353534" y="337.050505050505"/>
      <point x="426.54545454545456" y="280.85858585858585"/>
      <point x="418.75757575757575" y="248.7070707070707" type="curve" smooth="yes"/>
      <point x="361.1818181818182" y="0.0" type="line"/>
      <point x="436.1818181818182" y="0.0" type="line"/>
      <point x="494.5656565656566" y="252.15151515151516" type="line" smooth="yes"/>
      <point x="504.14141414141415" y="292.24242424242425"/>
      <point x="510.14141414141415" y="334.050505050505"/>
      <point x="511.35353535353534" y="354.09090909090907" type="curve"/>
      <point x="544.5050505050505" y="392.7979797979798"/>
      <point x="604.5959595959596" y="443.67676767676767"/>
      <point x="649.4747474747475" y="443.67676767676767" type="curve" smooth="yes"/>
      <point x="693.7777777777778" y="443.67676767676767"/>
      <point x="715.6767676767677" y="415.7171717171717"/>
      <point x="715.6767676767677" y="367.37373737373736" type="curve" smooth="yes"/>
      <point x="715.6767676767677" y="333.85858585858585"/>
      <point x="704.8686868686868" y="280.85858585858585"/>
      <point x="697.0808080808081" y="248.7070707070707" type="curve" smooth="yes"/>
      <point x="638.6969696969697" y="0.0" type="line"/>
      <point x="713.6969696969697" y="0.0" type="line"/>
      <point x="772.0808080808081" y="252.15151515151516" type="line" smooth="yes"/>
      <point x="780.2727272727273" y="288.1111111111111"/>
      <point x="791.6767676767677" y="341.55555555555554"/>
      <point x="791.6767676767677" y="384.1111111111111" type="curve" smooth="yes"/>
      <point x="791.6767676767677" y="458.5353535353535"/>
      <point x="754.3333333333334" y="510.2121212121212"/>
      <point x="674.6565656565657" y="510.2121212121212" type="curve" smooth="yes"/>
      <point x="613.8888888888889" y="510.2121212121212"/>
      <point x="543.7171717171717" y="459.4848484848485"/>
      <point x="507.92929292929296" y="421.3333333333333" type="curve"/>
      <point x="504.1010101010101" y="459.4848484848485"/>
      <point x="471.8888888888889" y="510.2121212121212"/>
      <point x="399.16161616161617" y="510.2121212121212" type="curve" smooth="yes"/>
      <point x="334.83838383838383" y="510.2121212121212"/>
      <point x="268.5353535353535" y="454.75757575757575"/>
      <point x="236.3838383838384" y="413.26262626262627" type="curve"/>
      <point x="253.8989898989899" y="500.0" type="line"/>
      <point x="181.32323232323233" y="500.0" type="line"/>
    </contour>
  </outline>
</glyph>
<glyph name="n" format="2">
  <advance width="498.1010101010101"/>
  <unicode hex="006E"/>
  <outline>
    <contour>
      <point x="65.72727272727273" y="0.0" type="line"/>
      <point x="140.72727272727272" y="0.0" type="line"/>
      <point x="217.72727272727272" y="332.42424242424244" type="line"/>
      <point x="254.85858585858585" y="380.47474747474746"/>
      <point x="322.5050505050505" y="443.67676767676767"/>
      <point x="370.5353535353535" y="443.67676767676767" type="curve" smooth="yes"/>
      <point x="418.85858585858585" y="443.67676767676767"/>
      <point x="438.35353535353534" y="416.1212121212121"/>
      <point x="438.35353535353534" y="368.98989898989896" type="curve" smooth="yes"/>
      <point x="438.35353535353534" y="334.6666666666667"/>
      <point x="427.54545454545456" y="280.85858585858585"/>
      <point x="419.75757575757575" y="248.7070707070707" type="curve" smooth="yes"/>
      <point x="362.1818181818182" y="0.0" type="line"/>
      <point x="436.5858585858586" y="0.0" type="line"/>
      <point x="495.5656565656566" y="253.93939393939394" type="line" smooth="yes"/>
      <point x="503.70262626262627" y="289.9115151515152"/>
      <point x="515.3737373737374" y="343.3636363636364"/>
      <point x="515.3737373737374" y="384.1111111111111" type="curve" smooth="yes"/>
      <point x="515.3737373737374" y="458.5353535353535"/>
      <point x="477.22222222222223" y="510.2121212121212"/>
      <point x="397.54545454545456" y="510.2121212121212" type="curve" smooth="yes"/>
      <point x="335.24242424242425" y="510.2121212121212"/>
      <point x="268.5353535353535" y="454.35353535353534"/>
      <point x="235.97979797979798" y="412.85858585858585" type="curve"/>
      <point x="253.8989898989899" y="500.0" type="line"/>
      <point x="181.32323232323233" y="500.0" type="line"/>
    </contour>
  </outline>
</glyph>
<glyph name="o" format="2">
  <advance width="494.2121212121212"/>
  <unicode hex="006F"/>
  <outline>
    <contour>
      <point x="262.1010101010101" y="-10.212121212121213" type="curve" smooth="yes"/>
      <point x="421.16161616161617" y="-10.212121212121213"/>
      <point x="516.2929292929293" y="157.27272727272728"/>
      <point x="516.2929292929293" y="339.8787878787879" type="curve" smooth="yes"/>
      <point x="516.2929292929293" y="454.80808080808083"/>
      <point x="455.2121212121212" y="509.80808080808083"/>
      <point x="342.5353535353535" y="509.80808080808083" type="curve" smooth="yes"/>
      <point x="193.26262626262627" y="509.80808080808083"/>
      <point x="91.32323232323232" y="339.93939393939394"/>
      <point x="91.32323232323232" y="154.35353535353536" type="curve" smooth="yes"/>
      <point x="91.32323232323232" y="39.42424242424242"/>
      <point x="151.21212121212122" y="-10.212121212121213"/>
    </contour>
    <contour>
      <point x="262.1010101010101" y="54.91919191919192" type="curve" smooth="yes"/>
      <point x="198.05050505050505" y="54.91919191919192"/>
      <point x="166.5151515151515" y="90.26262626262627"/>
      <point x="166.5151515151515" y="153.54545454545453" type="curve" smooth="yes"/>
      <point x="166.5151515151515" y="302.83838383838383"/>
      <point x="236.14141414141415" y="444.67676767676767"/>
      <point x="342.5353535353535" y="444.67676767676767" type="curve" smooth="yes"/>
      <point x="409.5656565656566" y="444.67676767676767"/>
      <point x="441.1010101010101" y="402.77777777777777"/>
      <point x="441.1010101010101" y="340.6868686868687" type="curve" smooth="yes"/>
      <point x="441.1010101010101" y="191.3939393939394"/>
      <point x="371.47474747474746" y="54.91919191919192"/>
    </contour>
  </outline>
</glyph>
<glyph name="p" format="2">
  <advance width="498.98989898989896"/>
  <unicode hex="0070"/>
  <outline>
    <contour>
      <point x="14.747474747474747" y="-221.91919191919192" type="line"/>
      <point x="88.93939393939394" y="-221.91919191919192" type="line"/>
      <point x="142.32323232323233" y="8.808080808080808" type="line"/>
      <point x="174.32323232323233" y="1.0"/>
      <point x="232.8989898989899" y="-9.808080808080808"/>
      <point x="276.4343434343434" y="-9.808080808080808" type="curve" smooth="yes"/>
      <point x="438.26262626262627" y="-9.808080808080808"/>
      <point x="526.0505050505051" y="199.22222222222223"/>
      <point x="526.0505050505051" y="362.85858585858585" type="curve" smooth="yes"/>
      <point x="526.0505050505051" y="454.4949494949495"/>
      <point x="486.22222222222223" y="510.2121212121212"/>
      <point x="395.949494949495" y="510.2121212121212" type="curve" smooth="yes"/>
      <point x="335.4343434343434" y="510.2121212121212"/>
      <point x="268.72727272727275" y="453.949494949495"/>
      <point x="234.97979797979798" y="411.050505050505" type="curve"/>
      <point x="254.5151515151515" y="500.0" type="line"/>
      <point x="181.32323232323233" y="500.0" type="line"/>
    </contour>
    <contour>
      <point x="276.4343434343434" y="55.323232323232325" type="curve" smooth="yes"/>
      <point x="236.5151515151515" y="55.323232323232325"/>
      <point x="184.57575757575756" y="63.91919191919192"/>
      <point x="156.59595959595958" y="70.51515151515152" type="curve"/>
      <point x="215.91919191919192" y="327.19191919191917" type="line"/>
      <point x="256.6666666666667" y="377.85858585858585"/>
      <point x="328.14141414141415" y="444.4848484848485"/>
      <point x="374.80808080808083" y="444.4848484848485" type="curve" smooth="yes"/>
      <point x="426.8989898989899" y="444.4848484848485"/>
      <point x="449.050505050505" y="414.6969696969697"/>
      <point x="449.050505050505" y="359.62626262626264" type="curve" smooth="yes"/>
      <point x="449.050505050505" y="242.40404040404042"/>
      <point x="389.57575757575756" y="55.323232323232325"/>
    </contour>
  </outline>
</glyph>
<glyph name="q" format="2">
  <advance width="497.98989898989896"/>
  <unicode hex="0071"/>
  <outline>
    <contour>
      <point x="308.8787878787879" y="-215.95959595959596" type="line"/>
      <point x="383.2828282828283" y="-215.95959595959596" type="line"/>
      <point x="544.8585858585859" y="484.55555555555554" type="line"/>
      <point x="488.75757575757575" y="495.57575757575756"/>
      <point x="392.80808080808083" y="509.80808080808083"/>
      <point x="337.95959595959596" y="509.80808080808083" type="curve" smooth="yes"/>
      <point x="177.74747474747474" y="509.80808080808083"/>
      <point x="88.34343434343434" y="302.4141414141414"/>
      <point x="88.34343434343434" y="136.96969696969697" type="curve" smooth="yes"/>
      <point x="88.34343434343434" y="45.06060606060606"/>
      <point x="130.78787878787878" y="-10.212121212121213"/>
      <point x="217.44444444444446" y="-10.212121212121213" type="curve" smooth="yes"/>
      <point x="280.57575757575756" y="-10.212121212121213"/>
      <point x="346.47474747474746" y="46.45454545454545"/>
      <point x="378.8181818181818" y="88.75757575757575" type="curve"/>
    </contour>
    <contour>
      <point x="240.1818181818182" y="55.515151515151516" type="curve" smooth="yes"/>
      <point x="186.8989898989899" y="55.515151515151516"/>
      <point x="165.34343434343435" y="86.4949494949495"/>
      <point x="165.34343434343435" y="139.77777777777777" type="curve" smooth="yes"/>
      <point x="165.34343434343435" y="265.5959595959596"/>
      <point x="228.8181818181818" y="444.67676767676767"/>
      <point x="337.55555555555554" y="444.67676767676767" type="curve" smooth="yes"/>
      <point x="378.6666666666667" y="444.67676767676767"/>
      <point x="430.4141414141414" y="436.0808080808081"/>
      <point x="457.7979797979798" y="430.0808080808081" type="curve"/>
      <point x="398.47474747474746" y="172.21212121212122" type="line"/>
      <point x="357.72727272727275" y="122.14141414141415"/>
      <point x="286.8484848484849" y="55.515151515151516"/>
    </contour>
  </outline>
</glyph>
<glyph name="r" format="2">
  <advance width="316.1212121212121"/>
  <unicode hex="0072"/>
  <outline>
    <contour>
      <point x="65.72727272727273" y="0.0" type="line"/>
      <point x="141.32323232323233" y="0.0" type="line"/>
      <point x="224.45454545454544" y="359.1010101010101" type="line"/>
      <point x="272.2020202020202" y="384.25252525252523"/>
      <point x="352.1010101010101" y="421.7878787878788"/>
      <point x="398.82828282828285" y="433.3838383838384" type="curve"/>
      <point x="419.35353535353534" y="510.80808080808083" type="line"/>
      <point x="354.8181818181818" y="497.8484848484849"/>
      <point x="278.2828282828283" y="454.6363636363636"/>
      <point x="238.5151515151515" y="425.6161616161616" type="curve"/>
      <point x="255.91919191919192" y="500.0" type="line"/>
      <point x="181.91919191919192" y="500.0" type="line"/>
    </contour>
  </outline>
</glyph>
<glyph name="s" format="2">
  <advance width="429.020202020202"/>
  <unicode hex="0073"/>
  <outline>
    <contour>
      <point x="209.46464646464648" y="-10.212121212121213" type="curve" smooth="yes"/>
      <point x="330.52525252525254" y="-10.212121212121213"/>
      <point x="426.7171717171717" y="49.19191919191919"/>
      <point x="426.7171717171717" y="172.04040404040404" type="curve" smooth="yes"/>
      <point x="426.7171717171717" y="245.46464646464648"/>
      <point x="378.7280808080808" y="262.7111111111111"/>
      <point x="290.14141414141415" y="285.5050505050505" type="curve" smooth="yes"/>
      <point x="217.67757575757577" y="303.73131313131313"/>
      <point x="198.2828282828283" y="314.67676767676767"/>
      <point x="198.2828282828283" y="348.0" type="curve" smooth="yes"/>
      <point x="198.2828282828283" y="399.4343434343434"/>
      <point x="241.33333333333334" y="444.67676767676767"/>
      <point x="310.93939393939394" y="444.67676767676767" type="curve" smooth="yes"/>
      <point x="357.93939393939394" y="444.67676767676767"/>
      <point x="429.57575757575756" y="436.8686868686869"/>
      <point x="470.0" y="430.4646464646465" type="curve"/>
      <point x="485.06060606060606" y="488.93939393939394" type="line"/>
      <point x="448.2929292929293" y="497.7676767676768"/>
      <point x="378.4848484848485" y="509.80808080808083"/>
      <point x="319.95959595959596" y="509.80808080808083" type="curve" smooth="yes"/>
      <point x="207.78787878787878" y="509.80808080808083"/>
      <point x="122.68686868686869" y="437.6363636363636"/>
      <point x="122.68686868686869" y="330.2828282828283" type="curve" smooth="yes"/>
      <point x="122.68686868686869" y="263.050505050505"/>
      <point x="170.73737373737373" y="241.6412121212121"/>
      <point x="254.53535353535352" y="221.1818181818182" type="curve" smooth="yes"/>
      <point x="322.76767676767673" y="205.04525252525252"/>
      <point x="349.90909090909093" y="196.41414141414143"/>
      <point x="349.90909090909093" y="156.95959595959596" type="curve" smooth="yes"/>
      <point x="349.90909090909093" y="88.43434343434343"/>
      <point x="294.3636363636364" y="54.91919191919192"/>
      <point x="218.50505050505052" y="54.91919191919192" type="curve" smooth="yes"/>
      <point x="173.67676767676767" y="54.91919191919192"/>
      <point x="104.84848484848484" y="64.32323232323233"/>
      <point x="65.04040404040404" y="71.72727272727272" type="curve"/>
      <point x="50.76767676767677" y="13.06060606060606" type="line"/>
      <point x="85.55555555555556" y="2.8282828282828283"/>
      <point x="152.76767676767676" y="-10.212121212121213"/>
    </contour>
  </outline>
</glyph>
<glyph name="t" format="2">
  <advance width="318.27272727272725"/>
  <unicode hex="0074"/>
  <outline>
    <contour>
      <point x="215.57575757575756" y="-10.212121212121213" type="curve" smooth="yes"/>
      <point x="248.44444444444446" y="-10.212121212121213"/>
      <point x="290.27272727272725" y="-1.9797979797979797"/>
      <point x="312.67676767676767" y="3.8484848484848486" type="curve"/>
      <point x="318.3131313131313" y="61.111111111111114" type="line"/>
      <point x="296.14141414141415" y="58.515151515151516"/>
      <point x="259.77777777777777" y="54.91919191919192"/>
      <point x="240.77777777777777" y="54.91919191919192" type="curve" smooth="yes"/>
      <point x="205.47474747474746" y="54.91919191919192"/>
      <point x="190.91919191919192" y="72.85858585858585"/>
      <point x="190.91919191919192" y="101.39393939393939" type="curve" smooth="yes"/>
      <point x="190.91919191919192" y="123.14141414141415"/>
      <point x="196.7070707070707" y="156.4848484848485"/>
      <point x="203.0909090909091" y="183.6161616161616" type="curve" smooth="yes"/>
      <point x="261.6060606060606" y="434.8686868686869" type="line"/>
      <point x="400.7676767676768" y="434.8686868686869" type="line"/>
      <point x="416.8484848484849" y="500.0" type="line"/>
      <point x="277.2828282828283" y="500.0" type="line"/>
      <point x="312.83838383838383" y="648.2626262626262" type="line"/>
      <point x="237.83838383838383" y="648.2626262626262" type="line"/>
      <point x="202.87878787878788" y="500.0" type="line"/>
      <point x="138.17171717171718" y="500.0" type="line"/>
      <point x="121.28282828282829" y="434.8686868686869" type="line"/>
      <point x="186.6060606060606" y="434.8686868686869" type="line"/>
      <point x="128.8989898989899" y="188.46464646464648" type="line" smooth="yes"/>
      <point x="120.8989898989899" y="156.06060606060606"/>
      <point x="112.70707070707071" y="117.46464646464646"/>
      <point x="112.70707070707071" y="84.67676767676768" type="curve" smooth="yes"/>
      <point x="112.70707070707071" y="25.676767676767675"/>
      <point x="150.11111111111111" y="-10.212121212121213"/>
    </contour>
  </outline>
</glyph>
<glyph name="u" format="2">
  <advance width="498.1010101010101"/>
  <unicode hex="0075"/>
  <outline>
    <contour>
      <point x="215.55555555555554" y="-10.212121212121213" type="curve" smooth="yes"/>
      <point x="277.85858585858585" y="-10.212121212121213"/>
      <point x="344.5656565656566" y="45.64646464646465"/>
      <point x="377.1212121212121" y="87.14141414141415" type="curve"/>
      <point x="359.2020202020202" y="0.0" type="line"/>
      <point x="431.77777777777777" y="0.0" type="line"/>
      <point x="547.3737373737374" y="500.0" type="line"/>
      <point x="472.37373737373736" y="500.0" type="line"/>
      <point x="395.37373737373736" y="167.57575757575756" type="line"/>
      <point x="358.24242424242425" y="119.52525252525253"/>
      <point x="290.5959595959596" y="56.323232323232325"/>
      <point x="242.56565656565655" y="56.323232323232325" type="curve" smooth="yes"/>
      <point x="196.64646464646464" y="56.323232323232325"/>
      <point x="174.74747474747474" y="83.87878787878788"/>
      <point x="174.74747474747474" y="131.010101010101" type="curve" smooth="yes"/>
      <point x="174.74747474747474" y="165.33333333333334"/>
      <point x="185.55555555555554" y="219.14141414141415"/>
      <point x="193.34343434343435" y="251.2929292929293" type="curve" smooth="yes"/>
      <point x="250.91919191919192" y="500.0" type="line"/>
      <point x="176.5151515151515" y="500.0" type="line"/>
      <point x="117.53535353535354" y="246.06060606060606" type="line" smooth="yes"/>
      <point x="109.34343434343434" y="210.50505050505052"/>
      <point x="97.72727272727273" y="156.63636363636363"/>
      <point x="97.72727272727273" y="115.88888888888889" type="curve" smooth="yes"/>
      <point x="97.72727272727273" y="41.464646464646464"/>
      <point x="136.4747474747475" y="-10.212121212121213"/>
    </contour>
  </outline>
</glyph>
<glyph name="v" format="2">
  <advance width="454.06060606060606"/>
  <unicode hex="0076"/>
  <outline>
    <contour>
      <point x="151.7979797979798" y="0.0" type="line"/>
      <point x="292.6666666666667" y="0.0" type="line"/>
      <point x="546.1414141414141" y="500.0" type="line"/>
      <point x="468.949494949495" y="500.0" type="line"/>
      <point x="252.06060606060606" y="63.91919191919192" type="line"/>
      <point x="220.94949494949495" y="63.91919191919192" type="line"/>
      <point x="212.8989898989899" y="500.0" type="line"/>
      <point x="138.5151515151515" y="500.0" type="line"/>
    </contour>
  </outline>
</glyph>
<glyph name="w" format="2">
  <advance width="731.010101010101"/>
  <unicode hex="0077"/>
  <outline>
    <contour>
      <point x="136.3939393939394" y="0.0" type="line"/>
      <point x="267.7878787878788" y="0.0" type="line"/>
      <point x="453.979797979798" y="392.0505050505051" type="line"/>
      <point x="456.4343434343434" y="0.0" type="line"/>
      <point x="590.6363636363636" y="0.0" type="line"/>
      <point x="817.2828282828283" y="500.0" type="line"/>
      <point x="740.6868686868687" y="500.0" type="line"/>
      <point x="545.2020202020202" y="65.13131313131314" type="line"/>
      <point x="525.7777777777778" y="65.13131313131314" type="line"/>
      <point x="521.939393939394" y="490.0" type="line"/>
      <point x="433.7070707070707" y="490.0" type="line"/>
      <point x="228.8181818181818" y="65.13131313131314" type="line"/>
      <point x="209.989898989899" y="65.13131313131314" type="line"/>
      <point x="219.34343434343435" y="500.0" type="line"/>
      <point x="143.93939393939394" y="500.0" type="line"/>
    </contour>
  </outline>
</glyph>
<glyph name="x" format="2">
  <advance width="418.67676767676767"/>
  <unicode hex="0078"/>
  <outline>
    <contour>
      <point x="18.515151515151516" y="0.0" type="line"/>
      <point x="100.3030303030303" y="0.0" type="line"/>
      <point x="253.55555555555554" y="192.2929292929293" type="line"/>
      <point x="318.77777777777777" y="0.0" type="line"/>
      <point x="396.969696969697" y="0.0" type="line"/>
      <point x="308.62626262626264" y="244.17171717171718" type="line"/>
      <point x="516.9494949494949" y="500.0" type="line"/>
      <point x="436.37373737373736" y="500.0" type="line"/>
      <point x="281.1212121212121" y="302.8989898989899" type="line"/>
      <point x="214.11111111111111" y="500.0" type="line"/>
      <point x="136.5151515151515" y="500.0" type="line"/>
      <point x="224.64646464646464" y="250.0" type="line"/>
    </contour>
  </outline>
</glyph>
<glyph name="y" format="2">
  <advance width="454.4646464646465"/>
  <unicode hex="0079"/>
  <outline>
    <contour>
      <point x="104.97979797979798" y="-220.72727272727272" type="line"/>
      <point x="181.36363636363637" y="-220.72727272727272" type="line"/>
      <point x="546.1414141414141" y="500.0" type="line"/>
      <point x="468.949494949495" y="500.0" type="line"/>
      <point x="250.84848484848484" y="63.91919191919192" type="line"/>
      <point x="220.94949494949495" y="63.91919191919192" type="line"/>
      <point x="212.8989898989899" y="500.0" type="line"/>
      <point x="138.5151515151515" y="500.0" type="line"/>
      <point x="151.7979797979798" y="0.0" type="line"/>
      <point x="219.8989898989899" y="0.0" type="line"/>
    </contour>
  </outline>
</glyph>
<glyph name="z" format="2">
  <advance width="417.57575757575756"/>
  <unicode hex="007A"/>
  <outline>
    <contour>
      <point x="38.17171717171717" y="0.0" type="line"/>
      <point x="379.5959595959596" y="0.0" type="line"/>
      <point x="395.4848484848485" y="65.13131313131314" type="line"/>
      <point x="140.9090909090909" y="65.13131313131314" type="line"/>
      <point x="481.1111111111111" y="436.0808080808081" type="line"/>
      <point x="495.4040404040404" y="500.0" type="line"/>
      <point x="153.97979797979798" y="500.0" type="line"/>
      <point x="137.49494949494948" y="434.8686868686869" type="line"/>
      <point x="389.85858585858585" y="434.8686868686869" type="line"/>
      <point x="50.06060606060606" y="64.32323232323233" type="line"/>
    </contour>
  </outline>
</glyph>
<glyph name="braceleft" format="2">
  <advance width="312.4343434343434"/>
  <unicode hex="007B"/>
  <outline>
    <contour>
      <point x="252.36363636363637" y="-127.04040404040404" type="curve"/>
      <point x="270.8484848484849" y="-59.121212121212125" type="line"/>
      <point x="210.7979797979798" y="-59.121212121212125"/>
      <point x="182.45454545454544" y="-35.75757575757576"/>
      <point x="182.45454545454544" y="9.737373737373737" type="curve" smooth="yes"/>
      <point x="182.45454545454544" y="60.63636363636363"/>
      <point x="230.43434343434342" y="181.59595959595958"/>
      <point x="230.43434343434342" y="221.97979797979798" type="curve" smooth="yes" name="hr00"/>
      <point x="230.43434343434342" y="272.3636363636364"/>
      <point x="204.47474747474746" y="295.3636363636364"/>
      <point x="167.64646464646464" y="311.80808080808083" type="curve"/>
      <point x="238.03030303030303" y="335.2121212121212"/>
      <point x="269.4343434343434" y="366.2121212121212"/>
      <point x="288.4343434343434" y="450.17171717171715" type="curve" smooth="yes"/>
      <point x="293.45454545454544" y="474.2929292929293"/>
      <point x="305.030303030303" y="541.3232323232323"/>
      <point x="310.64646464646466" y="569.6161616161617" type="curve" smooth="yes"/>
      <point x="326.01010101010104" y="640.2020202020202"/>
      <point x="359.52525252525254" y="680.1212121212121"/>
      <point x="447.9191919191919" y="685.1212121212121" type="curve"/>
      <point x="460.3838383838384" y="753.040404040404" type="line"/>
      <point x="338.7070707070707" y="748.040404040404"/>
      <point x="279.85858585858585" y="705.0808080808081"/>
      <point x="246.45454545454547" y="598.8282828282828" type="curve" smooth="yes"/>
      <point x="236.26262626262627" y="558.1515151515151"/>
      <point x="222.45454545454547" y="477.979797979798"/>
      <point x="218.05050505050505" y="459.3838383838384" type="curve" smooth="yes"/>
      <point x="204.66666666666666" y="397.1212121212121"/>
      <point x="187.5151515151515" y="368.5656565656566"/>
      <point x="97.13131313131314" y="344.37373737373736" type="curve"/>
      <point x="82.66666666666667" y="285.1313131313131" type="line"/>
      <point x="133.07070707070707" y="266.47474747474746"/>
      <point x="155.03030303030303" y="244.43434343434345"/>
      <point x="155.03030303030303" y="203.7070707070707" type="curve" smooth="yes"/>
      <point x="155.03030303030303" y="166.0909090909091"/>
      <point x="108.26262626262627" y="42.535353535353536"/>
      <point x="108.26262626262627" y="-11.575757575757576" type="curve" smooth="yes"/>
      <point x="108.26262626262627" y="-85.61616161616162"/>
      <point x="157.55555555555554" y="-124.65656565656566"/>
    </contour>
  </outline>
</glyph>
<glyph name="bar" format="2">
  <advance width="311.75757575757575"/>
  <unicode hex="007C"/>
  <outline>
    <contour>
      <point x="175.4747474747475" y="-221.91919191919192" type="line"/>
      <point x="250.47474747474746" y="-221.91919191919192" type="line"/>
      <point x="250.47474747474746" y="717.8787878787879" type="line"/>
      <point x="175.4747474747475" y="717.8787878787879" type="line"/>
    </contour>
  </outline>
</glyph>
<glyph name="braceright" format="2">
  <advance width="312.030303030303"/>
  <unicode hex="007D"/>
  <outline>
    <contour>
      <point x="203.66666666666666" y="750.040404040404" type="curve"/>
      <point x="185.1818181818182" y="682.1212121212121" type="line"/>
      <point x="245.23232323232324" y="682.1212121212121"/>
      <point x="273.57575757575756" y="658.7575757575758"/>
      <point x="273.57575757575756" y="613.2626262626262" type="curve" smooth="yes"/>
      <point x="273.57575757575756" y="562.3636363636364"/>
      <point x="225.59595959595958" y="441.4040404040404"/>
      <point x="225.59595959595958" y="401.020202020202" type="curve" smooth="yes"/>
      <point x="225.59595959595958" y="350.6363636363636"/>
      <point x="251.55555555555554" y="327.6363636363636"/>
      <point x="288.3838383838384" y="311.19191919191917" type="curve"/>
      <point x="218.0" y="287.7878787878788"/>
      <point x="186.59595959595958" y="256.7878787878788"/>
      <point x="167.59595959595958" y="172.82828282828282" type="curve" smooth="yes"/>
      <point x="162.57575757575756" y="148.7070707070707"/>
      <point x="151.0" y="81.67676767676768"/>
      <point x="145.3838383838384" y="53.38383838383838" type="curve" smooth="yes"/>
      <point x="130.02020202020202" y="-17.2020202020202"/>
      <point x="96.5050505050505" y="-57.121212121212125"/>
      <point x="8.11111111111111" y="-62.121212121212125" type="curve"/>
      <point x="-4.353535353535353" y="-130.04040404040404" type="line"/>
      <point x="117.32323232323232" y="-125.04040404040404"/>
      <point x="176.17171717171718" y="-82.08080808080808"/>
      <point x="209.57575757575756" y="24.171717171717173" type="curve" smooth="yes"/>
      <point x="219.76767676767676" y="64.84848484848484"/>
      <point x="233.57575757575756" y="145.02020202020202"/>
      <point x="237.97979797979798" y="163.6161616161616" type="curve" smooth="yes"/>
      <point x="251.36363636363637" y="225.87878787878788"/>
      <point x="268.5151515151515" y="254.43434343434345"/>
      <point x="358.8989898989899" y="278.62626262626264" type="curve"/>
      <point x="373.3636363636364" y="337.8686868686869" type="line"/>
      <point x="322.95959595959596" y="356.52525252525254"/>
      <point x="301.0" y="378.5656565656566"/>
      <point x="301.0" y="419.2929292929293" type="curve" smooth="yes"/>
      <point x="301.0" y="456.90909090909093"/>
      <point x="347.7676767676768" y="580.4646464646464"/>
      <point x="347.7676767676768" y="634.5757575757576" type="curve" smooth="yes"/>
      <point x="347.7676767676768" y="708.6161616161617"/>
      <point x="298.47474747474746" y="747.6565656565657"/>
    </contour>
  </outline>
</glyph>
<glyph name="asciitilde" format="2">
  <advance width="560.0"/>
  <unicode hex="007E"/>
  <outline>
    <contour>
      <point x="441.80808080808083" y="195.03030303030303" type="curve" smooth="yes"/>
      <point x="481.6363636363636" y="195.03030303030303"/>
      <point x="528.8282828282828" y="225.22222222222223"/>
      <point x="554.2121212121212" y="248.41414141414143" type="curve"/>
      <point x="544.4242424242424" y="310.1212121212121" type="line" name="hr00"/>
      <point x="516.8282828282828" y="290.54545454545456"/>
      <point x="469.2323232323232" y="263.77777777777777"/>
      <point x="442.42424242424244" y="263.77777777777777" type="curve" smooth="yes"/>
      <point x="398.0" y="263.77777777777777"/>
      <point x="297.0" y="325.06060606060606"/>
      <point x="243.0" y="325.06060606060606" type="curve" smooth="yes"/>
      <point x="203.76767676767676" y="325.06060606060606"/>
      <point x="153.55555555555554" y="294.4646464646465"/>
      <point x="126.55555555555556" y="271.8686868686869" type="curve"/>
      <point x="137.15151515151516" y="209.56565656565658" type="line"/>
      <point x="164.34343434343435" y="229.54545454545456"/>
      <point x="212.34343434343435" y="256.3131313131313"/>
      <point x="241.97979797979798" y="256.3131313131313" type="curve" smooth="yes"/>
      <point x="282.3636363636364" y="256.3131313131313"/>
      <point x="387.80808080808083" y="195.03030303030303"/>
    </contour>
  </outline>
</glyph>
<glyph name="exclamdown" format="2">
  <advance width="177.68686868686868"/>
  <unicode hex="00A1"/>
  <outline>
    <contour>
      <point x="187.2929292929293" y="270.01010101010104" type="line"/>
      <point x="119.6969696969697" y="270.01010101010104" type="line"/>
      <point x="4.121212121212121" y="-200.0" type="line"/>
      <point x="81.56565656565657" y="-200.0" type="line"/>
    </contour>
    <contour>
      <point x="240.16161616161617" y="500.0" type="line"/>
      <point x="163.75757575757575" y="500.0" type="line"/>
      <point x="138.2929292929293" y="388.7171717171717" type="line"/>
      <point x="214.6969696969697" y="388.7171717171717" type="line"/>
    </contour>
  </outline>
</glyph>
<glyph name="cent" format="2">
  <advance width="560.0"/>
  <unicode hex="00A2"/>
  <outline>
    <contour>
      <point x="256.95959595959596" y="-79.95959595959596" type="line" name="hr00"/>
      <point x="320.050505050505" y="-79.95959595959596" type="line"/>
      <point x="348.030303030303" y="40.17171717171717" type="line"/>
      <point x="377.22222222222223" y="40.38383838383838"/>
      <point x="420.14141414141415" y="44.97979797979798"/>
      <point x="445.0808080808081" y="47.97979797979798" type="curve"/>
      <point x="458.92929292929296" y="113.4949494949495" type="line"/>
      <point x="423.75757575757575" y="110.8989898989899"/>
      <point x="365.6060606060606" y="107.11111111111111"/>
      <point x="335.4343434343434" y="107.11111111111111" type="curve" smooth="yes"/>
      <point x="223.59595959595958" y="107.11111111111111"/>
      <point x="221.11111111111111" y="166.31313131313132"/>
      <point x="241.2828282828283" y="248.21212121212122" type="curve" smooth="yes"/>
      <point x="264.050505050505" y="339.6666666666667"/>
      <point x="313.3333333333333" y="393.0808080808081"/>
      <point x="401.67676767676767" y="393.0808080808081" type="curve" smooth="yes"/>
      <point x="427.67676767676767" y="393.0808080808081"/>
      <point x="484.2323232323232" y="388.6969696969697"/>
      <point x="519.4040404040404" y="385.90909090909093" type="curve"/>
      <point x="539.10101010101" y="452.020202020202" type="line"/>
      <point x="530.4646464646464" y="453.82828282828285"/>
      <point x="470.47474747474746" y="460.2121212121212"/>
      <point x="447.050505050505" y="462.020202020202" type="curve"/>
      <point x="476.030303030303" y="581.9191919191919" type="line"/>
      <point x="412.72727272727275" y="581.9191919191919" type="line"/>
      <point x="384.95959595959596" y="462.6363636363636" type="line"/>
      <point x="281.34343434343435" y="458.6161616161616"/>
      <point x="202.5151515151515" y="388.020202020202"/>
      <point x="166.91919191919192" y="248.21212121212122" type="curve" smooth="yes"/>
      <point x="141.13131313131314" y="145.42424242424244"/>
      <point x="152.1919191919192" y="39.38383838383838"/>
      <point x="284.1313131313131" y="36.15151515151515" type="curve"/>
    </contour>
  </outline>
</glyph>
<glyph name="sterling" format="2">
  <advance width="560.0"/>
  <unicode hex="00A3"/>
  <outline>
    <contour>
      <point x="79.76767676767676" y="0.0" type="line"/>
      <point x="401.8888888888889" y="0.0" type="line"/>
      <point x="480.06060606060606" y="17.595959595959595" type="line"/>
      <point x="481.27272727272725" y="82.53535353535354" type="line"/>
      <point x="405.52525252525254" y="65.72727272727272" type="line"/>
      <point x="267.6363636363636" y="65.72727272727272" type="line"/>
      <point x="333.1313131313131" y="355.22222222222223" type="line"/>
      <point x="526.6767676767677" y="355.22222222222223" type="line"/>
      <point x="542.3535353535353" y="420.949494949495" type="line"/>
      <point x="348.4040404040404" y="420.949494949495" type="line"/>
      <point x="358.7676767676768" y="463.5959595959596" type="line" smooth="yes"/>
      <point x="380.32323232323233" y="551.6060606060606"/>
      <point x="394.8989898989899" y="611.6565656565657"/>
      <point x="472.1212121212121" y="611.6565656565657" type="curve" smooth="yes"/>
      <point x="507.67676767676767" y="611.6565656565657"/>
      <point x="560.6363636363636" y="606.6565656565657"/>
      <point x="590.6161616161617" y="603.6565656565657" type="curve"/>
      <point x="607.3131313131313" y="662.3434343434343" type="line"/>
      <point x="572.6767676767677" y="669.7676767676768"/>
      <point x="512.040404040404" y="679.0"/>
      <point x="473.25252525252523" y="679.0" type="curve" smooth="yes"/>
      <point x="351.4848484848485" y="679.0"/>
      <point x="315.4040404040404" y="605.1212121212121"/>
      <point x="283.57575757575756" y="472.44444444444446" type="curve" smooth="yes"/>
      <point x="271.5959595959596" y="420.949494949495" type="line"/>
      <point x="196.76767676767676" y="420.949494949495" type="line"/>
      <point x="181.0909090909091" y="355.22222222222223" type="line"/>
      <point x="256.32323232323233" y="355.22222222222223" type="line"/>
      <point x="190.63636363636363" y="65.72727272727272" type="line"/>
      <point x="95.04040404040404" y="65.72727272727272" type="line"/>
    </contour>
  </outline>
</glyph>
<glyph name="currency" format="2">
  <advance width="560.0"/>
  <unicode hex="00A4"/>
  <outline>
    <contour>
      <point x="210.13131313131314" y="124.32323232323232" type="curve" smooth="yes"/>
      <point x="280.57575757575756" y="53.686868686868685"/>
      <point x="395.04040404040404" y="53.686868686868685"/>
      <point x="465.4848484848485" y="124.32323232323232" type="curve" smooth="yes"/>
      <point x="536.1212121212121" y="194.76767676767676"/>
      <point x="536.1212121212121" y="309.2323232323232"/>
      <point x="465.4848484848485" y="379.67676767676767" type="curve" smooth="yes"/>
      <point x="395.04040404040404" y="450.3131313131313"/>
      <point x="280.57575757575756" y="450.3131313131313"/>
      <point x="210.13131313131314" y="379.67676767676767" type="curve" smooth="yes"/>
      <point x="139.49494949494948" y="309.2323232323232"/>
      <point x="139.49494949494948" y="194.76767676767676"/>
    </contour>
    <contour>
      <point x="168.4848484848485" y="30.01010101010101" type="line"/>
      <point x="268.54545454545456" y="130.66666666666666" type="line"/>
      <point x="216.4747474747475" y="182.73737373737373" type="line"/>
      <point x="115.81818181818181" y="82.67676767676768" type="line"/>
    </contour>
    <contour>
      <point x="259.77777777777777" y="173.96969696969697" type="curve" smooth="yes"/>
      <point x="217.66666666666666" y="216.67676767676767"/>
      <point x="217.66666666666666" y="287.32323232323233"/>
      <point x="259.77777777777777" y="330.030303030303" type="curve" smooth="yes"/>
      <point x="302.4848484848485" y="372.14141414141415"/>
      <point x="373.1313131313131" y="372.14141414141415"/>
      <point x="415.83838383838383" y="330.030303030303" type="curve" smooth="yes"/>
      <point x="457.949494949495" y="287.32323232323233"/>
      <point x="457.949494949495" y="216.67676767676767"/>
      <point x="415.83838383838383" y="173.96969696969697" type="curve" smooth="yes"/>
      <point x="373.1313131313131" y="131.85858585858585"/>
      <point x="302.4848484848485" y="131.85858585858585"/>
    </contour>
    <contour>
      <point x="216.4747474747475" y="321.26262626262627" type="line"/>
      <point x="268.54545454545456" y="373.3333333333333" type="line"/>
      <point x="168.4848484848485" y="473.98989898989896" type="line"/>
      <point x="115.81818181818181" y="421.32323232323233" type="line"/>
    </contour>
    <contour>
      <point x="507.1313131313131" y="30.01010101010101" type="line"/>
      <point x="559.7979797979798" y="82.67676767676768" type="line"/>
      <point x="459.14141414141415" y="182.73737373737373" type="line"/>
      <point x="407.07070707070704" y="130.66666666666666" type="line"/>
    </contour>
    <contour>
      <point x="459.14141414141415" y="321.26262626262627" type="line"/>
      <point x="559.7979797979798" y="421.32323232323233" type="line"/>
      <point x="507.1313131313131" y="473.98989898989896" type="line"/>
      <point x="407.07070707070704" y="373.3333333333333" type="line"/>
    </contour>
  </outline>
</glyph>
<glyph name="yen" format="2">
  <advance width="560.0"/>
  <unicode hex="00A5"/>
  <outline>
    <contour>
      <point x="242.83838383838383" y="0.0" type="line"/>
      <point x="319.050505050505" y="0.0" type="line"/>
      <point x="356.3939393939394" y="159.56565656565658" type="line"/>
      <point x="526.1919191919192" y="159.56565656565658" type="line"/>
      <point x="541.8686868686868" y="226.9090909090909" type="line"/>
      <point x="372.07070707070704" y="226.9090909090909" type="line"/>
      <point x="387.6060606060606" y="293.01010101010104" type="line"/>
      <point x="401.37373737373736" y="309.37373737373736" type="line"/>
      <point x="560.7878787878788" y="309.37373737373736" type="line"/>
      <point x="576.2727272727273" y="376.7171717171717" type="line"/>
      <point x="454.020202020202" y="376.7171717171717" type="line"/>
      <point x="693.0505050505051" y="660.5959595959596" type="line"/>
      <point x="593.7171717171717" y="660.5959595959596" type="line"/>
      <point x="363.27272727272725" y="381.9191919191919" type="line"/>
      <point x="250.37373737373738" y="660.5959595959596" type="line"/>
      <point x="167.52525252525254" y="660.5959595959596" type="line"/>
      <point x="281.4848484848485" y="376.7171717171717" type="line"/>
      <point x="156.65656565656565" y="376.7171717171717" type="line"/>
      <point x="141.3838383838384" y="309.37373737373736" type="line"/>
      <point x="306.6060606060606" y="309.37373737373736" type="line"/>
      <point x="310.7979797979798" y="294.2020202020202" type="line"/>
      <point x="295.07070707070704" y="226.9090909090909" type="line"/>
      <point x="122.06060606060606" y="226.9090909090909" type="line"/>
      <point x="105.97979797979798" y="159.56565656565658" type="line"/>
      <point x="279.98989898989896" y="159.56565656565658" type="line"/>
    </contour>
  </outline>
</glyph>
<glyph name="brokenbar" format="2">
  <advance width="317.7171717171717"/>
  <unicode hex="00A6"/>
  <outline>
    <contour>
      <point x="178.45454545454547" y="343.4949494949495" type="line"/>
      <point x="253.45454545454544" y="343.4949494949495" type="line"/>
      <point x="253.45454545454544" y="717.8787878787879" type="line"/>
      <point x="178.45454545454547" y="717.8787878787879" type="line"/>
    </contour>
    <contour>
      <point x="178.45454545454547" y="-221.91919191919192" type="line"/>
      <point x="253.45454545454544" y="-221.91919191919192" type="line"/>
      <point x="253.45454545454544" y="155.6969696969697" type="line"/>
      <point x="178.45454545454547" y="155.6969696969697" type="line"/>
    </contour>
  </outline>
</glyph>
<glyph name="section" format="2">
  <advance width="470.3131313131313"/>
  <unicode hex="00A7"/>
  <outline>
    <contour>
      <point x="194.93939393939394" y="-148.66666666666666" type="curve" smooth="yes"/>
      <point x="383.62626262626264" y="-148.66666666666666"/>
      <point x="421.14141414141415" y="5.858585858585858"/>
      <point x="421.14141414141415" y="60.303030303030305" type="curve" smooth="yes"/>
      <point x="421.14141414141415" y="82.07070707070707"/>
      <point x="419.73737373737373" y="97.47474747474747"/>
      <point x="404.14141414141415" y="118.4949494949495" type="curve"/>
      <point x="436.75757575757575" y="158.49494949494948"/>
      <point x="482.7979797979798" y="225.24242424242425"/>
      <point x="482.7979797979798" y="283.2828282828283" type="curve" smooth="yes"/>
      <point x="482.7979797979798" y="328.050505050505"/>
      <point x="457.26262626262627" y="375.55555555555554"/>
      <point x="357.85858585858585" y="394.7878787878788" type="curve" smooth="yes"/>
      <point x="288.3636363636364" y="407.7878787878788"/>
      <point x="246.64646464646464" y="416.3838383838384"/>
      <point x="246.64646464646464" y="467.5151515151515" type="curve" smooth="yes"/>
      <point x="246.64646464646464" y="534.5252525252525"/>
      <point x="292.98989898989896" y="580.5757575757576"/>
      <point x="384.04040404040404" y="580.5757575757576" type="curve" smooth="yes"/>
      <point x="416.6363636363636" y="580.5757575757576"/>
      <point x="485.25252525252523" y="572.7676767676768"/>
      <point x="528.4646464646464" y="566.3636363636364" type="curve"/>
      <point x="546.5454545454545" y="632.6666666666666" type="line"/>
      <point x="508.3333333333333" y="640.2828282828283"/>
      <point x="440.90909090909093" y="650.1111111111111"/>
      <point x="396.4848484848485" y="650.1111111111111" type="curve" smooth="yes"/>
      <point x="245.13131313131314" y="650.1111111111111"/>
      <point x="170.0909090909091" y="543.7575757575758"/>
      <point x="170.0909090909091" y="455.4141414141414" type="curve" smooth="yes"/>
      <point x="170.0909090909091" y="423.8989898989899"/>
      <point x="174.26262626262627" y="398.5656565656566"/>
      <point x="190.0909090909091" y="379.969696969697" type="curve"/>
      <point x="155.0909090909091" y="350.3939393939394"/>
      <point x="102.43434343434343" y="289.83838383838383"/>
      <point x="102.43434343434343" y="220.14141414141415" type="curve" smooth="yes"/>
      <point x="102.43434343434343" y="163.12121212121212"/>
      <point x="133.43434343434345" y="124.52525252525253"/>
      <point x="231.35353535353536" y="105.27272727272728" type="curve" smooth="yes"/>
      <point x="323.949494949495" y="85.8080808080808"/>
      <point x="344.969696969697" y="77.48484848484848"/>
      <point x="344.969696969697" y="35.6969696969697" type="curve" smooth="yes"/>
      <point x="344.969696969697" y="-15.606060606060606"/>
      <point x="296.01010101010104" y="-79.72727272727273"/>
      <point x="206.97979797979798" y="-79.72727272727273" type="curve" smooth="yes"/>
      <point x="169.97979797979798" y="-79.72727272727273"/>
      <point x="98.78787878787878" y="-71.72727272727273"/>
      <point x="55.19191919191919" y="-65.72727272727273" type="curve"/>
      <point x="33.282828282828284" y="-132.03030303030303" type="line"/>
      <point x="77.0909090909091" y="-139.24242424242425"/>
      <point x="150.5151515151515" y="-148.66666666666666"/>
    </contour>
    <contour>
      <point x="354.2828282828283" y="148.6161616161616" type="curve"/>
      <point x="331.8989898989899" y="160.59595959595958"/>
      <point x="303.32323232323233" y="168.0"/>
      <point x="266.95959595959596" y="176.42424242424244" type="curve" smooth="yes"/>
      <point x="201.62626262626262" y="188.21212121212122"/>
      <point x="179.83838383838383" y="205.13131313131314"/>
      <point x="179.83838383838383" y="241.62626262626262" type="curve" smooth="yes"/>
      <point x="179.83838383838383" y="278.5656565656566"/>
      <point x="212.77777777777777" y="329.52525252525254"/>
      <point x="234.6969696969697" y="351.65656565656565" type="curve"/>
      <point x="242.88888888888889" y="345.27272727272725"/>
      <point x="280.04040404040404" y="335.4848484848485"/>
      <point x="314.7676767676768" y="328.8888888888889" type="curve" smooth="yes"/>
      <point x="381.4141414141414" y="316.2929292929293"/>
      <point x="405.77777777777777" y="298.14141414141415"/>
      <point x="405.77777777777777" y="265.7979797979798" type="curve" smooth="yes"/>
      <point x="405.77777777777777" y="230.85858585858585"/>
      <point x="376.030303030303" y="175.72727272727272"/>
    </contour>
  </outline>
</glyph>
<glyph name="dieresis" format="2">
  <advance width="679.0808080808081"/>
  <unicode hex="00A8"/>
  <outline>
    <contour>
      <point x="424.4949494949495" y="620.070707070707" type="line"/>
      <point x="485.030303030303" y="620.070707070707" type="line"/>
      <point x="506.8989898989899" y="713.3535353535353" type="line"/>
      <point x="444.7676767676768" y="713.3535353535353" type="line"/>
    </contour>
    <contour>
      <point x="241.8181818181818" y="620.070707070707" type="line"/>
      <point x="303.54545454545456" y="620.070707070707" type="line"/>
      <point x="325.4141414141414" y="713.3535353535353" type="line"/>
      <point x="263.2828282828283" y="713.3535353535353" type="line"/>
    </contour>
  </outline>
</glyph>
<glyph name="copyright" format="2">
  <advance width="643.979797979798"/>
  <unicode hex="00A9"/>
  <outline>
    <contour>
      <point x="421.3838383838384" y="161.32323232323233" type="curve" smooth="yes"/>
      <point x="577.6767676767677" y="161.32323232323233"/>
      <point x="685.8686868686868" y="281.34343434343435"/>
      <point x="685.8686868686868" y="434.0" type="curve" smooth="yes"/>
      <point x="685.8686868686868" y="583.8282828282828"/>
      <point x="577.6767676767677" y="707.2727272727273"/>
      <point x="422.19191919191917" y="707.2727272727273" type="curve" smooth="yes"/>
      <point x="269.93939393939394" y="707.2727272727273"/>
      <point x="158.7070707070707" y="587.8686868686868"/>
      <point x="158.7070707070707" y="434.0" type="curve" smooth="yes"/>
      <point x="158.7070707070707" y="281.74747474747477"/>
      <point x="270.34343434343435" y="161.32323232323233"/>
    </contour>
    <contour>
      <point x="425.42424242424244" y="276.1515151515151" type="curve" smooth="yes"/>
      <point x="455.6969696969697" y="276.1515151515151"/>
      <point x="487.8888888888889" y="283.17171717171715"/>
      <point x="503.4646464646465" y="288.19191919191917" type="curve"/>
      <point x="500.04040404040404" y="340.3939393939394" type="line"/>
      <point x="482.65656565656565" y="337.7979797979798"/>
      <point x="450.67676767676767" y="333.6060606060606"/>
      <point x="429.4646464646465" y="333.6060606060606" type="curve" smooth="yes"/>
      <point x="381.22222222222223" y="333.6060606060606"/>
      <point x="369.4343434343434" y="368.7171717171717"/>
      <point x="369.4343434343434" y="435.42424242424244" type="curve" smooth="yes"/>
      <point x="369.4343434343434" y="501.1111111111111"/>
      <point x="377.24242424242425" y="533.989898989899"/>
      <point x="429.4646464646465" y="533.989898989899" type="curve" smooth="yes"/>
      <point x="452.4646464646465" y="533.989898989899"/>
      <point x="483.25252525252523" y="530.3939393939394"/>
      <point x="500.04040404040404" y="527.3939393939394" type="curve"/>
      <point x="503.4646464646465" y="581.2121212121212" type="line"/>
      <point x="488.8686868686869" y="585.4242424242424"/>
      <point x="457.8686868686869" y="591.4444444444445"/>
      <point x="427.04040404040404" y="591.4444444444445" type="curve" smooth="yes"/>
      <point x="336.2323232323232" y="591.4444444444445"/>
      <point x="308.74747474747477" y="538.9494949494949"/>
      <point x="308.74747474747477" y="435.42424242424244" type="curve" smooth="yes"/>
      <point x="308.74747474747477" y="326.24242424242425"/>
      <point x="337.42424242424244" y="276.1515151515151"/>
    </contour>
    <contour>
      <point x="421.3838383838384" y="204.63636363636363" type="curve" smooth="yes"/>
      <point x="295.2121212121212" y="204.63636363636363"/>
      <point x="202.82828282828282" y="307.82828282828285"/>
      <point x="202.82828282828282" y="434.0" type="curve" smooth="yes"/>
      <point x="202.82828282828282" y="560.1717171717172"/>
      <point x="295.6161616161616" y="663.959595959596"/>
      <point x="421.7878787878788" y="663.959595959596" type="curve" smooth="yes"/>
      <point x="547.959595959596" y="663.959595959596"/>
      <point x="641.7474747474747" y="560.1717171717172"/>
      <point x="641.7474747474747" y="434.0" type="curve" smooth="yes"/>
      <point x="641.7474747474747" y="307.42424242424244"/>
      <point x="548.7676767676768" y="204.63636363636363"/>
    </contour>
  </outline>
</glyph>
<glyph name="ordfeminine" format="2">
  <advance width="343.8989898989899"/>
  <unicode hex="00AA"/>
  <outline>
    <contour>
      <point x="394.8686868686869" y="356.5050505050505" type="curve"/>
      <point x="404.8686868686869" y="406.5151515151515" type="line"/>
      <point x="393.6969696969697" y="408.7070707070707"/>
      <point x="383.92929292929296" y="412.2828282828283"/>
      <point x="379.3333333333333" y="421.64646464646466" type="curve"/>
      <point x="413.35353535353534" y="557.070707070707" type="line" smooth="yes"/>
      <point x="430.37373737373736" y="629.7676767676768"/>
      <point x="397.8686868686869" y="659.5959595959596"/>
      <point x="322.4949494949495" y="659.5959595959596" type="curve" smooth="yes"/>
      <point x="287.2020202020202" y="659.5959595959596"/>
      <point x="238.41414141414143" y="653.7878787878788"/>
      <point x="199.33333333333334" y="645.1313131313132" type="curve"/>
      <point x="197.7171717171717" y="596.1414141414141" type="line"/>
      <point x="232.56565656565658" y="599.1414141414141"/>
      <point x="287.83838383838383" y="603.3333333333334"/>
      <point x="315.64646464646466" y="603.3333333333334" type="curve" smooth="yes"/>
      <point x="348.5858585858586" y="604.1414141414141"/>
      <point x="357.3939393939394" y="597.5858585858585"/>
      <point x="350.62626262626264" y="566.7272727272727" type="curve" smooth="yes"/>
      <point x="314.5858585858586" y="409.5656565656566" type="line"/>
      <point x="315.1010101010101" y="373.8686868686869"/>
      <point x="343.8787878787879" y="360.67676767676767"/>
    </contour>
    <contour>
      <point x="207.87878787878788" y="357.5050505050505" type="curve" smooth="yes"/>
      <point x="249.26262626262627" y="357.5050505050505"/>
      <point x="300.7979797979798" y="371.3131313131313"/>
      <point x="336.24242424242425" y="391.4141414141414" type="curve"/>
      <point x="357.3131313131313" y="444.04040404040404" type="line"/>
      <point x="295.5858585858586" y="424.5353535353535"/>
      <point x="261.7878787878788" y="410.93939393939394"/>
      <point x="225.04040404040404" y="410.93939393939394" type="curve" smooth="yes"/>
      <point x="205.46464646464648" y="410.93939393939394"/>
      <point x="197.88888888888889" y="421.6868686868687"/>
      <point x="202.86868686868686" y="444.2020202020202" type="curve" smooth="yes"/>
      <point x="209.06060606060606" y="473.16161616161617"/>
      <point x="227.27272727272728" y="487.16161616161617"/>
      <point x="256.6161616161616" y="489.16161616161617" type="curve" smooth="yes"/>
      <point x="353.3636363636364" y="496.16161616161617" type="line"/>
      <point x="362.80808080808083" y="541.9191919191919" type="line"/>
      <point x="252.15151515151516" y="535.7272727272727" type="line" smooth="yes"/>
      <point x="187.010101010101" y="532.3232323232323"/>
      <point x="152.94949494949495" y="507.7070707070707"/>
      <point x="141.14141414141415" y="455.45454545454544" type="curve" smooth="yes"/>
      <point x="127.92929292929293" y="397.37373737373736"/>
      <point x="154.16161616161617" y="357.5050505050505"/>
    </contour>
  </outline>
</glyph>
<glyph name="logicalnot" format="2">
  <advance width="560.0"/>
  <unicode hex="00AC"/>
  <outline>
    <contour>
      <point x="480.8484848484849" y="117.11111111111111" type="line"/>
      <point x="550.7878787878788" y="117.11111111111111" type="line"/>
      <point x="550.7878787878788" y="342.5050505050505" type="line"/>
      <point x="123.13131313131314" y="342.5050505050505" type="line"/>
      <point x="123.13131313131314" y="273.75757575757575" type="line"/>
      <point x="480.8484848484849" y="273.75757575757575" type="line"/>
    </contour>
  </outline>
</glyph>
<glyph name="registered" format="2">
  <advance width="643.979797979798"/>
  <unicode hex="00AE"/>
  <outline>
    <contour>
      <point x="421.7878787878788" y="161.32323232323233" type="curve" smooth="yes"/>
      <point x="577.6767676767677" y="161.32323232323233"/>
      <point x="685.8686868686868" y="281.34343434343435"/>
      <point x="685.8686868686868" y="434.0" type="curve" smooth="yes"/>
      <point x="685.8686868686868" y="583.8282828282828"/>
      <point x="577.6767676767677" y="707.2727272727273"/>
      <point x="421.7878787878788" y="707.2727272727273" type="curve" smooth="yes"/>
      <point x="269.93939393939394" y="707.2727272727273"/>
      <point x="158.7070707070707" y="587.8686868686868"/>
      <point x="158.7070707070707" y="434.0" type="curve" smooth="yes"/>
      <point x="158.7070707070707" y="281.74747474747477"/>
      <point x="270.34343434343435" y="161.32323232323233"/>
    </contour>
    <contour>
      <point x="421.7878787878788" y="204.63636363636363" type="curve" smooth="yes"/>
      <point x="296.82828282828285" y="204.63636363636363"/>
      <point x="202.82828282828282" y="307.82828282828285"/>
      <point x="202.82828282828282" y="434.0" type="curve" smooth="yes"/>
      <point x="202.82828282828282" y="560.1717171717172"/>
      <point x="296.020202020202" y="663.959595959596"/>
      <point x="421.7878787878788" y="663.959595959596" type="curve" smooth="yes"/>
      <point x="547.959595959596" y="663.959595959596"/>
      <point x="641.7474747474747" y="560.1717171717172"/>
      <point x="641.7474747474747" y="434.0" type="curve" smooth="yes"/>
      <point x="641.7474747474747" y="307.42424242424244"/>
      <point x="548.7676767676768" y="204.63636363636363"/>
    </contour>
    <contour>
      <point x="312.5151515151515" y="281.95959595959596" type="line"/>
      <point x="370.37373737373736" y="281.95959595959596" type="line"/>
      <point x="370.37373737373736" y="388.6666666666667" type="line"/>
      <point x="430.3636363636364" y="388.6666666666667" type="line"/>
      <point x="479.22222222222223" y="281.95959595959596" type="line"/>
      <point x="541.0808080808081" y="281.95959595959596" type="line"/>
      <point x="485.77777777777777" y="397.32323232323233" type="line"/>
      <point x="523.7171717171717" y="413.57575757575756"/>
      <point x="536.2929292929293" y="440.55555555555554"/>
      <point x="536.2929292929293" y="489.57575757575756" type="curve" smooth="yes"/>
      <point x="536.2929292929293" y="560.8080808080808"/>
      <point x="494.44444444444446" y="585.040404040404"/>
      <point x="422.8888888888889" y="585.040404040404" type="curve" smooth="yes"/>
      <point x="312.5151515151515" y="585.040404040404" type="line"/>
    </contour>
    <contour>
      <point x="369.969696969697" y="435.82828282828285" type="line"/>
      <point x="369.969696969697" y="537.4747474747475" type="line"/>
      <point x="417.82828282828285" y="537.4747474747475" type="line" smooth="yes"/>
      <point x="459.7070707070707" y="537.4747474747475"/>
      <point x="479.64646464646466" y="523.2626262626262"/>
      <point x="479.64646464646466" y="486.74747474747477" type="curve" smooth="yes"/>
      <point x="479.64646464646466" y="450.6363636363636"/>
      <point x="464.07070707070704" y="435.82828282828285"/>
      <point x="428.95959595959596" y="435.82828282828285" type="curve" smooth="yes"/>
    </contour>
  </outline>
</glyph>
<glyph name="macron" format="2">
  <advance width="439.35353535353534"/>
  <unicode hex="00AF"/>
  <outline>
    <contour>
      <point x="228.91919191919192" y="638.9191919191919" type="line"/>
      <point x="503.54545454545456" y="638.9191919191919" type="line"/>
      <point x="518.2222222222222" y="698.4545454545455" type="line"/>
      <point x="242.59595959595958" y="698.4545454545455" type="line"/>
    </contour>
  </outline>
</glyph>
<glyph name="degree" format="2">
  <advance width="560.0"/>
  <unicode hex="00B0"/>
  <outline>
    <contour>
      <point x="408.57575757575756" y="419.8181818181818" type="curve" smooth="yes"/>
      <point x="492.80808080808083" y="419.8181818181818"/>
      <point x="550.2323232323232" y="476.24242424242425"/>
      <point x="550.2323232323232" y="560.4747474747475" type="curve" smooth="yes"/>
      <point x="550.2323232323232" y="644.7070707070707"/>
      <point x="492.80808080808083" y="702.1313131313132"/>
      <point x="408.57575757575756" y="702.1313131313132" type="curve" smooth="yes"/>
      <point x="324.34343434343435" y="702.1313131313132"/>
      <point x="266.9191919191919" y="644.7070707070707"/>
      <point x="266.9191919191919" y="560.4747474747475" type="curve" smooth="yes"/>
      <point x="266.9191919191919" y="476.24242424242425"/>
      <point x="324.34343434343435" y="419.8181818181818"/>
    </contour>
    <contour>
      <point x="408.57575757575756" y="468.3838383838384" type="curve" smooth="yes"/>
      <point x="353.44444444444446" y="468.3838383838384"/>
      <point x="317.4848484848485" y="505.34343434343435"/>
      <point x="317.4848484848485" y="560.4747474747475" type="curve" smooth="yes"/>
      <point x="317.4848484848485" y="615.6060606060606"/>
      <point x="353.44444444444446" y="653.5656565656566"/>
      <point x="408.57575757575756" y="653.5656565656566" type="curve" smooth="yes"/>
      <point x="463.7070707070707" y="653.5656565656566"/>
      <point x="501.6666666666667" y="615.6060606060606"/>
      <point x="501.6666666666667" y="560.4747474747475" type="curve" smooth="yes"/>
      <point x="501.6666666666667" y="505.34343434343435"/>
      <point x="463.7070707070707" y="468.3838383838384"/>
    </contour>
  </outline>
</glyph>
<glyph name="plusminus" format="2">
  <advance width="560.0"/>
  <unicode hex="00B1"/>
  <outline>
    <contour>
      <point x="291.24242424242425" y="166.42424242424244" type="line"/>
      <point x="361.1818181818182" y="166.42424242424244" type="line"/>
      <point x="361.1818181818182" y="292.64646464646466" type="line"/>
      <point x="551.8484848484849" y="292.64646464646466" type="line"/>
      <point x="551.8484848484849" y="361.3939393939394" type="line"/>
      <point x="361.1818181818182" y="361.3939393939394" type="line"/>
      <point x="361.1818181818182" y="487.27272727272725" type="line"/>
      <point x="291.24242424242425" y="487.27272727272725" type="line"/>
      <point x="291.24242424242425" y="361.3939393939394" type="line"/>
      <point x="102.57575757575758" y="361.3939393939394" type="line"/>
      <point x="102.57575757575758" y="292.64646464646466" type="line"/>
      <point x="291.24242424242425" y="292.64646464646466" type="line"/>
    </contour>
    <contour>
      <point x="102.57575757575758" y="37.474747474747474" type="line"/>
      <point x="551.8484848484849" y="37.474747474747474" type="line"/>
      <point x="551.8484848484849" y="106.22222222222223" type="line"/>
      <point x="102.57575757575758" y="106.22222222222223" type="line"/>
    </contour>
  </outline>
</glyph>
<glyph name="twosuperior" format="2">
  <advance width="280.0"/>
  <unicode hex="00B2"/>
  <outline>
    <contour>
      <point x="141.34343434343435" y="478.0" type="line"/>
      <point x="350.8888888888889" y="478.0" type="line"/>
      <point x="364.949494949495" y="536.6464646464647" type="line"/>
      <point x="238.76767676767676" y="536.6464646464647" type="line"/>
      <point x="314.16161616161617" y="596.2323232323232" type="line" smooth="yes"/>
      <point x="363.35353535353534" y="632.3838383838383"/>
      <point x="392.410101010101" y="662.5789898989899"/>
      <point x="404.1010101010101" y="708.7474747474747" type="curve" smooth="yes"/>
      <point x="419.6222222222222" y="771.4278787878787"/>
      <point x="396.3333333333333" y="799.8080808080808"/>
      <point x="327.04040404040404" y="799.8080808080808" type="curve" smooth="yes"/>
      <point x="295.2323232323232" y="799.8080808080808"/>
      <point x="247.97979797979798" y="793.6161616161617"/>
      <point x="220.74747474747474" y="788.4242424242424" type="curve"/>
      <point x="208.68686868686868" y="728.7575757575758" type="line"/>
      <point x="233.2828282828283" y="732.9494949494949"/>
      <point x="274.26262626262627" y="738.3333333333334"/>
      <point x="295.62626262626264" y="738.3333333333334" type="curve" smooth="yes"/>
      <point x="324.7979797979798" y="738.3333333333334"/>
      <point x="342.3955555555556" y="728.7668686868686"/>
      <point x="335.77777777777777" y="702.4747474747475" type="curve" smooth="yes"/>
      <point x="328.2440404040404" y="672.5648484848484"/>
      <point x="303.07070707070704" y="649.8282828282828"/>
      <point x="264.45454545454544" y="620.4444444444445" type="curve" smooth="yes"/>
      <point x="155.0" y="534.6262626262626" type="line"/>
    </contour>
  </outline>
</glyph>
<glyph name="threesuperior" format="2">
  <advance width="280.0"/>
  <unicode hex="00B3"/>
  <outline>
    <contour>
      <point x="248.1919191919192" y="468.19191919191917" type="curve" smooth="yes"/>
      <point x="315.2323232323232" y="468.19191919191917"/>
      <point x="363.369696969697" y="498.83151515151513"/>
      <point x="379.8686868686869" y="564.8282828282828" type="curve" smooth="yes"/>
      <point x="392.56161616161614" y="616.7915151515151"/>
      <point x="378.5050505050505" y="631.4040404040404"/>
      <point x="350.75757575757575" y="641.4040404040404" type="curve"/>
      <point x="372.949494949495" y="650.6161616161617"/>
      <point x="400.0808080808081" y="676.2121212121212"/>
      <point x="409.8686868686869" y="716.1717171717172" type="curve" smooth="yes"/>
      <point x="423.4646464646465" y="770.5555555555555"/>
      <point x="396.8484848484849" y="796.1717171717172"/>
      <point x="326.5959595959596" y="796.979797979798" type="curve" smooth="yes"/>
      <point x="307.6060606060606" y="797.3838383838383"/>
      <point x="265.030303030303" y="794.5555555555555"/>
      <point x="215.8989898989899" y="783.5555555555555" type="curve"/>
      <point x="210.0909090909091" y="733.7777777777778" type="line"/>
      <point x="231.68686868686868" y="736.969696969697"/>
      <point x="272.07070707070704" y="741.1616161616162"/>
      <point x="303.24242424242425" y="741.1616161616162" type="curve" smooth="yes"/>
      <point x="335.92929292929296" y="741.1616161616162"/>
      <point x="345.92929292929296" y="730.4141414141415"/>
      <point x="340.54545454545456" y="707.6868686868687" type="curve" smooth="yes"/>
      <point x="333.969696969697" y="682.7878787878788"/>
      <point x="309.2828282828283" y="664.4848484848485"/>
      <point x="290.9191919191919" y="664.4848484848485" type="curve" smooth="yes"/>
      <point x="226.32323232323233" y="664.4848484848485" type="line"/>
      <point x="213.07070707070707" y="609.8787878787879" type="line"/>
      <point x="278.47474747474746" y="609.8787878787879" type="line" smooth="yes"/>
      <point x="306.01010101010104" y="609.8787878787879"/>
      <point x="322.35353535353534" y="600.1313131313132"/>
      <point x="313.98989898989896" y="567.8686868686868" type="curve" smooth="yes"/>
      <point x="308.01010101010104" y="542.7575757575758"/>
      <point x="289.47474747474746" y="526.8383838383838"/>
      <point x="254.76767676767676" y="526.8383838383838" type="curve" smooth="yes"/>
      <point x="223.6161616161616" y="526.8383838383838"/>
      <point x="180.02020202020202" y="531.030303030303"/>
      <point x="156.40404040404042" y="534.6262626262626" type="curve"/>
      <point x="138.13131313131314" y="477.979797979798" type="line"/>
      <point x="164.55555555555554" y="473.7878787878788"/>
      <point x="212.1919191919192" y="468.19191919191917"/>
    </contour>
  </outline>
</glyph>
<glyph name="acute" format="2">
  <advance width="545.8888888888889"/>
  <unicode hex="00B4"/>
  <outline>
    <contour>
      <point x="279.030303030303" y="596.2626262626262" type="line"/>
      <point x="507.27272727272725" y="681.4141414141415" type="line"/>
      <point x="499.65656565656565" y="747.7777777777778" type="line"/>
      <point x="272.01010101010104" y="654.3939393939394" type="line"/>
    </contour>
  </outline>
</glyph>
<glyph name="mu" format="2">
  <advance width="626.9494949494949"/>
  <unicode hex="00B5"/>
  <outline>
    <contour>
      <point x="154.55555555555554" y="-151.86868686868686" type="line"/>
      <point x="228.55555555555554" y="-151.86868686868686" type="line"/>
      <point x="344.1515151515151" y="348.1313131313131" type="line"/>
      <point x="270.1515151515151" y="348.1313131313131" type="line"/>
    </contour>
    <component base="u" xOffset="128.84848484848484"/>
  </outline>
</glyph>
<glyph name="paragraph" format="2">
  <advance width="556.6565656565657"/>
  <unicode hex="00B6"/>
  <outline>
    <contour>
      <point x="208.3838383838384" y="0.0" type="line"/>
      <point x="272.2828282828283" y="0.0" type="line"/>
      <point x="424.4141414141414" y="635.7171717171717" type="line"/>
      <point x="532.6666666666666" y="635.7171717171717" type="line"/>
      <point x="381.5353535353535" y="0.0" type="line"/>
      <point x="445.030303030303" y="0.0" type="line"/>
      <point x="596.5656565656566" y="635.7171717171717" type="line"/>
      <point x="665.1313131313132" y="635.7171717171717" type="line"/>
      <point x="679.4040404040404" y="700.0" type="line"/>
      <point x="368.7878787878788" y="700.0" type="line" smooth="yes"/>
      <point x="236.55555555555554" y="700.0"/>
      <point x="145.36363636363637" y="580.1919191919192"/>
      <point x="145.36363636363637" y="472.5151515151515" type="curve" smooth="yes"/>
      <point x="145.36363636363637" y="399.6666666666667"/>
      <point x="184.32323232323233" y="333.030303030303"/>
      <point x="288.5353535353535" y="331.62626262626264" type="curve"/>
    </contour>
  </outline>
</glyph>
<glyph name="periodcentered" format="2">
  <advance width="169.4747474747475"/>
  <unicode hex="00B7"/>
  <outline>
    <contour>
      <point x="102.48484848484848" y="244.54545454545456" type="line"/>
      <point x="179.67676767676767" y="244.54545454545456" type="line"/>
      <point x="205.75757575757575" y="362.2929292929293" type="line"/>
      <point x="128.56565656565658" y="362.2929292929293" type="line"/>
    </contour>
  </outline>
</glyph>
<glyph name="cedilla" format="2">
  <advance width="791.0"/>
  <unicode hex="00B8"/>
  <outline>
    <contour>
      <point x="391.4949494949495" y="-211.12121212121212" type="curve" smooth="yes"/>
      <point x="450.3636363636364" y="-211.12121212121212"/>
      <point x="486.6488888888889" y="-183.66424242424242"/>
      <point x="500.2323232323232" y="-124.0" type="curve" smooth="yes"/>
      <point x="514.2852525252525" y="-62.92686868686869"/>
      <point x="473.42424242424244" y="-44.91919191919192"/>
      <point x="418.3838383838384" y="-44.91919191919192" type="curve" smooth="yes"/>
      <point x="412.979797979798" y="-44.91919191919192" type="line"/>
      <point x="426.3636363636364" y="5.0" type="line"/>
      <point x="386.2828282828283" y="5.0" type="line"/>
      <point x="364.8787878787879" y="-87.44444444444444" type="line"/>
      <point x="404.16161616161617" y="-87.44444444444444" type="line" smooth="yes"/>
      <point x="426.16161616161617" y="-87.44444444444444"/>
      <point x="444.2444444444444" y="-92.4"/>
      <point x="437.54545454545456" y="-119.95959595959596" type="curve" smooth="yes"/>
      <point x="431.07272727272726" y="-146.06787878787878"/>
      <point x="414.98989898989896" y="-155.87878787878788"/>
      <point x="387.2020202020202" y="-155.87878787878788" type="curve" smooth="yes"/>
      <point x="368.64646464646466" y="-155.87878787878788"/>
      <point x="341.09090909090907" y="-154.2828282828283"/>
      <point x="325.1111111111111" y="-153.0909090909091" type="curve"/>
      <point x="312.26262626262627" y="-204.2929292929293" type="line"/>
      <point x="328.47474747474746" y="-207.50505050505052"/>
      <point x="360.8989898989899" y="-211.12121212121212"/>
    </contour>
  </outline>
</glyph>
<glyph name="onesuperior" format="2">
  <advance width="280.0"/>
  <unicode hex="00B9"/>
  <outline>
    <contour>
      <point x="239.7070707070707" y="478.0" type="line"/>
      <point x="303.98989898989896" y="478.0" type="line"/>
      <point x="380.98989898989896" y="790.0" type="line"/>
      <point x="320.74747474747477" y="790.0" type="line"/>
      <point x="202.11111111111111" y="719.7676767676768" type="line"/>
      <point x="220.1919191919192" y="673.1818181818181" type="line"/>
      <point x="299.62626262626264" y="719.4848484848485" type="line"/>
    </contour>
  </outline>
</glyph>
<glyph name="ordmasculine" format="2">
  <advance width="340.6161616161616"/>
  <unicode hex="00BA"/>
  <outline>
    <contour>
      <point x="249.72727272727272" y="355.1212121212121" type="curve" smooth="yes"/>
      <point x="344.2929292929293" y="355.1212121212121"/>
      <point x="395.969696969697" y="399.3131313131313"/>
      <point x="420.62626262626264" y="506.5151515151515" type="curve" smooth="yes"/>
      <point x="426.4343434343434" y="531.939393939394"/>
      <point x="429.83838383838383" y="556.4040404040404"/>
      <point x="426.6060606060606" y="584.4444444444445" type="curve" smooth="yes"/>
      <point x="421.75757575757575" y="636.8282828282828"/>
      <point x="376.4040404040404" y="658.8080808080808"/>
      <point x="321.0" y="658.8080808080808" type="curve" smooth="yes"/>
      <point x="230.87878787878788" y="658.8080808080808"/>
      <point x="179.77777777777777" y="618.1919191919192"/>
      <point x="153.35353535353536" y="511.09090909090907" type="curve" smooth="yes"/>
      <point x="148.35353535353536" y="490.4949494949495"/>
      <point x="145.94949494949495" y="471.8989898989899"/>
      <point x="145.54545454545456" y="455.4949494949495" type="curve" smooth="yes"/>
      <point x="143.52525252525254" y="391.2020202020202"/>
      <point x="182.2020202020202" y="355.1212121212121"/>
    </contour>
    <contour>
      <point x="263.5959595959596" y="415.3636363636364" type="curve" smooth="yes"/>
      <point x="228.23232323232324" y="415.3636363636364"/>
      <point x="213.27272727272728" y="429.74747474747477"/>
      <point x="213.27272727272728" y="462.7070707070707" type="curve" smooth="yes"/>
      <point x="213.27272727272728" y="477.1111111111111"/>
      <point x="215.67676767676767" y="492.7070707070707"/>
      <point x="220.67676767676767" y="512.3030303030303" type="curve" smooth="yes"/>
      <point x="236.65656565656565" y="577.4141414141415"/>
      <point x="261.6161616161616" y="600.1818181818181"/>
      <point x="308.74747474747477" y="600.1818181818181" type="curve" smooth="yes"/>
      <point x="343.7070707070707" y="600.1818181818181"/>
      <point x="359.4949494949495" y="587.5858585858585"/>
      <point x="359.4949494949495" y="554.8181818181819" type="curve" smooth="yes"/>
      <point x="359.4949494949495" y="541.8181818181819"/>
      <point x="358.09090909090907" y="527.2424242424242"/>
      <point x="353.8989898989899" y="509.8787878787879" type="curve" smooth="yes"/>
      <point x="335.8989898989899" y="439.32323232323233"/>
      <point x="311.1313131313131" y="415.3636363636364"/>
    </contour>
  </outline>
</glyph>
<glyph name="guillemotright" format="2">
  <advance width="479.95959595959596"/>
  <unicode hex="00BB"/>
  <outline>
    <contour>
      <point x="370.93939393939394" y="409.1818181818182" type="line"/>
      <point x="351.050505050505" y="339.83838383838383" type="line"/>
      <point x="439.3939393939394" y="243.17171717171718" type="line"/>
      <point x="307.9191919191919" y="156.7171717171717" type="line"/>
      <point x="285.8181818181818" y="79.35353535353535" type="line"/>
      <point x="499.4646464646465" y="221.49494949494948" type="line"/>
      <point x="513.5252525252525" y="259.25252525252523" type="line"/>
    </contour>
    <contour>
      <point x="147.62626262626262" y="409.1818181818182" type="line"/>
      <point x="127.73737373737373" y="339.83838383838383" type="line"/>
      <point x="216.08080808080808" y="243.17171717171718" type="line"/>
      <point x="84.60606060606061" y="156.7171717171717" type="line"/>
      <point x="62.505050505050505" y="79.35353535353535" type="line"/>
      <point x="276.1515151515151" y="221.49494949494948" type="line"/>
      <point x="290.2121212121212" y="259.25252525252523" type="line"/>
    </contour>
  </outline>
</glyph>
<glyph name="questiondown" format="2">
  <advance width="407.5656565656566"/>
  <unicode hex="00BF"/>
  <outline>
    <contour>
      <point x="344.2020202020202" y="304.5151515151515" type="curve"/>
      <point x="273.030303030303" y="304.5151515151515" type="line"/>
      <point x="264.62626262626264" y="265.1111111111111" type="line" smooth="yes"/>
      <point x="258.4343434343434" y="234.76767676767676"/>
      <point x="234.45454545454547" y="201.6161616161616"/>
      <point x="187.13131313131314" y="164.6969696969697" type="curve" smooth="yes"/>
      <point x="61.63636363636363" y="67.83838383838383"/>
      <point x="23.02020202020202" y="29.2020202020202"/>
      <point x="23.02020202020202" y="-70.56565656565657" type="curve" smooth="yes"/>
      <point x="23.02020202020202" y="-165.2828282828283"/>
      <point x="91.63636363636364" y="-201.53535353535352"/>
      <point x="187.94949494949495" y="-201.53535353535352" type="curve" smooth="yes"/>
      <point x="236.56565656565655" y="-201.53535353535352"/>
      <point x="304.77777777777777" y="-187.13131313131314"/>
      <point x="342.5858585858586" y="-176.32323232323233" type="curve"/>
      <point x="348.24242424242425" y="-114.82828282828282" type="line"/>
      <point x="312.47474747474746" y="-122.21212121212122"/>
      <point x="247.8989898989899" y="-132.78787878787878"/>
      <point x="204.05050505050505" y="-132.78787878787878" type="curve" smooth="yes"/>
      <point x="142.36363636363637" y="-132.78787878787878"/>
      <point x="103.04040404040404" y="-117.06060606060606"/>
      <point x="103.04040404040404" y="-64.9090909090909" type="curve" smooth="yes"/>
      <point x="103.04040404040404" y="2.4848484848484844"/>
      <point x="137.23232323232324" y="34.84848484848485"/>
      <point x="236.24242424242425" y="112.26262626262627" type="curve" smooth="yes"/>
      <point x="295.8181818181818" y="158.22222222222223"/>
      <point x="329.01010101010104" y="198.3939393939394"/>
      <point x="337.3939393939394" y="242.52525252525254" type="curve" smooth="yes"/>
      <point x="341.6060606060606" y="263.5858585858586"/>
      <point x="343.6060606060606" y="290.6666666666667"/>
    </contour>
    <contour>
      <point x="386.2828282828283" y="500.0" type="line"/>
      <point x="309.8787878787879" y="500.0" type="line"/>
      <point x="283.7979797979798" y="383.25252525252523" type="line"/>
      <point x="360.7979797979798" y="383.25252525252523" type="line"/>
    </contour>
  </outline>
</glyph>
<glyph name="AE" format="2">
  <advance width="779.6262626262626"/>
  <unicode hex="00C6"/>
  <outline>
    <contour>
      <point x="24.727272727272727" y="0.0" type="line"/>
      <point x="98.51515151515152" y="0.0" type="line"/>
      <point x="187.86868686868686" y="176.21212121212122" type="line"/>
      <point x="388.67676767676767" y="176.21212121212122" type="line"/>
      <point x="348.16161616161617" y="0.0" type="line"/>
      <point x="736.8787878787879" y="0.0" type="line"/>
      <point x="752.1717171717172" y="72.1919191919192" type="line"/>
      <point x="437.4343434343434" y="72.1919191919192" type="line"/>
      <point x="495.0808080808081" y="316.3333333333333" type="line"/>
      <point x="755.4141414141415" y="316.3333333333333" type="line"/>
      <point x="770.7070707070707" y="386.5050505050505" type="line"/>
      <point x="510.77777777777777" y="386.5050505050505" type="line"/>
      <point x="568.4444444444445" y="625.3636363636364" type="line"/>
      <point x="884.3737373737374" y="623.3636363636364" type="line"/>
      <point x="900.070707070707" y="695.959595959596" type="line"/>
      <point x="369.67676767676767" y="695.959595959596" type="line"/>
    </contour>
    <contour>
      <point x="220.83838383838383" y="247.0" type="line"/>
      <point x="407.8989898989899" y="623.7676767676768" type="line"/>
      <point x="495.65656565656565" y="623.7676767676768" type="line"/>
      <point x="405.37373737373736" y="247.0" type="line"/>
    </contour>
  </outline>
</glyph>
<glyph name="Eth" format="2">
  <advance width="611.2121212121212"/>
  <unicode hex="00D0"/>
  <outline>
    <contour>
      <point x="86.57575757575758" y="308.969696969697" type="line"/>
      <point x="371.8888888888889" y="308.969696969697" type="line"/>
      <point x="389.37373737373736" y="386.5656565656566" type="line"/>
      <point x="102.46464646464646" y="386.5656565656566" type="line"/>
    </contour>
    <component base="D" xOffset="4.424242424242424"/>
  </outline>
</glyph>
<glyph name="Odieresis" format="2">
  <advance width="627.5151515151515"/>
  <unicode hex="00D6"/>
  <outline>
    <contour>
      <point x="370.4646464646465" y="811.989898989899" type="line"/>
      <point x="439.2121212121212" y="811.989898989899" type="line"/>
      <point x="461.0808080808081" y="905.2727272727273" type="line"/>
      <point x="391.92929292929296" y="905.2727272727273" type="line"/>
    </contour>
    <contour>
      <point x="560.1616161616162" y="811.989898989899" type="line"/>
      <point x="627.7171717171717" y="811.989898989899" type="line"/>
      <point x="649.5858585858585" y="905.2727272727273" type="line"/>
      <point x="580.4343434343434" y="905.2727272727273" type="line"/>
    </contour>
    <component base="O"/>
  </outline>
</glyph>
<glyph name="multiply" format="2">
  <advance width="560.0"/>
  <unicode hex="00D7"/>
  <outline>
    <contour>
      <point x="497.85858585858585" y="41.494949494949495" type="line"/>
      <point x="546.5050505050505" y="90.14141414141415" type="line"/>
      <point x="383.83838383838383" y="250.59595959595958" type="line"/>
      <point x="546.5050505050505" y="411.45454545454544" type="line"/>
      <point x="498.26262626262627" y="460.1010101010101" type="line"/>
      <point x="337.4040404040404" y="297.4343434343434" type="line"/>
      <point x="177.35353535353536" y="459.2929292929293" type="line"/>
      <point x="128.7070707070707" y="410.64646464646466" type="line"/>
      <point x="290.5656565656566" y="250.59595959595958" type="line"/>
      <point x="128.3030303030303" y="90.14141414141415" type="line"/>
      <point x="176.94949494949495" y="41.898989898989896" type="line"/>
      <point x="337.4040404040404" y="203.75757575757575" type="line"/>
    </contour>
  </outline>
</glyph>
<glyph name="Oslash" format="2">
  <advance width="627.5151515151515"/>
  <unicode hex="00D8"/>
  <outline>
    <contour>
      <point x="111.25252525252526" y="-114.44444444444444" type="line"/>
      <point x="414.65656565656565" y="329.17171717171715" type="line"/>
      <point x="718.4646464646464" y="775.7878787878788" type="line"/>
      <point x="670.6868686868687" y="796.6565656565657" type="line"/>
      <point x="369.09090909090907" y="354.06060606060606" type="line"/>
      <point x="68.4949494949495" y="-88.74747474747474" type="line"/>
    </contour>
    <component base="O"/>
  </outline>
</glyph>
<glyph name="Udieresis" format="2">
  <advance width="593.8080808080808"/>
  <unicode hex="00DC"/>
  <outline>
    <contour>
      <point x="426.75757575757575" y="811.989898989899" type="line"/>
      <point x="495.5050505050505" y="811.989898989899" type="line"/>
      <point x="517.3737373737374" y="905.2727272727273" type="line"/>
      <point x="448.22222222222223" y="905.2727272727273" type="line"/>
    </contour>
    <contour>
      <point x="451.6060606060606" y="811.989898989899" type="line"/>
      <point x="519.1616161616162" y="811.989898989899" type="line"/>
      <point x="541.030303030303" y="905.2727272727273" type="line"/>
      <point x="471.8787878787879" y="905.2727272727273" type="line"/>
    </contour>
    <component base="U"/>
  </outline>
</glyph>
<glyph name="Thorn" format="2">
  <advance width="548.7272727272727"/>
  <unicode hex="00DE"/>
  <outline>
    <contour>
      <point x="76.11111111111111" y="0.0" type="line"/>
      <point x="150.0909090909091" y="0.0" type="line"/>
      <point x="177.85858585858585" y="120.26262626262627" type="line"/>
      <point x="336.4343434343434" y="119.85858585858585" type="line" smooth="yes"/>
      <point x="477.07070707070704" y="119.05050505050505"/>
      <point x="566.7878787878788" y="217.43434343434345"/>
      <point x="597.8080808080808" y="359.32323232323233" type="curve" smooth="yes"/>
      <point x="624.4242424242424" y="482.4040404040404"/>
      <point x="585.4545454545455" y="584.6565656565657"/>
      <point x="442.3030303030303" y="584.6565656565657" type="curve" smooth="yes"/>
      <point x="287.3030303030303" y="584.6565656565657" type="line"/>
      <point x="314.09090909090907" y="695.959595959596" type="line"/>
      <point x="239.7070707070707" y="695.959595959596" type="line"/>
    </contour>
    <contour>
      <point x="195.55555555555554" y="194.2828282828283" type="line"/>
      <point x="270.6060606060606" y="511.44444444444446" type="line"/>
      <point x="425.01010101010104" y="510.6363636363636" type="line" smooth="yes"/>
      <point x="528.5757575757576" y="509.82828282828285"/>
      <point x="542.3838383838383" y="438.5656565656566"/>
      <point x="522.4242424242424" y="359.32323232323233" type="curve" smooth="yes"/>
      <point x="498.4646464646465" y="265.0808080808081"/>
      <point x="447.92929292929296" y="194.2828282828283"/>
      <point x="353.72727272727275" y="194.2828282828283" type="curve" smooth="yes"/>
    </contour>
  </outline>
</glyph>
<glyph name="germandbls" format="2">
  <advance width="538.969696969697"/>
  <unicode hex="00DF"/>
  <outline>
    <contour>
      <point x="329.32323232323233" y="-10.212121212121213" type="curve" smooth="yes"/>
      <point x="468.050505050505" y="-10.212121212121213"/>
      <point x="547.8383838383838" y="70.34343434343434"/>
      <point x="547.8383838383838" y="193.7070707070707" type="curve" smooth="yes"/>
      <point x="547.8383838383838" y="261.8989898989899"/>
      <point x="523.4343434343434" y="279.4949494949495"/>
      <point x="458.72727272727275" y="319.64646464646466" type="curve" smooth="yes"/>
      <point x="406.5151515151515" y="352.26262626262627"/>
      <point x="396.3030303030303" y="363.050505050505"/>
      <point x="396.3030303030303" y="387.62626262626264" type="curve" smooth="yes"/>
      <point x="396.3030303030303" y="414.030303030303"/>
      <point x="419.1111111111111" y="427.8181818181818"/>
      <point x="479.1515151515151" y="456.2020202020202" type="curve" smooth="yes"/>
      <point x="541.6161616161617" y="485.3939393939394"/>
      <point x="575.5151515151515" y="530.010101010101"/>
      <point x="575.5151515151515" y="607.5252525252525" type="curve" smooth="yes"/>
      <point x="575.5151515151515" y="684.030303030303"/>
      <point x="522.4141414141415" y="728.0909090909091"/>
      <point x="411.4848484848485" y="728.0909090909091" type="curve" smooth="yes"/>
      <point x="288.0" y="728.0909090909091"/>
      <point x="224.91919191919192" y="678.3434343434343"/>
      <point x="189.5151515151515" y="528.939393939394" type="curve" smooth="yes"/>
      <point x="65.32323232323232" y="0.0" type="line"/>
      <point x="136.49494949494948" y="0.0" type="line"/>
      <point x="258.07070707070704" y="519.8787878787879" type="line" smooth="yes"/>
      <point x="281.8181818181818" y="622.2525252525253"/>
      <point x="318.98989898989896" y="662.959595959596"/>
      <point x="405.2323232323232" y="662.959595959596" type="curve" smooth="yes"/>
      <point x="472.72727272727275" y="662.959595959596"/>
      <point x="499.1111111111111" y="640.3838383838383"/>
      <point x="499.1111111111111" y="598.8888888888889" type="curve" smooth="yes"/>
      <point x="499.1111111111111" y="550.6262626262626"/>
      <point x="477.979797979798" y="525.5353535353536"/>
      <point x="422.32323232323233" y="497.32323232323233" type="curve" smooth="yes"/>
      <point x="348.7676767676768" y="459.7676767676768"/>
      <point x="320.4949494949495" y="433.8989898989899"/>
      <point x="320.4949494949495" y="374.54545454545456" type="curve" smooth="yes"/>
      <point x="320.4949494949495" y="334.4646464646465"/>
      <point x="337.5151515151515" y="310.65656565656565"/>
      <point x="395.93939393939394" y="275.44444444444446" type="curve" smooth="yes"/>
      <point x="458.6666666666667" y="237.2929292929293"/>
      <point x="471.4343434343434" y="223.73737373737373"/>
      <point x="471.4343434343434" y="185.43434343434345" type="curve" smooth="yes"/>
      <point x="471.4343434343434" y="108.75757575757575"/>
      <point x="420.020202020202" y="54.91919191919192"/>
      <point x="325.24242424242425" y="54.91919191919192" type="curve" smooth="yes"/>
      <point x="294.8181818181818" y="54.91919191919192"/>
      <point x="245.7979797979798" y="62.515151515151516"/>
      <point x="217.58585858585857" y="68.11111111111111" type="curve"/>
      <point x="202.88888888888889" y="9.444444444444445" type="line"/>
      <point x="232.73737373737373" y="1.0202020202020203"/>
      <point x="287.83838383838383" y="-10.212121212121213"/>
    </contour>
  </outline>
</glyph>
<glyph name="acircumflex" format="2">
  <advance width="500.5858585858586"/>
  <unicode hex="00E2"/>
  <outline>
    <contour>
      <point x="240.6060606060606" y="586.9191919191919" type="line"/>
      <point x="322.7979797979798" y="586.9191919191919" type="line"/>
      <point x="411.7878787878788" y="672.969696969697" type="line"/>
      <point x="459.62626262626264" y="586.9191919191919" type="line"/>
      <point x="535.6060606060606" y="586.9191919191919" type="line"/>
      <point x="449.01010101010104" y="738.0808080808081" type="line"/>
      <point x="395.4949494949495" y="738.0808080808081" type="line"/>
    </contour>
    <component base="a"/>
  </outline>
</glyph>
<glyph name="adieresis" format="2">
  <advance width="500.5858585858586"/>
  <unicode hex="00E4"/>
  <outline>
    <contour>
      <point x="348.26262626262627" y="620.070707070707" type="line"/>
      <point x="417.01010101010104" y="620.070707070707" type="line"/>
      <point x="438.8787878787879" y="713.3535353535353" type="line"/>
      <point x="369.72727272727275" y="713.3535353535353" type="line"/>
    </contour>
    <contour>
      <point x="373.1111111111111" y="620.070707070707" type="line"/>
      <point x="440.6666666666667" y="620.070707070707" type="line"/>
      <point x="462.5353535353535" y="713.3535353535353" type="line"/>
      <point x="393.3838383838384" y="713.3535353535353" type="line"/>
    </contour>
    <component base="a"/>
  </outline>
</glyph>
